M48
;Layer_Color=9474304
;FILE_FORMAT=2:4
INCH,TZ
;TYPE=PLATED
T1F00S00C0.0197
T3F00S00C0.0315
T4F00S00C0.0315
T5F00S00C0.0354
T6F00S00C0.0354
T8F00S00C0.0360
T9F00S00C0.0433
T10F00S00C0.0472
;TYPE=NON_PLATED
T12F00S00C0.0276
T13F00S00C0.0310
T14F00S00C0.0454
%
T01
X4134Y11614
X5118Y9787
X5512Y13110
X5906Y12953
X7087Y12264
X9449Y14567
X11299
X13780Y15551
Y13189
Y11220
X17534Y10822
X18012Y10335
X18307Y11220
Y13189
X18307Y15551
X11417Y8033
X11614Y7480
X9567Y8033
X8661Y7087
X7972Y8417
X7677Y5512
X8505Y4920
X9055Y4134
X8720Y3150
X6791Y3346
X11319Y3946
Y4528
X11220Y2579
X20669Y9843
X20472Y19606
X19685Y20551
X18307Y17520
X15287Y18819
X14882Y19803
X16161Y21437
X10512Y21404
X10502Y22402
X10120Y23387
X10118Y23818
X8543Y24055
X9134Y25827
X11299Y26260
X9370Y21404
X6517Y22420
X5512Y20276
X6693Y18898
X6289Y17645
X5539Y17645
X13780Y17520
T03
X4342Y6665
X5917
X7677Y2913
X9055Y12205
X9646
X10236
X5906Y23425
X4331
T04
X14157Y9252
X15157
X16157
T05
X18150Y3976
X19150
Y4976
X20150
Y3976
X18150Y4976
X21150
Y3976
X22150
Y4976
Y23976
X21150
Y24976
X22150
X20150
Y23976
X19150
Y24976
X18150
Y23976
T06
X18150Y5976
X19150
Y6976
X20150
Y5976
X18150Y6976
X21150
Y5976
X22150
Y6976
Y21976
X21150
Y22976
X22150
X20150
Y21976
X19150
Y22976
X18150
Y21976
T08
X4528Y17323
Y18110
Y18898
T09
X13189Y7052
X14173
X15157
X15157Y21885
X14173
X13189
T10
X21850Y10468
Y12469
Y14468
Y16468
Y18469
T12
X4793Y13189
Y14764
T13
X13173Y2069
X13673
X14173
X14673
X15173
Y26869
X14673
X14173
X13673
X13173
T14
X4252Y2756
X4016Y9685
X22362Y2756
Y26181
X4252Y26181
M30
