G04*
G04 #@! TF.GenerationSoftware,Altium Limited,Altium Designer,21.9.2 (33)*
G04*
G04 Layer_Color=65535*
%FSLAX25Y25*%
%MOIN*%
G70*
G04*
G04 #@! TF.SameCoordinates,35660DA9-C4E3-4063-8D90-980638CF2194*
G04*
G04*
G04 #@! TF.FilePolarity,Positive*
G04*
G01*
G75*
%ADD10C,0.00787*%
%ADD11C,0.00984*%
%ADD12C,0.02362*%
%ADD13C,0.01000*%
%ADD14C,0.00500*%
%ADD15C,0.00600*%
D10*
X142069Y88220D02*
X142522Y87333D01*
X143058Y86494D01*
X143671Y85709D01*
X144357Y84987D01*
X145108Y84333D01*
X145918Y83753D01*
X146780Y83254D01*
X147685Y82839D01*
X148626Y82512D01*
X149594Y82276D01*
X150580Y82134D01*
X151575Y82087D01*
X152570Y82134D01*
X153556Y82276D01*
X154523Y82512D01*
X155464Y82839D01*
X156370Y83254D01*
X157231Y83753D01*
X158042Y84333D01*
X158793Y84986D01*
X159478Y85709D01*
X160092Y86494D01*
X160627Y87333D01*
X161081Y88220D01*
X142628Y97736D02*
X160522D01*
X71457Y147539D02*
X74213D01*
X71457Y141831D02*
X74213D01*
X226496Y54764D02*
Y74764D01*
X176496D02*
X226496D01*
X176496Y54764D02*
Y74764D01*
Y54764D02*
X226496D01*
X176496Y214764D02*
Y234764D01*
Y214764D02*
X226496D01*
Y234764D01*
X176496D02*
X226496D01*
X86024Y34646D02*
X97047D01*
X86024Y48031D02*
X97047D01*
X107874Y233465D02*
Y244488D01*
X94488Y233465D02*
Y244488D01*
X71850Y154528D02*
Y203740D01*
X121063Y154528D02*
Y203740D01*
X71850Y154528D02*
X84252D01*
X71850Y203740D02*
X84252D01*
X108661Y154528D02*
X121063D01*
X108661Y203740D02*
X121063D01*
X82284Y226378D02*
X94882D01*
X82284Y206693D02*
X94882D01*
X82284D02*
Y226378D01*
X94882Y206693D02*
Y226378D01*
X55610Y90158D02*
X59301D01*
X64173Y85285D01*
X38189D02*
X43061Y90158D01*
X46752D01*
X64173Y63386D02*
Y85285D01*
X55610Y63386D02*
X64173D01*
X38189D02*
X46752D01*
X38189D02*
Y85285D01*
X50787Y38583D02*
Y42520D01*
X47736Y38583D02*
X50787D01*
X38976D02*
Y42520D01*
Y38583D02*
X42028D01*
X164173Y103150D02*
X194095D01*
X164173Y121260D02*
X194095D01*
X75590Y46063D02*
X78740D01*
Y42126D02*
Y46063D01*
X66929D02*
X70079D01*
X66929Y42126D02*
Y46063D01*
X109449Y142461D02*
X116535D01*
X109449Y148878D02*
X116535D01*
X71850Y87598D02*
X84252D01*
X71850Y136811D02*
X84252D01*
X108661Y87598D02*
X121063D01*
X108661Y136811D02*
X121063D01*
X71850Y87598D02*
Y136811D01*
X121063Y87598D02*
Y136811D01*
X58071Y106496D02*
Y110039D01*
X63976Y106496D02*
Y110039D01*
X67913Y163583D02*
Y167126D01*
X62008Y163583D02*
Y167126D01*
X55905Y245276D02*
Y248327D01*
X51968Y245276D02*
X55905D01*
Y254035D02*
Y257087D01*
X51968D02*
X55905D01*
X85827Y245276D02*
Y249213D01*
X82677Y245276D02*
X85827D01*
X74016D02*
Y249213D01*
Y245276D02*
X77165D01*
X93307Y151575D02*
X97244D01*
Y148425D02*
Y151575D01*
X93307Y139764D02*
X97244D01*
Y142913D01*
X226496Y34764D02*
Y54764D01*
X176496D02*
X226496D01*
X176496Y34764D02*
Y54764D01*
Y34764D02*
X226496D01*
X176496Y234764D02*
Y254764D01*
Y234764D02*
X226496D01*
Y254764D01*
X176496D02*
X226496D01*
X84252Y62992D02*
X96850D01*
X84252Y82677D02*
X96850D01*
Y62992D02*
Y82677D01*
X84252Y62992D02*
Y82677D01*
X172835Y186221D02*
Y205906D01*
X185433Y186221D02*
Y205906D01*
X172835D02*
X185433D01*
X172835Y186221D02*
X185433D01*
X126969Y196752D02*
Y197441D01*
X144685Y196752D02*
Y197441D01*
X126969Y186811D02*
Y187500D01*
X144685Y186811D02*
Y187500D01*
X126969Y197441D02*
X144685D01*
X126969Y186811D02*
X144685D01*
X126969Y199803D02*
X144685D01*
X126969Y210433D02*
X144685D01*
Y199803D02*
Y200492D01*
X126969Y199803D02*
Y200492D01*
X144685Y209744D02*
Y210433D01*
X126969Y209744D02*
Y210433D01*
X124213Y80905D02*
X124902D01*
X124213Y98622D02*
X124902D01*
X134153Y80905D02*
X134843D01*
X134153Y98622D02*
X134843D01*
X124213Y80905D02*
Y98622D01*
X134843Y80905D02*
Y98622D01*
X126772Y164567D02*
X156693D01*
X126772Y146457D02*
X156693D01*
X126772Y166142D02*
X156693D01*
X126772Y184252D02*
X156693D01*
X164173Y166142D02*
X194095D01*
X164173Y184252D02*
X194095D01*
X164173Y164567D02*
X194095D01*
X164173Y146457D02*
X194095D01*
X164173Y122835D02*
X194095D01*
X164173Y140945D02*
X194095D01*
X126772Y122835D02*
X156693D01*
X126772Y140945D02*
X156693D01*
X126772Y121260D02*
X156693D01*
X126772Y103150D02*
X156693D01*
X43061Y211024D02*
X46752D01*
X38189Y215896D02*
X43061Y211024D01*
X59301D02*
X64173Y215896D01*
X55610Y211024D02*
X59301D01*
X38189Y215896D02*
Y237795D01*
X46752D01*
X55610D02*
X64173D01*
Y215896D02*
Y237795D01*
X57087Y188976D02*
X59055Y187008D01*
X55118D02*
X57087Y188976D01*
Y179134D02*
Y188976D01*
D11*
X163189Y97342D02*
X162451Y97769D01*
Y96916D01*
X163189Y97342D01*
X99902Y205689D02*
X99163Y206115D01*
Y205263D01*
X99902Y205689D01*
X52559Y46063D02*
X51821Y46489D01*
Y45637D01*
X52559Y46063D01*
X197146Y102165D02*
X196407Y102592D01*
Y101739D01*
X197146Y102165D01*
X66240Y38681D02*
X65502Y39107D01*
Y38255D01*
X66240Y38681D01*
X48917Y258366D02*
X48179Y258792D01*
Y257940D01*
X48917Y258366D01*
X87500Y252658D02*
X86762Y253084D01*
Y252231D01*
X87500Y252658D01*
X90354Y152756D02*
X89616Y153182D01*
Y152330D01*
X90354Y152756D01*
X80216Y83681D02*
X79478Y84107D01*
Y83255D01*
X80216Y83681D01*
X168799Y206909D02*
X168061Y207336D01*
Y206483D01*
X168799Y206909D01*
X147736Y186909D02*
X146998Y187336D01*
Y186483D01*
X147736Y186909D01*
Y199902D02*
X146998Y200328D01*
Y199475D01*
X147736Y199902D01*
X135236Y101181D02*
X134498Y101607D01*
Y100755D01*
X135236Y101181D01*
X159744Y145472D02*
X159006Y145899D01*
Y145046D01*
X159744Y145472D01*
Y165157D02*
X159006Y165584D01*
Y164731D01*
X159744Y165157D01*
X162106Y185236D02*
X161368Y185662D01*
Y184810D01*
X162106Y185236D01*
Y165551D02*
X161368Y165977D01*
Y165125D01*
X162106Y165551D01*
X197146Y121850D02*
X196407Y122277D01*
Y121424D01*
X197146Y121850D01*
X124705Y141929D02*
X123967Y142355D01*
Y141503D01*
X124705Y141929D01*
Y122244D02*
X123967Y122670D01*
Y121818D01*
X124705Y122244D01*
D12*
X92126Y210630D02*
X91681Y211553D01*
X90682Y211781D01*
X89881Y211142D01*
Y210118D01*
X90682Y209478D01*
X91681Y209706D01*
X92126Y210630D01*
X89370Y78740D02*
X88925Y79664D01*
X87926Y79892D01*
X87125Y79253D01*
Y78228D01*
X87926Y77589D01*
X88925Y77817D01*
X89370Y78740D01*
X177953Y201969D02*
X177508Y202892D01*
X176509Y203120D01*
X175707Y202481D01*
Y201456D01*
X176509Y200817D01*
X177508Y201045D01*
X177953Y201969D01*
D13*
X152652Y47244D02*
X152607Y48237D01*
X152471Y49221D01*
X152247Y50190D01*
X151935Y51134D01*
X151539Y52046D01*
X151062Y52917D01*
X150507Y53742D01*
X149880Y54514D01*
X149185Y55224D01*
X148429Y55869D01*
X147617Y56442D01*
X146756Y56939D01*
X145853Y57356D01*
X144917Y57689D01*
X143954Y57935D01*
X142972Y58093D01*
X141980Y58161D01*
X140987Y58138D01*
X139999Y58025D01*
X139026Y57823D01*
X138075Y57533D01*
X137154Y57158D01*
X136272Y56701D01*
X135434Y56165D01*
X134649Y55555D01*
X133923Y54877D01*
X133261Y54135D01*
X132669Y53336D01*
X132153Y52487D01*
X131716Y51594D01*
X131362Y50665D01*
X131094Y49708D01*
X130913Y48731D01*
X130823Y47741D01*
Y46747D01*
X130913Y45757D01*
X131094Y44779D01*
X131362Y43822D01*
X131716Y42893D01*
X132153Y42000D01*
X132669Y41151D01*
X133261Y40352D01*
X133923Y39610D01*
X134649Y38932D01*
X135434Y38322D01*
X136272Y37787D01*
X137154Y37329D01*
X138075Y36954D01*
X139026Y36664D01*
X139999Y36462D01*
X140987Y36349D01*
X141980Y36326D01*
X142972Y36394D01*
X143954Y36552D01*
X144917Y36798D01*
X145853Y37131D01*
X146756Y37548D01*
X147617Y38045D01*
X148429Y38618D01*
X149185Y39263D01*
X149880Y39974D01*
X150507Y40745D01*
X151062Y41570D01*
X151539Y42442D01*
X151935Y43353D01*
X152247Y44297D01*
X152471Y45266D01*
X152607Y46251D01*
X152652Y47244D01*
X152653Y242126D02*
X152608Y243120D01*
X152472Y244104D01*
X152248Y245073D01*
X151936Y246017D01*
X151540Y246928D01*
X151063Y247800D01*
X150508Y248625D01*
X149881Y249396D01*
X149186Y250107D01*
X148430Y250752D01*
X147617Y251325D01*
X146757Y251822D01*
X145854Y252239D01*
X144918Y252572D01*
X143955Y252818D01*
X142973Y252976D01*
X141981Y253044D01*
X140988Y253021D01*
X140000Y252908D01*
X139027Y252706D01*
X138076Y252416D01*
X137155Y252041D01*
X136273Y251583D01*
X135435Y251048D01*
X134650Y250438D01*
X133924Y249760D01*
X133262Y249018D01*
X132670Y248219D01*
X132154Y247370D01*
X131717Y246477D01*
X131363Y245548D01*
X131095Y244591D01*
X130914Y243613D01*
X130824Y242623D01*
Y241629D01*
X130914Y240639D01*
X131095Y239662D01*
X131363Y238705D01*
X131717Y237776D01*
X132154Y236883D01*
X132670Y236034D01*
X133262Y235235D01*
X133924Y234493D01*
X134650Y233815D01*
X135435Y233205D01*
X136273Y232669D01*
X137155Y232212D01*
X138076Y231837D01*
X139027Y231547D01*
X140000Y231345D01*
X140988Y231232D01*
X141981Y231209D01*
X142973Y231277D01*
X143955Y231435D01*
X144918Y231681D01*
X145854Y232014D01*
X146757Y232431D01*
X147617Y232928D01*
X148430Y233501D01*
X149186Y234146D01*
X149881Y234857D01*
X150508Y235628D01*
X151063Y236453D01*
X151540Y237325D01*
X151936Y238236D01*
X152248Y239180D01*
X152472Y240149D01*
X152608Y241133D01*
X152653Y242126D01*
X36811Y198031D02*
X36811Y164173D01*
X50394Y198031D02*
X53740D01*
X36811D02*
X40157D01*
X53740Y164173D02*
Y198031D01*
X50394Y164173D02*
X53740D01*
X36811D02*
X40157D01*
X54765Y128932D02*
Y133496D01*
Y146032D02*
Y150595D01*
X44020Y153839D02*
X48696D01*
X44020Y125689D02*
X48696D01*
X161776Y21367D02*
Y36867D01*
X121776Y21367D02*
X161776D01*
X121776D02*
Y36867D01*
X121732Y70744D02*
X127732D01*
X121732Y49744D02*
Y70744D01*
X161732Y49744D02*
Y70744D01*
X156232D02*
X161732D01*
X121688Y252503D02*
Y268003D01*
X161688D01*
Y252503D02*
Y268003D01*
X155732Y218626D02*
X161732D01*
Y239626D01*
X121732Y218626D02*
Y239626D01*
Y218626D02*
X127232D01*
X200787Y94685D02*
X230709D01*
X200787Y194370D02*
X230709D01*
X200787Y94685D02*
Y194370D01*
X207480Y94685D02*
Y194291D01*
X230709Y94685D02*
Y194370D01*
X174290Y71333D02*
X173290Y72333D01*
X171291D01*
X170291Y71333D01*
Y67334D01*
X171291Y66335D01*
X173290D01*
X174290Y67334D01*
Y69334D01*
X172291D01*
X170291Y56492D02*
Y62490D01*
X174290Y56492D01*
Y62490D01*
Y221628D02*
X173290Y222628D01*
X171291D01*
X170291Y221628D01*
Y217630D01*
X171291Y216630D01*
X173290D01*
X174290Y217630D01*
Y219629D01*
X172291D01*
X170291Y226472D02*
Y232470D01*
X173290D01*
X174290Y231471D01*
Y229471D01*
X173290Y228472D01*
X170291D01*
Y247063D02*
Y253061D01*
X173290D01*
X174290Y252061D01*
Y250062D01*
X173290Y249062D01*
X170291D01*
Y36433D02*
Y42431D01*
X174290Y36433D01*
Y42431D01*
Y242219D02*
X173290Y243218D01*
X171291D01*
X170291Y242219D01*
Y238220D01*
X171291Y237221D01*
X173290D01*
X174290Y238220D01*
Y240219D01*
X172291D01*
X174290Y51274D02*
X173290Y52274D01*
X171291D01*
X170291Y51274D01*
Y47275D01*
X171291Y46276D01*
X173290D01*
X174290Y47275D01*
Y49275D01*
X172291D01*
X189976Y30620D02*
Y26621D01*
X191976Y24622D01*
X193975Y26621D01*
Y30620D01*
X195974Y24622D02*
Y30620D01*
X199973Y24622D01*
Y30620D01*
X201973Y24622D02*
Y30620D01*
X205971Y24622D01*
Y30620D01*
X189976Y262904D02*
Y258905D01*
X191976Y256906D01*
X193975Y258905D01*
Y262904D01*
X195974Y256906D02*
Y262904D01*
X198974D01*
X199973Y261904D01*
Y259905D01*
X198974Y258905D01*
X195974D01*
X201973Y256906D02*
Y262904D01*
X204972D01*
X205971Y261904D01*
Y259905D01*
X204972Y258905D01*
X201973D01*
D14*
X118898Y67716D02*
X118634Y68701D01*
X117913Y69421D01*
X116929Y69685D01*
X115945Y69421D01*
X115224Y68701D01*
X114961Y67716D01*
X115224Y66732D01*
X115945Y66012D01*
X116929Y65748D01*
X117913Y66012D01*
X118634Y66732D01*
X118898Y67716D01*
X122835Y83858D02*
X122571Y84842D01*
X121850Y85563D01*
X120866Y85827D01*
X119882Y85563D01*
X119161Y84842D01*
X118898Y83858D01*
X119161Y82874D01*
X119882Y82153D01*
X120866Y81890D01*
X121850Y82153D01*
X122571Y82874D01*
X122835Y83858D01*
X173228Y259842D02*
X172965Y260827D01*
X172244Y261547D01*
X171260Y261811D01*
X170276Y261547D01*
X169555Y260827D01*
X169291Y259842D01*
X169555Y258858D01*
X170276Y258138D01*
X171260Y257874D01*
X172244Y258138D01*
X172965Y258858D01*
X173228Y259842D01*
X80709Y29134D02*
X80585Y30113D01*
X80222Y31030D01*
X79642Y31829D01*
X78881Y32458D01*
X77988Y32878D01*
X77019Y33063D01*
X76034Y33001D01*
X75095Y32696D01*
X74262Y32167D01*
X73586Y31448D01*
X73111Y30583D01*
X72866Y29627D01*
Y28640D01*
X73111Y27685D01*
X73586Y26820D01*
X74262Y26100D01*
X75095Y25572D01*
X76034Y25267D01*
X77019Y25205D01*
X77988Y25390D01*
X78881Y25810D01*
X79642Y26439D01*
X80222Y27237D01*
X80585Y28155D01*
X80709Y29134D01*
X72835Y78740D02*
X72571Y79724D01*
X71850Y80445D01*
X70866Y80709D01*
X69882Y80445D01*
X69161Y79724D01*
X68898Y78740D01*
X69161Y77756D01*
X69882Y77035D01*
X70866Y76772D01*
X71850Y77035D01*
X72571Y77756D01*
X72835Y78740D01*
X68898Y153543D02*
X68634Y154528D01*
X67913Y155248D01*
X66929Y155512D01*
X65945Y155248D01*
X65224Y154528D01*
X64961Y153543D01*
X65224Y152559D01*
X65945Y151839D01*
X66929Y151575D01*
X67913Y151839D01*
X68634Y152559D01*
X68898Y153543D01*
X62992Y148622D02*
X62728Y149606D01*
X62008Y150327D01*
X61024Y150591D01*
X60039Y150327D01*
X59319Y149606D01*
X59055Y148622D01*
X59319Y147638D01*
X60039Y146917D01*
X61024Y146653D01*
X62008Y146917D01*
X62728Y147638D01*
X62992Y148622D01*
X120079Y210630D02*
X119815Y211614D01*
X119095Y212335D01*
X118110Y212598D01*
X117126Y212335D01*
X116405Y211614D01*
X116142Y210630D01*
X116405Y209646D01*
X117126Y208925D01*
X118110Y208661D01*
X119095Y208925D01*
X119815Y209646D01*
X120079Y210630D01*
X154528D02*
X154264Y211614D01*
X153543Y212335D01*
X152559Y212598D01*
X151575Y212335D01*
X150854Y211614D01*
X150591Y210630D01*
X150854Y209646D01*
X151575Y208925D01*
X152559Y208661D01*
X153543Y208925D01*
X154264Y209646D01*
X154528Y210630D01*
X112205D02*
X111941Y211614D01*
X111221Y212335D01*
X110236Y212598D01*
X109252Y212335D01*
X108531Y211614D01*
X108268Y210630D01*
X108531Y209646D01*
X109252Y208925D01*
X110236Y208661D01*
X111221Y208925D01*
X111941Y209646D01*
X112205Y210630D01*
X173228Y30432D02*
X172965Y31417D01*
X172244Y32137D01*
X171260Y32401D01*
X170276Y32137D01*
X169555Y31417D01*
X169291Y30432D01*
X169555Y29448D01*
X170276Y28727D01*
X171260Y28464D01*
X172244Y28727D01*
X172965Y29448D01*
X173228Y30432D01*
D15*
X39764Y113779D02*
X42913D01*
X111417Y261024D02*
Y264173D01*
X111024Y24213D02*
Y27362D01*
X63254Y182640D02*
Y183840D01*
X62654Y184439D01*
X60255D01*
X59655Y183840D01*
Y182640D01*
X60255Y182040D01*
X62654D01*
X63254Y182640D01*
X59655Y180841D02*
X63254D01*
X59655Y178441D01*
X63254D01*
M02*
