G04*
G04 #@! TF.GenerationSoftware,Altium Limited,Altium Designer,21.9.2 (33)*
G04*
G04 Layer_Color=16711935*
%FSLAX25Y25*%
%MOIN*%
G70*
G04*
G04 #@! TF.SameCoordinates,35660DA9-C4E3-4063-8D90-980638CF2194*
G04*
G04*
G04 #@! TF.FilePolarity,Negative*
G04*
G01*
G75*
G04:AMPARAMS|DCode=47|XSize=62.99mil|YSize=62.99mil|CornerRadius=5.87mil|HoleSize=0mil|Usage=FLASHONLY|Rotation=270.000|XOffset=0mil|YOffset=0mil|HoleType=Round|Shape=RoundedRectangle|*
%AMROUNDEDRECTD47*
21,1,0.06299,0.05126,0,0,270.0*
21,1,0.05126,0.06299,0,0,270.0*
1,1,0.01173,-0.02563,-0.02563*
1,1,0.01173,-0.02563,0.02563*
1,1,0.01173,0.02563,0.02563*
1,1,0.01173,0.02563,-0.02563*
%
%ADD47ROUNDEDRECTD47*%
%ADD48C,0.06299*%
%ADD49O,0.08661X0.07087*%
%ADD50C,0.06787*%
%ADD51C,0.03543*%
%ADD52O,0.07480X0.04724*%
%ADD53C,0.04265*%
%ADD54C,0.07874*%
%ADD55O,0.10630X0.12598*%
%ADD56C,0.07874*%
%ADD57C,0.06284*%
%ADD58C,0.05890*%
%ADD59C,0.10630*%
%ADD60C,0.06693*%
%ADD118R,0.05118X0.06299*%
D47*
X161575Y92520D02*
D03*
D48*
X141575D02*
D03*
X151575D02*
D03*
D49*
X45276Y197244D02*
D03*
Y164961D02*
D03*
D50*
Y173228D02*
D03*
Y181102D02*
D03*
Y188976D02*
D03*
D51*
X47933Y147638D02*
D03*
Y131890D02*
D03*
D52*
X53149Y125689D02*
D03*
Y153839D02*
D03*
X39567D02*
D03*
Y125689D02*
D03*
D53*
X131732Y268685D02*
D03*
X136732D02*
D03*
X141732D02*
D03*
X146732D02*
D03*
X151732D02*
D03*
Y20685D02*
D03*
X146732D02*
D03*
X141732D02*
D03*
X136732D02*
D03*
X131732D02*
D03*
D54*
X191496Y69764D02*
D03*
Y59764D02*
D03*
X201496D02*
D03*
Y69764D02*
D03*
X211496D02*
D03*
Y59764D02*
D03*
X221496Y69764D02*
D03*
Y59764D02*
D03*
X181496Y69764D02*
D03*
Y59764D02*
D03*
X211496Y219764D02*
D03*
Y229764D02*
D03*
X201496D02*
D03*
Y219764D02*
D03*
X191496D02*
D03*
Y229764D02*
D03*
X181496Y219764D02*
D03*
Y229764D02*
D03*
X221496Y219764D02*
D03*
Y229764D02*
D03*
X191496Y49764D02*
D03*
Y39764D02*
D03*
X201496D02*
D03*
Y49764D02*
D03*
X211496D02*
D03*
Y39764D02*
D03*
X221496Y49764D02*
D03*
Y39764D02*
D03*
X181496Y49764D02*
D03*
Y39764D02*
D03*
X211496Y239764D02*
D03*
Y249764D02*
D03*
X201496D02*
D03*
Y239764D02*
D03*
X191496D02*
D03*
Y249764D02*
D03*
X181496Y239764D02*
D03*
Y249764D02*
D03*
X221496Y239764D02*
D03*
Y249764D02*
D03*
D55*
X124409Y43024D02*
D03*
X159055Y42965D02*
D03*
X159055Y246346D02*
D03*
X124409Y246406D02*
D03*
D56*
X131890Y70524D02*
D03*
X141732D02*
D03*
X151575D02*
D03*
X151575Y218847D02*
D03*
X141732D02*
D03*
X131890D02*
D03*
D57*
X42520Y261811D02*
D03*
X42520Y27559D02*
D03*
X223622Y27559D02*
D03*
Y261811D02*
D03*
D58*
X40157Y96850D02*
D03*
D59*
X218504Y164685D02*
D03*
Y144685D02*
D03*
Y124685D02*
D03*
Y184685D02*
D03*
Y104685D02*
D03*
D60*
X76772Y29134D02*
D03*
D118*
X100295Y145669D02*
D03*
X107185D02*
D03*
M02*
