G04*
G04 #@! TF.GenerationSoftware,Altium Limited,Altium Designer,21.9.2 (33)*
G04*
G04 Layer_Physical_Order=2*
G04 Layer_Color=16711680*
%FSLAX25Y25*%
%MOIN*%
G70*
G04*
G04 #@! TF.SameCoordinates,35660DA9-C4E3-4063-8D90-980638CF2194*
G04*
G04*
G04 #@! TF.FilePolarity,Positive*
G04*
G01*
G75*
%ADD92C,0.05906*%
%ADD93C,0.01575*%
%ADD96C,0.01968*%
%ADD98C,0.03150*%
G04:AMPARAMS|DCode=102|XSize=55.12mil|YSize=55.12mil|CornerRadius=1.93mil|HoleSize=0mil|Usage=FLASHONLY|Rotation=270.000|XOffset=0mil|YOffset=0mil|HoleType=Round|Shape=RoundedRectangle|*
%AMROUNDEDRECTD102*
21,1,0.05512,0.05126,0,0,270.0*
21,1,0.05126,0.05512,0,0,270.0*
1,1,0.00386,-0.02563,-0.02563*
1,1,0.00386,-0.02563,0.02563*
1,1,0.00386,0.02563,0.02563*
1,1,0.00386,0.02563,-0.02563*
%
%ADD102ROUNDEDRECTD102*%
%ADD103C,0.05512*%
%ADD104O,0.07874X0.06299*%
%ADD105C,0.06000*%
%ADD106C,0.02756*%
%ADD107O,0.06693X0.03937*%
%ADD108C,0.03100*%
%ADD109C,0.07087*%
%ADD110O,0.09843X0.11811*%
%ADD111C,0.07087*%
%ADD112C,0.05118*%
%ADD113C,0.04724*%
%ADD114C,0.09843*%
%ADD115C,0.05906*%
%ADD116C,0.03150*%
%ADD117R,0.04331X0.05512*%
G36*
X225450Y267839D02*
X226591Y267366D01*
X227618Y266680D01*
X228491Y265807D01*
X229177Y264780D01*
X229650Y263639D01*
X229890Y262428D01*
Y261811D01*
X229890Y27559D01*
X229890Y27559D01*
X229890Y27559D01*
X229890Y26942D01*
X229650Y25731D01*
X229177Y24590D01*
X228491Y23563D01*
X227618Y22690D01*
X226591Y22004D01*
X225450Y21531D01*
X224239Y21291D01*
X223622Y21291D01*
X223622Y21291D01*
X223622Y21291D01*
X155593D01*
X154805Y21291D01*
Y21792D01*
X154704Y22036D01*
X154422Y22718D01*
X153713Y23426D01*
X152787Y23810D01*
X130678D01*
X129752Y23426D01*
X129043Y22718D01*
X128761Y22036D01*
X128659Y21792D01*
X127872Y21291D01*
X85213D01*
X84974Y22078D01*
X85443Y22391D01*
X88596Y25544D01*
X101680D01*
X102601Y25728D01*
X103383Y26250D01*
X113445Y36312D01*
X113604D01*
X114405Y36527D01*
X115123Y36942D01*
X115709Y37528D01*
X116124Y38246D01*
X116339Y39047D01*
Y39877D01*
X116124Y40678D01*
X115709Y41396D01*
X115123Y41982D01*
X114405Y42397D01*
X113604Y42612D01*
X112774D01*
X111973Y42397D01*
X111255Y41982D01*
X110669Y41396D01*
X110254Y40678D01*
X110039Y39877D01*
Y39718D01*
X100682Y30361D01*
X90806D01*
X90327Y30986D01*
X90352Y31081D01*
Y31911D01*
X90138Y32712D01*
X89723Y33430D01*
X89597Y33556D01*
Y47063D01*
X89414Y47985D01*
X88892Y48766D01*
X88204Y49454D01*
Y49612D01*
X87990Y50413D01*
X87575Y51131D01*
X86989Y51718D01*
X86270Y52132D01*
X85469Y52347D01*
X84640D01*
X83839Y52132D01*
X83121Y51718D01*
X82534Y51131D01*
X82120Y50413D01*
X81905Y49612D01*
Y48783D01*
X82120Y47982D01*
X82534Y47264D01*
X83121Y46677D01*
X83839Y46262D01*
X84640Y46048D01*
X84781D01*
Y33528D01*
X84683Y33430D01*
X84268Y32712D01*
X84053Y31911D01*
Y31081D01*
X84268Y30280D01*
X84683Y29562D01*
X84794Y29450D01*
Y28555D01*
X82743Y26503D01*
X80935D01*
X80553Y27165D01*
X76772D01*
X72990D01*
X72608Y26503D01*
X54856D01*
X51703Y29656D01*
X41679Y39680D01*
Y73706D01*
X52884Y84911D01*
X53406Y85693D01*
X53590Y86614D01*
Y95828D01*
X53701Y95940D01*
X54116Y96658D01*
X54331Y97460D01*
Y98289D01*
X54116Y99090D01*
X53701Y99808D01*
X53115Y100394D01*
X52397Y100809D01*
X51596Y101024D01*
X50766D01*
X49965Y100809D01*
X49247Y100394D01*
X48661Y99808D01*
X48246Y99090D01*
X48031Y98289D01*
Y97460D01*
X48246Y96658D01*
X48661Y95940D01*
X48773Y95828D01*
Y87612D01*
X37567Y76406D01*
X37045Y75625D01*
X37039Y75592D01*
X36251Y75670D01*
X36251Y94167D01*
X36894Y94393D01*
X37039Y94401D01*
X37740Y93700D01*
X38638Y93182D01*
X39639Y92913D01*
X40676D01*
X41677Y93182D01*
X42575Y93700D01*
X43308Y94433D01*
X43826Y95331D01*
X44094Y96332D01*
Y97369D01*
X43826Y98370D01*
X43308Y99268D01*
X42575Y100001D01*
X41677Y100519D01*
X40676Y100787D01*
X39639D01*
X38638Y100519D01*
X37740Y100001D01*
X37039Y99299D01*
X36894Y99308D01*
X36251Y99533D01*
X36251Y121804D01*
X37039Y122330D01*
X37264Y122237D01*
X38189Y122115D01*
X40945D01*
X41870Y122237D01*
X42732Y122594D01*
X43472Y123162D01*
X44040Y123902D01*
X44397Y124764D01*
X44519Y125689D01*
X44397Y126614D01*
X44040Y127476D01*
X43472Y128216D01*
X42732Y128784D01*
X41870Y129141D01*
X40945Y129263D01*
X38189D01*
X37264Y129141D01*
X37039Y129048D01*
X36251Y129574D01*
X36251Y149954D01*
X37039Y150480D01*
X37264Y150387D01*
X38189Y150265D01*
X40945D01*
X41870Y150387D01*
X42732Y150743D01*
X43472Y151312D01*
X44040Y152052D01*
X44397Y152914D01*
X44519Y153839D01*
X44397Y154764D01*
X44040Y155625D01*
X43472Y156366D01*
X42732Y156934D01*
X41870Y157291D01*
X40945Y157412D01*
X38189D01*
X37264Y157291D01*
X37039Y157197D01*
X36251Y157723D01*
X36251Y213553D01*
X37039Y213699D01*
X37454Y213076D01*
X49069Y201462D01*
X49384Y201147D01*
X48863Y200554D01*
X48247Y201027D01*
X47244Y201442D01*
Y199213D01*
X49935D01*
X49846Y199428D01*
X49401Y200008D01*
X49152Y200333D01*
X49637Y200946D01*
X50259Y200531D01*
X51181Y200347D01*
X53072D01*
X53184Y200236D01*
X53902Y199821D01*
X54703Y199606D01*
X55533D01*
X56334Y199821D01*
X57052Y200236D01*
X57638Y200822D01*
X58053Y201540D01*
X58268Y202341D01*
Y203171D01*
X58053Y203972D01*
X57638Y204690D01*
X57052Y205276D01*
X56334Y205691D01*
X55533Y205906D01*
X54703D01*
X53902Y205691D01*
X53184Y205276D01*
X53072Y205164D01*
X52179D01*
X41566Y215777D01*
Y250365D01*
X54541Y263340D01*
X82861D01*
X88181Y258019D01*
X88189Y258010D01*
Y257853D01*
X88404Y257052D01*
X88818Y256334D01*
X89405Y255747D01*
X90123Y255333D01*
X90924Y255118D01*
X91081D01*
X91090Y255110D01*
X95410Y250790D01*
Y236788D01*
X95594Y235866D01*
X96116Y235085D01*
X98085Y233115D01*
X98150Y233072D01*
X98261Y232658D01*
X98676Y231940D01*
X99262Y231353D01*
X99981Y230939D01*
X100782Y230724D01*
X101611D01*
X102412Y230939D01*
X103130Y231353D01*
X103717Y231940D01*
X104131Y232658D01*
X104346Y233459D01*
Y234288D01*
X104131Y235089D01*
X103717Y235807D01*
X103130Y236394D01*
X102412Y236808D01*
X101611Y237023D01*
X100990D01*
X100227Y237786D01*
Y251787D01*
X100044Y252709D01*
X99522Y253490D01*
X94488Y258524D01*
Y258682D01*
X94274Y259483D01*
X93859Y260202D01*
X93273Y260788D01*
X92554Y261203D01*
X91753Y261417D01*
X91595D01*
X85720Y267292D01*
X85899Y267917D01*
X86016Y268079D01*
X127872Y268079D01*
X128659Y268079D01*
Y267578D01*
X128761Y267334D01*
X129043Y266652D01*
X129752Y265944D01*
X130678Y265560D01*
X152787D01*
X153713Y265944D01*
X154422Y266652D01*
X154805Y267578D01*
Y268079D01*
X223622Y268079D01*
X224239Y268079D01*
X225450Y267839D01*
D02*
G37*
G36*
X90503Y260234D02*
X90618Y260142D01*
X90729Y260062D01*
X90837Y259994D01*
X90942Y259939D01*
X91042Y259896D01*
X91139Y259866D01*
X91233Y259848D01*
X91323Y259842D01*
X91339Y258268D01*
X92913Y258252D01*
X92919Y258162D01*
X92936Y258068D01*
X92967Y257971D01*
X93010Y257871D01*
X93065Y257767D01*
X93132Y257659D01*
X93213Y257547D01*
X93305Y257433D01*
X93528Y257192D01*
X92414Y256078D01*
X92292Y256196D01*
X92059Y256394D01*
X91948Y256474D01*
X91840Y256542D01*
X91736Y256597D01*
X91635Y256640D01*
X91538Y256670D01*
X91444Y256688D01*
X91354Y256693D01*
X91339Y258268D01*
X89764Y258283D01*
X89758Y258373D01*
X89741Y258467D01*
X89710Y258564D01*
X89668Y258665D01*
X89612Y258769D01*
X89545Y258877D01*
X89465Y258988D01*
X89267Y259221D01*
X89149Y259343D01*
X90263Y260457D01*
X90503Y260234D01*
D02*
G37*
%LPC*%
G36*
X224166Y265945D02*
X223078D01*
X222026Y265663D01*
X221084Y265119D01*
X220314Y264349D01*
X219770Y263407D01*
X219488Y262355D01*
Y261267D01*
X219770Y260215D01*
X220314Y259273D01*
X221084Y258503D01*
X222026Y257959D01*
X223078Y257677D01*
X224166D01*
X225218Y257959D01*
X226160Y258503D01*
X226930Y259273D01*
X227474Y260215D01*
X227756Y261267D01*
Y262355D01*
X227474Y263407D01*
X226930Y264349D01*
X226160Y265119D01*
X225218Y265663D01*
X224166Y265945D01*
D02*
G37*
G36*
X222170Y254882D02*
X220822D01*
X219520Y254533D01*
X219169Y254330D01*
X213823D01*
X213472Y254533D01*
X212170Y254882D01*
X210822D01*
X209521Y254533D01*
X209170Y254330D01*
X203823D01*
X203472Y254533D01*
X202170Y254882D01*
X200822D01*
X199521Y254533D01*
X199170Y254330D01*
X193823D01*
X193472Y254533D01*
X192170Y254882D01*
X190822D01*
X189521Y254533D01*
X189170Y254330D01*
X183823D01*
X183472Y254533D01*
X182170Y254882D01*
X180822D01*
X179520Y254533D01*
X178354Y253859D01*
X177401Y252906D01*
X176727Y251739D01*
X176378Y250437D01*
Y249090D01*
X176727Y247788D01*
X177401Y246621D01*
X178354Y245668D01*
X179520Y244994D01*
X179621Y244968D01*
X179666Y244268D01*
X179640Y244147D01*
X178595Y243544D01*
X177716Y242665D01*
X177177Y241732D01*
X181496D01*
Y237795D01*
X177177D01*
X177716Y236863D01*
X178595Y235983D01*
X179640Y235380D01*
X179666Y235260D01*
X179621Y234560D01*
X179520Y234533D01*
X178354Y233859D01*
X177401Y232906D01*
X176727Y231739D01*
X176378Y230437D01*
Y229090D01*
X176727Y227788D01*
X177401Y226621D01*
X178354Y225668D01*
X179520Y224994D01*
X179621Y224968D01*
X179666Y224268D01*
X179640Y224147D01*
X178595Y223544D01*
X177716Y222665D01*
X177177Y221732D01*
X181496D01*
Y219764D01*
X183465D01*
Y215445D01*
X184397Y215983D01*
X185276Y216863D01*
X185898Y217940D01*
X186088Y218649D01*
X186904D01*
X187094Y217940D01*
X187716Y216863D01*
X188595Y215983D01*
X189527Y215445D01*
Y219764D01*
X193465D01*
Y215445D01*
X194397Y215983D01*
X195276Y216863D01*
X195898Y217940D01*
X196088Y218649D01*
X196904D01*
X197094Y217940D01*
X197716Y216863D01*
X198595Y215983D01*
X199528Y215445D01*
Y219764D01*
X203465D01*
Y215445D01*
X204397Y215983D01*
X205276Y216863D01*
X205898Y217940D01*
X206088Y218649D01*
X206904D01*
X207094Y217940D01*
X207716Y216863D01*
X208595Y215983D01*
X209527Y215445D01*
Y219764D01*
X213464D01*
Y215445D01*
X214397Y215983D01*
X215277Y216863D01*
X215898Y217940D01*
X216089Y218649D01*
X216904D01*
X217094Y217940D01*
X217716Y216863D01*
X218595Y215983D01*
X219528Y215445D01*
Y219764D01*
X221496D01*
Y221732D01*
X225815D01*
X225276Y222665D01*
X224397Y223544D01*
X223352Y224147D01*
X223326Y224268D01*
X223371Y224968D01*
X223471Y224994D01*
X224639Y225668D01*
X225591Y226621D01*
X226265Y227788D01*
X226614Y229090D01*
Y230437D01*
X226265Y231739D01*
X225591Y232906D01*
X224639Y233859D01*
X223471Y234533D01*
X223371Y234560D01*
X223326Y235260D01*
X223352Y235380D01*
X224397Y235983D01*
X225276Y236863D01*
X225815Y237795D01*
X221496D01*
Y241732D01*
X225815D01*
X225276Y242665D01*
X224397Y243544D01*
X223352Y244147D01*
X223326Y244268D01*
X223371Y244968D01*
X223471Y244994D01*
X224639Y245668D01*
X225591Y246621D01*
X226265Y247788D01*
X226614Y249090D01*
Y250437D01*
X226265Y251739D01*
X225591Y252906D01*
X224639Y253859D01*
X223471Y254533D01*
X222170Y254882D01*
D02*
G37*
G36*
X126378Y253170D02*
Y248374D01*
X130444D01*
X130423Y248586D01*
X130075Y249736D01*
X129508Y250796D01*
X128745Y251726D01*
X127816Y252488D01*
X126756Y253055D01*
X126378Y253170D01*
D02*
G37*
G36*
X122441D02*
X122063Y253055D01*
X121003Y252488D01*
X120073Y251726D01*
X119311Y250796D01*
X118744Y249736D01*
X118395Y248586D01*
X118375Y248374D01*
X122441D01*
Y253170D01*
D02*
G37*
G36*
X161023Y253111D02*
Y248315D01*
X165090D01*
X165069Y248527D01*
X164720Y249677D01*
X164154Y250737D01*
X163391Y251666D01*
X162462Y252429D01*
X161402Y252996D01*
X161023Y253111D01*
D02*
G37*
G36*
X157087D02*
X156709Y252996D01*
X155648Y252429D01*
X154719Y251666D01*
X153957Y250737D01*
X153390Y249677D01*
X153041Y248527D01*
X153020Y248315D01*
X157087D01*
Y253111D01*
D02*
G37*
G36*
X130444Y244437D02*
X126378D01*
Y239641D01*
X126756Y239756D01*
X127816Y240323D01*
X128745Y241085D01*
X129508Y242015D01*
X130075Y243075D01*
X130423Y244225D01*
X130444Y244437D01*
D02*
G37*
G36*
X122441D02*
X118375D01*
X118395Y244225D01*
X118744Y243075D01*
X119311Y242015D01*
X120073Y241085D01*
X121003Y240323D01*
X122063Y239756D01*
X122441Y239641D01*
Y244437D01*
D02*
G37*
G36*
X165090Y244378D02*
X161023D01*
Y239582D01*
X161402Y239697D01*
X162462Y240264D01*
X163391Y241026D01*
X164154Y241955D01*
X164720Y243016D01*
X165069Y244166D01*
X165090Y244378D01*
D02*
G37*
G36*
X157087D02*
X153020D01*
X153041Y244166D01*
X153390Y243016D01*
X153957Y241955D01*
X154719Y241026D01*
X155648Y240264D01*
X156709Y239697D01*
X157087Y239582D01*
Y244378D01*
D02*
G37*
G36*
X152249Y223965D02*
X150901D01*
X149599Y223616D01*
X148432Y222942D01*
X147479Y221989D01*
X146861Y220918D01*
X146709Y220866D01*
X146534Y220845D01*
X146008Y220889D01*
X145513Y221747D01*
X144633Y222627D01*
X143701Y223165D01*
Y218847D01*
Y214528D01*
X144633Y215066D01*
X145513Y215946D01*
X146008Y216804D01*
X146534Y216848D01*
X146709Y216827D01*
X146861Y216775D01*
X147479Y215704D01*
X148432Y214751D01*
X149599Y214077D01*
X150901Y213728D01*
X152249D01*
X153550Y214077D01*
X154717Y214751D01*
X155670Y215704D01*
X156344Y216871D01*
X156693Y218173D01*
Y219520D01*
X156344Y220822D01*
X155670Y221989D01*
X154717Y222942D01*
X153550Y223616D01*
X152249Y223965D01*
D02*
G37*
G36*
X129921Y223165D02*
X128989Y222627D01*
X128109Y221747D01*
X127571Y220815D01*
X129921D01*
Y223165D01*
D02*
G37*
G36*
X139764D02*
X138831Y222627D01*
X137952Y221747D01*
X137330Y220670D01*
X137219Y220255D01*
X136403D01*
X136292Y220670D01*
X135670Y221747D01*
X134791Y222627D01*
X133858Y223165D01*
Y218847D01*
Y214528D01*
X134791Y215066D01*
X135670Y215946D01*
X136292Y217023D01*
X136403Y217438D01*
X137219D01*
X137330Y217023D01*
X137952Y215946D01*
X138831Y215066D01*
X139764Y214528D01*
Y218847D01*
Y223165D01*
D02*
G37*
G36*
X225815Y217795D02*
X223464D01*
Y215445D01*
X224397Y215983D01*
X225276Y216863D01*
X225815Y217795D01*
D02*
G37*
G36*
X179527D02*
X177177D01*
X177716Y216863D01*
X178595Y215983D01*
X179527Y215445D01*
Y217795D01*
D02*
G37*
G36*
X129921Y216878D02*
X127571D01*
X128109Y215946D01*
X128989Y215066D01*
X129921Y214528D01*
Y216878D01*
D02*
G37*
G36*
X162029Y217520D02*
X161199D01*
X160398Y217305D01*
X159680Y216890D01*
X159094Y216304D01*
X158679Y215586D01*
X158465Y214785D01*
Y213955D01*
X158679Y213154D01*
X159094Y212436D01*
X159680Y211850D01*
X160398Y211435D01*
X161199Y211221D01*
X161358D01*
X168769Y203809D01*
X169551Y203287D01*
X170472Y203103D01*
X194805D01*
X194916Y202992D01*
X195635Y202577D01*
X196436Y202362D01*
X197265D01*
X198066Y202577D01*
X198784Y202992D01*
X199371Y203578D01*
X199785Y204296D01*
X200000Y205097D01*
Y205926D01*
X199785Y206728D01*
X199371Y207446D01*
X198784Y208032D01*
X198066Y208447D01*
X197265Y208661D01*
X196436D01*
X195635Y208447D01*
X194916Y208032D01*
X194805Y207920D01*
X171470D01*
X164764Y214627D01*
Y214785D01*
X164549Y215586D01*
X164135Y216304D01*
X163548Y216890D01*
X162830Y217305D01*
X162029Y217520D01*
D02*
G37*
G36*
X43307Y201442D02*
X42304Y201027D01*
X41399Y200333D01*
X40705Y199428D01*
X40616Y199213D01*
X43307D01*
Y201442D01*
D02*
G37*
G36*
X63301Y179604D02*
X62472D01*
X61671Y179389D01*
X61058Y179035D01*
X57219D01*
X56607Y179389D01*
X55806Y179604D01*
X54976D01*
X54175Y179389D01*
X53457Y178974D01*
X52871Y178388D01*
X52456Y177670D01*
X52241Y176869D01*
Y176039D01*
X52456Y175238D01*
X52871Y174520D01*
X53457Y173934D01*
X54175Y173519D01*
X54976Y173304D01*
X55806D01*
X56607Y173519D01*
X57219Y173873D01*
X61058D01*
X61671Y173519D01*
X62472Y173304D01*
X63301D01*
X64102Y173519D01*
X64820Y173934D01*
X65407Y174520D01*
X65821Y175238D01*
X66036Y176039D01*
Y176869D01*
X65821Y177670D01*
X65407Y178388D01*
X64820Y178974D01*
X64102Y179389D01*
X63301Y179604D01*
D02*
G37*
G36*
X219144Y191181D02*
X217864D01*
X216609Y190931D01*
X215427Y190442D01*
X214363Y189731D01*
X213458Y188826D01*
X212747Y187762D01*
X212258Y186580D01*
X212008Y185325D01*
Y184045D01*
X212258Y182790D01*
X212747Y181608D01*
X213458Y180544D01*
X214363Y179639D01*
X215427Y178928D01*
X216609Y178439D01*
X217864Y178189D01*
X219144D01*
X220399Y178439D01*
X221581Y178928D01*
X222645Y179639D01*
X223550Y180544D01*
X224261Y181608D01*
X224750Y182790D01*
X225000Y184045D01*
Y185325D01*
X224750Y186580D01*
X224261Y187762D01*
X223550Y188826D01*
X222645Y189731D01*
X221581Y190442D01*
X220399Y190931D01*
X219144Y191181D01*
D02*
G37*
G36*
X49935Y195276D02*
X45276D01*
X40616D01*
X40705Y195060D01*
X41399Y194155D01*
X42304Y193461D01*
X42416Y193415D01*
X42425Y193275D01*
X42399Y192570D01*
X41615Y191785D01*
X41012Y190742D01*
X40701Y189579D01*
Y188374D01*
X41012Y187211D01*
X41615Y186167D01*
X42240Y185542D01*
X42386Y185039D01*
X42240Y184537D01*
X41615Y183911D01*
X41012Y182868D01*
X40701Y181705D01*
Y180500D01*
X41012Y179337D01*
X41615Y178293D01*
X42240Y177668D01*
X42386Y177165D01*
X42240Y176663D01*
X41615Y176037D01*
X41012Y174994D01*
X40701Y173831D01*
Y172626D01*
X41012Y171463D01*
X41615Y170419D01*
X42399Y169635D01*
X42425Y168931D01*
X42416Y168790D01*
X42304Y168743D01*
X41399Y168049D01*
X40705Y167145D01*
X40616Y166929D01*
X45276D01*
X49935D01*
X49846Y167145D01*
X49152Y168049D01*
X48247Y168743D01*
X48136Y168790D01*
X48126Y168931D01*
X48152Y169635D01*
X48936Y170419D01*
X49539Y171463D01*
X49850Y172626D01*
Y173831D01*
X49539Y174994D01*
X48936Y176037D01*
X48311Y176663D01*
X48165Y177165D01*
X48311Y177668D01*
X48936Y178293D01*
X49539Y179337D01*
X49850Y180500D01*
Y181705D01*
X49539Y182868D01*
X48936Y183911D01*
X48311Y184537D01*
X48165Y185039D01*
X48311Y185542D01*
X48936Y186167D01*
X49539Y187211D01*
X49850Y188374D01*
Y189579D01*
X49539Y190742D01*
X48936Y191785D01*
X48152Y192570D01*
X48126Y193275D01*
X48136Y193415D01*
X48247Y193461D01*
X49152Y194155D01*
X49846Y195060D01*
X49935Y195276D01*
D02*
G37*
G36*
X220472Y170475D02*
Y166654D01*
X224294D01*
X223912Y167576D01*
X223244Y168575D01*
X222394Y169425D01*
X221394Y170093D01*
X220472Y170475D01*
D02*
G37*
G36*
X216535D02*
X215613Y170093D01*
X214614Y169425D01*
X213764Y168575D01*
X213096Y167576D01*
X212714Y166654D01*
X216535D01*
Y170475D01*
D02*
G37*
G36*
X49935Y162992D02*
X47244D01*
Y160762D01*
X48247Y161178D01*
X49152Y161872D01*
X49846Y162777D01*
X49935Y162992D01*
D02*
G37*
G36*
X43307D02*
X40616D01*
X40705Y162777D01*
X41399Y161872D01*
X42304Y161178D01*
X43307Y160762D01*
Y162992D01*
D02*
G37*
G36*
X224294Y162716D02*
X220472D01*
Y158895D01*
X221394Y159277D01*
X222394Y159945D01*
X223244Y160795D01*
X223912Y161794D01*
X224294Y162716D01*
D02*
G37*
G36*
X216535D02*
X212714D01*
X213096Y161794D01*
X213764Y160795D01*
X214614Y159945D01*
X215613Y159277D01*
X216535Y158895D01*
Y162716D01*
D02*
G37*
G36*
X54527Y157412D02*
X51772D01*
X50847Y157291D01*
X49985Y156934D01*
X49244Y156366D01*
X48676Y155625D01*
X48320Y154764D01*
X48198Y153839D01*
X48320Y152914D01*
X48676Y152052D01*
X49244Y151312D01*
X49834Y150859D01*
X49395Y150203D01*
X49073Y150389D01*
X48322Y150591D01*
X47545D01*
X46793Y150389D01*
X46120Y150001D01*
X45570Y149451D01*
X45182Y148777D01*
X44980Y148027D01*
Y147249D01*
X45182Y146498D01*
X45570Y145825D01*
X46120Y145275D01*
X46793Y144886D01*
X47545Y144685D01*
X48322D01*
X49073Y144886D01*
X49746Y145275D01*
X50296Y145825D01*
X50685Y146498D01*
X50886Y147249D01*
Y148027D01*
X50685Y148777D01*
X50296Y149451D01*
X49746Y150001D01*
X50144Y150678D01*
X50847Y150387D01*
X51772Y150265D01*
X54527D01*
X55452Y150387D01*
X56314Y150743D01*
X57055Y151312D01*
X57622Y152052D01*
X57980Y152914D01*
X58101Y153839D01*
X57980Y154764D01*
X57622Y155625D01*
X57055Y156366D01*
X56314Y156934D01*
X55452Y157291D01*
X54527Y157412D01*
D02*
G37*
G36*
X109338Y150019D02*
X109244Y150000D01*
X109166D01*
X109113Y150003D01*
X109105Y150000D01*
X98376D01*
X98367Y150003D01*
X98314Y150000D01*
X98237D01*
X98142Y150019D01*
X98047Y150000D01*
X96555D01*
Y148978D01*
X96366Y148940D01*
X95501Y148860D01*
X94961Y148849D01*
X94946Y148846D01*
X94488D01*
X94282Y148819D01*
X94073D01*
X93872Y148765D01*
X93666Y148738D01*
X93474Y148658D01*
X93273Y148604D01*
X93092Y148500D01*
X92900Y148421D01*
X92735Y148294D01*
X92554Y148190D01*
X92407Y148042D01*
X92242Y147916D01*
X92115Y147750D01*
X91968Y147603D01*
X91864Y147423D01*
X91737Y147258D01*
X91657Y147065D01*
X91553Y146885D01*
X91499Y146684D01*
X91420Y146492D01*
X91392Y146285D01*
X91339Y146084D01*
Y145876D01*
X91311Y145669D01*
X91339Y145463D01*
Y145255D01*
X91392Y145054D01*
X91420Y144847D01*
X91499Y144655D01*
X91553Y144454D01*
X91657Y144273D01*
X91737Y144081D01*
X91864Y143916D01*
X91968Y143735D01*
X92115Y143588D01*
X92242Y143423D01*
X92407Y143296D01*
X92554Y143149D01*
X92735Y143045D01*
X92900Y142918D01*
X93092Y142838D01*
X93273Y142734D01*
X93474Y142680D01*
X93666Y142601D01*
X93872Y142574D01*
X94073Y142520D01*
X94282D01*
X94488Y142492D01*
X94946D01*
X94961Y142489D01*
X95522Y142478D01*
X95975Y142448D01*
X96342Y142403D01*
X96555Y142360D01*
Y141339D01*
X98047D01*
X98142Y141320D01*
X98237Y141339D01*
X98314D01*
X98367Y141336D01*
X98376Y141339D01*
X109105D01*
X109113Y141336D01*
X109166Y141339D01*
X109244D01*
X109338Y141320D01*
X109433Y141339D01*
X110925D01*
Y142360D01*
X111114Y142398D01*
X111980Y142479D01*
X112519Y142489D01*
X112535Y142492D01*
X112992D01*
X113199Y142520D01*
X113407D01*
X113608Y142574D01*
X113814Y142601D01*
X114007Y142680D01*
X114208Y142734D01*
X114388Y142838D01*
X114581Y142918D01*
X114746Y143045D01*
X114926Y143149D01*
X115073Y143296D01*
X115238Y143423D01*
X115365Y143588D01*
X115512Y143735D01*
X115617Y143916D01*
X115743Y144081D01*
X115823Y144273D01*
X115927Y144454D01*
X115981Y144655D01*
X116061Y144847D01*
X116088Y145054D01*
X116142Y145255D01*
Y145463D01*
X116169Y145669D01*
X116142Y145876D01*
Y146084D01*
X116088Y146285D01*
X116061Y146492D01*
X115981Y146684D01*
X115927Y146885D01*
X115823Y147065D01*
X115743Y147258D01*
X115617Y147423D01*
X115512Y147603D01*
X115365Y147750D01*
X115238Y147916D01*
X115073Y148042D01*
X114926Y148190D01*
X114746Y148294D01*
X114581Y148421D01*
X114388Y148500D01*
X114208Y148604D01*
X114007Y148658D01*
X113814Y148738D01*
X113608Y148765D01*
X113407Y148819D01*
X113199D01*
X112992Y148846D01*
X112535D01*
X112519Y148849D01*
X111958Y148860D01*
X111505Y148890D01*
X111138Y148935D01*
X110925Y148978D01*
Y150000D01*
X109433D01*
X109338Y150019D01*
D02*
G37*
G36*
X219144Y151181D02*
X217864D01*
X216609Y150932D01*
X215427Y150442D01*
X214363Y149731D01*
X213458Y148826D01*
X212747Y147762D01*
X212258Y146580D01*
X212008Y145325D01*
Y144045D01*
X212258Y142790D01*
X212747Y141608D01*
X213458Y140544D01*
X214363Y139639D01*
X215427Y138928D01*
X216609Y138439D01*
X217864Y138189D01*
X219144D01*
X220399Y138439D01*
X221581Y138928D01*
X222645Y139639D01*
X223550Y140544D01*
X224261Y141608D01*
X224750Y142790D01*
X225000Y144045D01*
Y145325D01*
X224750Y146580D01*
X224261Y147762D01*
X223550Y148826D01*
X222645Y149731D01*
X221581Y150442D01*
X220399Y150932D01*
X219144Y151181D01*
D02*
G37*
G36*
X220472Y130475D02*
Y126654D01*
X224294D01*
X223912Y127576D01*
X223244Y128575D01*
X222394Y129425D01*
X221394Y130093D01*
X220472Y130475D01*
D02*
G37*
G36*
X216535D02*
X215613Y130093D01*
X214614Y129425D01*
X213764Y128575D01*
X213096Y127576D01*
X212714Y126654D01*
X216535D01*
Y130475D01*
D02*
G37*
G36*
X48322Y134843D02*
X47545D01*
X46793Y134641D01*
X46120Y134253D01*
X45570Y133703D01*
X45182Y133029D01*
X44980Y132279D01*
Y131501D01*
X45182Y130750D01*
X45570Y130077D01*
X46120Y129527D01*
X46793Y129138D01*
X47545Y128937D01*
X48322D01*
X49073Y129138D01*
X49395Y129324D01*
X49834Y128668D01*
X49244Y128216D01*
X48676Y127476D01*
X48320Y126614D01*
X48198Y125689D01*
X48320Y124764D01*
X48676Y123902D01*
X49244Y123162D01*
X49985Y122594D01*
X50847Y122237D01*
X51772Y122115D01*
X54527D01*
X55452Y122237D01*
X56314Y122594D01*
X57055Y123162D01*
X57622Y123902D01*
X57980Y124764D01*
X58101Y125689D01*
X57980Y126614D01*
X57622Y127476D01*
X57055Y128216D01*
X56314Y128784D01*
X55452Y129141D01*
X54527Y129263D01*
X51772D01*
X50847Y129141D01*
X50144Y128850D01*
X49746Y129527D01*
X50296Y130077D01*
X50685Y130750D01*
X50886Y131501D01*
Y132279D01*
X50685Y133029D01*
X50296Y133703D01*
X49746Y134253D01*
X49073Y134641D01*
X48322Y134843D01*
D02*
G37*
G36*
X224294Y122716D02*
X220472D01*
Y118895D01*
X221394Y119277D01*
X222394Y119945D01*
X223244Y120795D01*
X223912Y121794D01*
X224294Y122716D01*
D02*
G37*
G36*
X216535D02*
X212714D01*
X213096Y121794D01*
X213764Y120795D01*
X214614Y119945D01*
X215613Y119277D01*
X216535Y118895D01*
Y122716D01*
D02*
G37*
G36*
X219144Y111181D02*
X217864D01*
X216609Y110932D01*
X215427Y110442D01*
X214363Y109731D01*
X213458Y108826D01*
X212747Y107762D01*
X212258Y106580D01*
X212008Y105325D01*
Y104045D01*
X212258Y102790D01*
X212747Y101608D01*
X213458Y100544D01*
X214363Y99639D01*
X215427Y98928D01*
X216609Y98439D01*
X217864Y98189D01*
X219144D01*
X220399Y98439D01*
X221581Y98928D01*
X222645Y99639D01*
X223550Y100544D01*
X224261Y101608D01*
X224750Y102790D01*
X225000Y104045D01*
Y105325D01*
X224750Y106580D01*
X224261Y107762D01*
X223550Y108826D01*
X222645Y109731D01*
X221581Y110442D01*
X220399Y110932D01*
X219144Y111181D01*
D02*
G37*
G36*
X152145Y96850D02*
X151005D01*
X149903Y96555D01*
X148916Y95985D01*
X148109Y95179D01*
X147539Y94191D01*
X147244Y93090D01*
Y91949D01*
X147539Y90848D01*
X148109Y89861D01*
X148916Y89054D01*
X149903Y88484D01*
X151005Y88189D01*
X152145D01*
X153246Y88484D01*
X154234Y89054D01*
X155040Y89861D01*
X155610Y90848D01*
X155905Y91949D01*
Y93090D01*
X155610Y94191D01*
X155040Y95179D01*
X154234Y95985D01*
X153246Y96555D01*
X152145Y96850D01*
D02*
G37*
G36*
X142145D02*
X141005D01*
X139903Y96555D01*
X138916Y95985D01*
X138109Y95179D01*
X137539Y94191D01*
X137244Y93090D01*
Y91949D01*
X137539Y90848D01*
X138109Y89861D01*
X138916Y89054D01*
X139903Y88484D01*
X141005Y88189D01*
X142145D01*
X143246Y88484D01*
X144234Y89054D01*
X145040Y89861D01*
X145610Y90848D01*
X145905Y91949D01*
Y93090D01*
X145610Y94191D01*
X145040Y95179D01*
X144234Y95985D01*
X143246Y96555D01*
X142145Y96850D01*
D02*
G37*
G36*
X80139Y87323D02*
X79310D01*
X78509Y87108D01*
X77790Y86694D01*
X77204Y86107D01*
X76789Y85389D01*
X76575Y84588D01*
Y83759D01*
X76789Y82958D01*
X77204Y82239D01*
X77790Y81653D01*
X78509Y81238D01*
X79310Y81024D01*
X80139D01*
X80940Y81238D01*
X81658Y81653D01*
X81770Y81765D01*
X91246D01*
X92520Y80491D01*
Y79920D01*
X92734Y79119D01*
X93149Y78401D01*
X93735Y77814D01*
X94454Y77400D01*
X95255Y77185D01*
X96084D01*
X96885Y77400D01*
X97603Y77814D01*
X98190Y78401D01*
X98604Y79119D01*
X98819Y79920D01*
Y80749D01*
X98604Y81550D01*
X98190Y82269D01*
X97603Y82855D01*
X96885Y83270D01*
X96432Y83391D01*
X93947Y85876D01*
X93166Y86398D01*
X92244Y86582D01*
X81770D01*
X81658Y86694D01*
X80940Y87108D01*
X80139Y87323D01*
D02*
G37*
G36*
X175756Y111365D02*
X174927D01*
X174126Y111150D01*
X173407Y110736D01*
X172821Y110149D01*
X172406Y109431D01*
X172192Y108630D01*
Y108472D01*
X161442Y97722D01*
X160920Y96941D01*
X160909Y96885D01*
X159012D01*
X158322Y96748D01*
X157737Y96357D01*
X157347Y95772D01*
X157210Y95083D01*
Y89957D01*
X157347Y89267D01*
X157737Y88682D01*
X158322Y88292D01*
X159012Y88154D01*
X159166D01*
Y81521D01*
X153067Y75422D01*
X152249Y75642D01*
X150901D01*
X149599Y75293D01*
X148432Y74619D01*
X147479Y73666D01*
X146861Y72596D01*
X146709Y72544D01*
X146534Y72522D01*
X146008Y72566D01*
X145513Y73425D01*
X144633Y74304D01*
X143701Y74842D01*
Y70524D01*
Y66205D01*
X144633Y66743D01*
X145513Y67623D01*
X146008Y68481D01*
X146534Y68525D01*
X146709Y68504D01*
X146861Y68452D01*
X147479Y67381D01*
X148432Y66428D01*
X149599Y65754D01*
X150901Y65405D01*
X152249D01*
X153550Y65754D01*
X154717Y66428D01*
X155670Y67381D01*
X156344Y68548D01*
X156693Y69850D01*
Y71197D01*
X156474Y72016D01*
X163278Y78821D01*
X163800Y79602D01*
X163983Y80524D01*
Y88154D01*
X164138D01*
X164828Y88292D01*
X165412Y88682D01*
X165803Y89267D01*
X165940Y89957D01*
Y95083D01*
X165886Y95354D01*
X175598Y105066D01*
X175756D01*
X176557Y105280D01*
X177275Y105695D01*
X177862Y106281D01*
X178276Y107000D01*
X178491Y107801D01*
Y108630D01*
X178276Y109431D01*
X177862Y110149D01*
X177275Y110736D01*
X176557Y111150D01*
X175756Y111365D01*
D02*
G37*
G36*
X129921Y74842D02*
X128989Y74304D01*
X128109Y73425D01*
X127571Y72492D01*
X129921D01*
Y74842D01*
D02*
G37*
G36*
X223464Y74082D02*
Y71732D01*
X225815D01*
X225276Y72664D01*
X224397Y73544D01*
X223464Y74082D01*
D02*
G37*
G36*
X179527D02*
X178595Y73544D01*
X177716Y72664D01*
X177177Y71732D01*
X179527D01*
Y74082D01*
D02*
G37*
G36*
X203465D02*
Y69764D01*
X199528D01*
Y74082D01*
X198595Y73544D01*
X197716Y72664D01*
X197094Y71587D01*
X196904Y70878D01*
X196088D01*
X195898Y71587D01*
X195276Y72664D01*
X194397Y73544D01*
X193465Y74082D01*
Y69764D01*
X189527D01*
Y74082D01*
X188595Y73544D01*
X187716Y72664D01*
X187094Y71587D01*
X186904Y70878D01*
X186088D01*
X185898Y71587D01*
X185276Y72664D01*
X184397Y73544D01*
X183465Y74082D01*
Y69764D01*
X181496D01*
Y67795D01*
X177177D01*
X177716Y66863D01*
X178595Y65983D01*
X179640Y65380D01*
X179666Y65260D01*
X179621Y64560D01*
X179520Y64533D01*
X178354Y63859D01*
X177401Y62906D01*
X176727Y61739D01*
X176378Y60438D01*
Y59090D01*
X176727Y57788D01*
X177401Y56621D01*
X178354Y55668D01*
X179520Y54994D01*
X179621Y54967D01*
X179666Y54268D01*
X179640Y54147D01*
X178595Y53544D01*
X177716Y52665D01*
X177177Y51732D01*
X181496D01*
Y47795D01*
X177177D01*
X177716Y46863D01*
X178595Y45983D01*
X179640Y45380D01*
X179666Y45260D01*
X179621Y44560D01*
X179520Y44533D01*
X178354Y43859D01*
X177401Y42906D01*
X176727Y41739D01*
X176378Y40437D01*
Y39090D01*
X176727Y37788D01*
X177401Y36621D01*
X178354Y35668D01*
X179520Y34994D01*
X180822Y34646D01*
X182170D01*
X183472Y34994D01*
X183823Y35197D01*
X189170D01*
X189521Y34994D01*
X190822Y34646D01*
X192170D01*
X193472Y34994D01*
X193823Y35197D01*
X199170D01*
X199521Y34994D01*
X200822Y34646D01*
X202170D01*
X203472Y34994D01*
X203823Y35197D01*
X209170D01*
X209521Y34994D01*
X210822Y34646D01*
X212170D01*
X213472Y34994D01*
X213823Y35197D01*
X219169D01*
X219520Y34994D01*
X220822Y34646D01*
X222170D01*
X223471Y34994D01*
X224639Y35668D01*
X225591Y36621D01*
X226265Y37788D01*
X226614Y39090D01*
Y40437D01*
X226265Y41739D01*
X225591Y42906D01*
X224639Y43859D01*
X223471Y44533D01*
X223371Y44560D01*
X223326Y45260D01*
X223352Y45380D01*
X224397Y45983D01*
X225276Y46863D01*
X225815Y47795D01*
X221496D01*
Y51732D01*
X225815D01*
X225276Y52665D01*
X224397Y53544D01*
X223352Y54147D01*
X223326Y54268D01*
X223371Y54967D01*
X223471Y54994D01*
X224639Y55668D01*
X225591Y56621D01*
X226265Y57788D01*
X226614Y59090D01*
Y60438D01*
X226265Y61739D01*
X225591Y62906D01*
X224639Y63859D01*
X223471Y64533D01*
X223371Y64560D01*
X223326Y65260D01*
X223352Y65380D01*
X224397Y65983D01*
X225276Y66863D01*
X225815Y67795D01*
X221496D01*
Y69764D01*
X219528D01*
Y74082D01*
X218595Y73544D01*
X217716Y72664D01*
X217094Y71587D01*
X216904Y70878D01*
X216089D01*
X215898Y71587D01*
X215277Y72664D01*
X214397Y73544D01*
X213464Y74082D01*
Y69764D01*
X209527D01*
Y74082D01*
X208595Y73544D01*
X207716Y72664D01*
X207094Y71587D01*
X206904Y70878D01*
X206088D01*
X205898Y71587D01*
X205276Y72664D01*
X204397Y73544D01*
X203465Y74082D01*
D02*
G37*
G36*
X133858Y74842D02*
Y70524D01*
Y66205D01*
X134791Y66743D01*
X135670Y67623D01*
X136292Y68700D01*
X136404Y69115D01*
X137219D01*
X137330Y68700D01*
X137952Y67623D01*
X138831Y66743D01*
X139764Y66205D01*
Y70524D01*
Y74842D01*
X138831Y74304D01*
X137952Y73425D01*
X137330Y72347D01*
X137219Y71932D01*
X136404D01*
X136292Y72347D01*
X135670Y73425D01*
X134791Y74304D01*
X133858Y74842D01*
D02*
G37*
G36*
X129921Y68555D02*
X127571D01*
X128109Y67623D01*
X128989Y66743D01*
X129921Y66205D01*
Y68555D01*
D02*
G37*
G36*
X87029Y74016D02*
X86199D01*
X85399Y73801D01*
X84680Y73387D01*
X84094Y72800D01*
X83679Y72082D01*
X83465Y71281D01*
Y70451D01*
X83679Y69650D01*
X84094Y68932D01*
X84206Y68820D01*
Y65958D01*
X76515Y58268D01*
X76357D01*
X75556Y58053D01*
X74838Y57638D01*
X74251Y57052D01*
X73837Y56334D01*
X73622Y55533D01*
Y54703D01*
X73837Y53902D01*
X74251Y53184D01*
X74838Y52598D01*
X75556Y52183D01*
X76357Y51968D01*
X77186D01*
X77987Y52183D01*
X78706Y52598D01*
X79292Y53184D01*
X79707Y53902D01*
X79921Y54703D01*
Y54862D01*
X88317Y63258D01*
X88839Y64039D01*
X89023Y64961D01*
Y68820D01*
X89135Y68932D01*
X89549Y69650D01*
X89764Y70451D01*
Y71281D01*
X89549Y72082D01*
X89135Y72800D01*
X88548Y73387D01*
X87830Y73801D01*
X87029Y74016D01*
D02*
G37*
G36*
X126378Y49788D02*
Y44992D01*
X130445D01*
X130424Y45204D01*
X130075Y46354D01*
X129508Y47415D01*
X128745Y48344D01*
X127816Y49106D01*
X126756Y49673D01*
X126378Y49788D01*
D02*
G37*
G36*
X122441D02*
X122063Y49673D01*
X121003Y49106D01*
X120074Y48344D01*
X119311Y47415D01*
X118744Y46354D01*
X118395Y45204D01*
X118375Y44992D01*
X122441D01*
Y49788D01*
D02*
G37*
G36*
X161024Y49729D02*
Y44933D01*
X165090D01*
X165069Y45145D01*
X164720Y46295D01*
X164154Y47355D01*
X163391Y48285D01*
X162462Y49047D01*
X161402Y49614D01*
X161024Y49729D01*
D02*
G37*
G36*
X157087D02*
X156709Y49614D01*
X155648Y49047D01*
X154719Y48285D01*
X153957Y47355D01*
X153390Y46295D01*
X153041Y45145D01*
X153020Y44933D01*
X157087D01*
Y49729D01*
D02*
G37*
G36*
X130445Y41055D02*
X126378D01*
Y36260D01*
X126756Y36374D01*
X127816Y36941D01*
X128745Y37703D01*
X129508Y38633D01*
X130075Y39693D01*
X130424Y40843D01*
X130445Y41055D01*
D02*
G37*
G36*
X122441D02*
X118375D01*
X118395Y40843D01*
X118744Y39693D01*
X119311Y38633D01*
X120074Y37703D01*
X121003Y36941D01*
X122063Y36374D01*
X122441Y36260D01*
Y41055D01*
D02*
G37*
G36*
X165090Y40996D02*
X161024D01*
Y36200D01*
X161402Y36315D01*
X162462Y36882D01*
X163391Y37644D01*
X164154Y38574D01*
X164720Y39634D01*
X165069Y40784D01*
X165090Y40996D01*
D02*
G37*
G36*
X157087D02*
X153020D01*
X153041Y40784D01*
X153390Y39634D01*
X153957Y38574D01*
X154719Y37644D01*
X155648Y36882D01*
X156709Y36315D01*
X157087Y36200D01*
Y40996D01*
D02*
G37*
G36*
X78740Y32771D02*
Y31102D01*
X80409D01*
X80080Y31672D01*
X79310Y32442D01*
X78740Y32771D01*
D02*
G37*
G36*
X74803Y32771D02*
X74233Y32442D01*
X73464Y31672D01*
X73135Y31102D01*
X74803D01*
Y32771D01*
D02*
G37*
G36*
X224166Y31693D02*
X223078D01*
X222026Y31411D01*
X221084Y30867D01*
X220314Y30097D01*
X219770Y29155D01*
X219488Y28103D01*
Y27015D01*
X219770Y25964D01*
X220314Y25021D01*
X221084Y24251D01*
X222026Y23707D01*
X223078Y23425D01*
X224166D01*
X225218Y23707D01*
X226160Y24251D01*
X226930Y25021D01*
X227474Y25964D01*
X227756Y27015D01*
Y28103D01*
X227474Y29155D01*
X226930Y30097D01*
X226160Y30867D01*
X225218Y31411D01*
X224166Y31693D01*
D02*
G37*
%LPD*%
G36*
X109370Y148191D02*
X109464Y147992D01*
X109622Y147817D01*
X109842Y147665D01*
X110126Y147536D01*
X110472Y147431D01*
X110882Y147349D01*
X111354Y147291D01*
X111890Y147256D01*
X112488Y147244D01*
Y144095D01*
X111890Y144083D01*
X110882Y143989D01*
X110472Y143907D01*
X110126Y143802D01*
X109842Y143674D01*
X109622Y143522D01*
X109464Y143346D01*
X109370Y143148D01*
X109338Y142925D01*
Y148413D01*
X109370Y148191D01*
D02*
G37*
G36*
X98142Y142925D02*
X98110Y143148D01*
X98016Y143346D01*
X97859Y143522D01*
X97638Y143674D01*
X97355Y143802D01*
X97008Y143907D01*
X96599Y143989D01*
X96126Y144048D01*
X95591Y144083D01*
X94992Y144095D01*
Y147244D01*
X95591Y147256D01*
X96599Y147349D01*
X97008Y147431D01*
X97355Y147536D01*
X97638Y147665D01*
X97859Y147817D01*
X98016Y147992D01*
X98110Y148191D01*
X98142Y148413D01*
Y142925D01*
D02*
G37*
G36*
X163000Y89757D02*
X162866Y89709D01*
X162748Y89630D01*
X162646Y89519D01*
X162559Y89376D01*
X162488Y89202D01*
X162433Y88995D01*
X162394Y88757D01*
X162370Y88488D01*
X162362Y88186D01*
X160787D01*
X160780Y88488D01*
X160756Y88757D01*
X160716Y88995D01*
X160661Y89202D01*
X160591Y89376D01*
X160504Y89519D01*
X160402Y89630D01*
X160284Y89709D01*
X160150Y89757D01*
X160000Y89773D01*
X163150D01*
X163000Y89757D01*
D02*
G37*
D92*
X201496Y249764D02*
X211496D01*
X181496D02*
X191496D01*
X201496D01*
Y69527D02*
X211496D01*
X191496D02*
X201496D01*
X181496D02*
X191496D01*
X211496D02*
X221496D01*
X201496Y219527D02*
X211496D01*
X191496D02*
X201496D01*
X181496D02*
X191496D01*
X211496D02*
X221496D01*
X211496Y249764D02*
X221496D01*
X201496Y229764D02*
X211496D01*
X191496D02*
X201496D01*
X181496D02*
X191496D01*
X211496D02*
X221496D01*
X201496Y239764D02*
X211496D01*
X191496D02*
X201496D01*
X181496D02*
X191496D01*
X211496D02*
X221496D01*
X201496Y39764D02*
X211496D01*
X191496D02*
X201496D01*
X181496D02*
X191496D01*
X211496D02*
X221496D01*
X201496Y59764D02*
X211496D01*
X191496D02*
X201496D01*
X181496D02*
X191496D01*
X211496D02*
X221496D01*
X201496Y49764D02*
X211496D01*
X191496D02*
X201496D01*
X181496D02*
X191496D01*
X211496D02*
X221496D01*
D93*
X151575Y70524D02*
X161575Y80524D01*
Y92520D01*
X163145Y94090D01*
Y96019D02*
X175341Y108215D01*
X163145Y94090D02*
Y96019D01*
X161614Y214370D02*
X170472Y205512D01*
X196850D01*
X53543Y265748D02*
X83858D01*
X97819Y251787D01*
X39158Y251362D02*
X53543Y265748D01*
X39158Y214779D02*
Y251362D01*
X53858Y24094D02*
X83740D01*
X87598Y27953D01*
X101680D01*
X50000D02*
X50000D01*
X53858Y24094D01*
X39270Y38682D02*
Y74703D01*
Y38682D02*
X50000Y27953D01*
X39270Y74703D02*
X51181Y86614D01*
Y97874D01*
X87189Y31510D02*
Y47063D01*
X85055Y49197D02*
X87189Y47063D01*
Y31510D02*
X87203Y31496D01*
X39158Y214779D02*
X51181Y202756D01*
X97819Y236788D02*
Y251787D01*
X99825Y234818D02*
X100770Y233874D01*
X101196D01*
X99788Y234818D02*
X99825D01*
X97819Y236788D02*
X99788Y234818D01*
X87203Y28348D02*
Y31496D01*
Y28348D02*
X87598Y27953D01*
X101680D02*
X113189Y39462D01*
X51181Y202756D02*
X55118D01*
X76772Y55118D02*
X86614Y64961D01*
Y70866D01*
X92244Y84173D02*
X95669Y80748D01*
Y80335D02*
Y80748D01*
X79724Y84173D02*
X92244D01*
D96*
X55391Y176454D02*
X62886D01*
X62886Y176454D01*
D98*
X94488Y145669D02*
X100295D01*
X107185D02*
X112992D01*
D102*
X161575Y92520D02*
D03*
D103*
X141575D02*
D03*
X151575D02*
D03*
D104*
X45276Y197244D02*
D03*
Y164961D02*
D03*
D105*
Y173228D02*
D03*
Y181102D02*
D03*
Y188976D02*
D03*
D106*
X47933Y147638D02*
D03*
Y131890D02*
D03*
D107*
X53149Y125689D02*
D03*
Y153839D02*
D03*
X39567D02*
D03*
Y125689D02*
D03*
D108*
X131732Y268685D02*
D03*
X136732D02*
D03*
X141732D02*
D03*
X146732D02*
D03*
X151732D02*
D03*
Y20685D02*
D03*
X146732D02*
D03*
X141732D02*
D03*
X136732D02*
D03*
X131732D02*
D03*
D109*
X191496Y69764D02*
D03*
Y59764D02*
D03*
X201496D02*
D03*
Y69764D02*
D03*
X211496D02*
D03*
Y59764D02*
D03*
X221496Y69764D02*
D03*
Y59764D02*
D03*
X181496Y69764D02*
D03*
Y59764D02*
D03*
X211496Y219764D02*
D03*
Y229764D02*
D03*
X201496D02*
D03*
Y219764D02*
D03*
X191496D02*
D03*
Y229764D02*
D03*
X181496Y219764D02*
D03*
Y229764D02*
D03*
X221496Y219764D02*
D03*
Y229764D02*
D03*
X191496Y49764D02*
D03*
Y39764D02*
D03*
X201496D02*
D03*
Y49764D02*
D03*
X211496D02*
D03*
Y39764D02*
D03*
X221496Y49764D02*
D03*
Y39764D02*
D03*
X181496Y49764D02*
D03*
Y39764D02*
D03*
X211496Y239764D02*
D03*
Y249764D02*
D03*
X201496D02*
D03*
Y239764D02*
D03*
X191496D02*
D03*
Y249764D02*
D03*
X181496Y239764D02*
D03*
Y249764D02*
D03*
X221496Y239764D02*
D03*
Y249764D02*
D03*
D110*
X124409Y43024D02*
D03*
X159055Y42965D02*
D03*
X159055Y246346D02*
D03*
X124409Y246406D02*
D03*
D111*
X131890Y70524D02*
D03*
X141732D02*
D03*
X151575D02*
D03*
X151575Y218847D02*
D03*
X141732D02*
D03*
X131890D02*
D03*
D112*
X42520Y261811D02*
D03*
X42520Y27559D02*
D03*
X223622Y27559D02*
D03*
Y261811D02*
D03*
D113*
X40157Y96850D02*
D03*
X102362Y122047D02*
D03*
X90551D02*
D03*
X96457D02*
D03*
X59168Y66654D02*
D03*
X43420D02*
D03*
X59055Y234252D02*
D03*
X43307D02*
D03*
D114*
X218504Y164685D02*
D03*
Y144685D02*
D03*
Y124685D02*
D03*
Y184685D02*
D03*
Y104685D02*
D03*
D115*
X76772Y29134D02*
D03*
D116*
X196850Y205512D02*
D03*
X161614Y214370D02*
D03*
X206693Y98425D02*
D03*
X85055Y49197D02*
D03*
X112992Y262598D02*
D03*
X91339Y258268D02*
D03*
X101196Y233874D02*
D03*
X101181Y238181D02*
D03*
X87203Y31496D02*
D03*
X113189Y39462D02*
D03*
X94488Y145669D02*
D03*
X55118Y202756D02*
D03*
X55391Y176454D02*
D03*
X51181Y97874D02*
D03*
X62886Y176454D02*
D03*
X175341Y108215D02*
D03*
X183071Y112205D02*
D03*
X113189Y45276D02*
D03*
X90551Y41339D02*
D03*
X67913Y33465D02*
D03*
X112992Y145669D02*
D03*
X180118Y103347D02*
D03*
X183071Y131890D02*
D03*
X137795Y131890D02*
D03*
Y112205D02*
D03*
X76772Y55118D02*
D03*
X86614Y70866D02*
D03*
X112205Y25787D02*
D03*
X183071Y175197D02*
D03*
X116142Y74803D02*
D03*
X152874Y188189D02*
D03*
X59055Y129528D02*
D03*
X55118Y131102D02*
D03*
X114173Y80335D02*
D03*
X95669D02*
D03*
X79724Y84173D02*
D03*
X85433Y240551D02*
D03*
X65175Y224195D02*
D03*
X70866Y122638D02*
D03*
X105020Y224016D02*
D03*
X41339Y116142D02*
D03*
X93701Y214035D02*
D03*
X105118D02*
D03*
X66929Y188976D02*
D03*
X137795Y175197D02*
D03*
X137795Y155512D02*
D03*
X183071D02*
D03*
X204724Y196063D02*
D03*
X148819Y198031D02*
D03*
D117*
X100295Y145669D02*
D03*
X107185D02*
D03*
M02*
