G04*
G04 #@! TF.GenerationSoftware,Altium Limited,Altium Designer,21.9.2 (33)*
G04*
G04 Layer_Color=16711935*
%FSLAX25Y25*%
%MOIN*%
G70*
G04*
G04 #@! TF.SameCoordinates,35660DA9-C4E3-4063-8D90-980638CF2194*
G04*
G04*
G04 #@! TF.FilePolarity,Positive*
G04*
G01*
G75*
%ADD122C,0.00394*%
D122*
X34646Y27559D02*
X34713Y26531D01*
X34914Y25521D01*
X35245Y24546D01*
X35701Y23622D01*
X36273Y22766D01*
X36952Y21991D01*
X37726Y21312D01*
X38583Y20740D01*
X39507Y20284D01*
X40482Y19953D01*
X41492Y19752D01*
X42520Y19685D01*
X223622Y19685D02*
X224650Y19752D01*
X225660Y19953D01*
X226635Y20284D01*
X227559Y20740D01*
X228415Y21312D01*
X229190Y21991D01*
X229869Y22766D01*
X230441Y23622D01*
X230897Y24546D01*
X231228Y25521D01*
X231429Y26531D01*
X231496Y27559D01*
X231496Y261811D02*
X231429Y262839D01*
X231228Y263849D01*
X230897Y264824D01*
X230441Y265748D01*
X229869Y266604D01*
X229190Y267379D01*
X228415Y268058D01*
X227559Y268630D01*
X226635Y269086D01*
X225660Y269417D01*
X224650Y269618D01*
X223622Y269685D01*
X42520D02*
X41492Y269618D01*
X40482Y269417D01*
X39506Y269086D01*
X38583Y268630D01*
X37726Y268058D01*
X36952Y267379D01*
X36273Y266604D01*
X35701Y265748D01*
X35245Y264824D01*
X34914Y263849D01*
X34713Y262839D01*
X34646Y261811D01*
X42520Y19685D02*
X223622Y19685D01*
X231496Y27559D02*
X231496Y261811D01*
X42520Y269685D02*
X223622D01*
X34646Y261811D02*
X34646Y27559D01*
M02*
