G04*
G04 #@! TF.GenerationSoftware,Altium Limited,Altium Designer,21.2.2 (38)*
G04*
G04 Layer_Color=32896*
%FSLAX25Y25*%
%MOIN*%
G70*
G04*
G04 #@! TF.SameCoordinates,07A13E0E-324E-433A-AF3E-5CD10A4A6765*
G04*
G04*
G04 #@! TF.FilePolarity,Positive*
G04*
G01*
G75*
%ADD10C,0.01000*%
%ADD14C,0.00787*%
%ADD101C,0.00800*%
%ADD102C,0.02000*%
%ADD103C,0.03000*%
G36*
X78714Y44278D02*
X78968Y44238D01*
X79182Y44184D01*
X79370Y44117D01*
X79517Y44064D01*
X79571Y44037D01*
X79611Y44010D01*
X79624Y43997D01*
X79637D01*
X79651D01*
X79745Y43943D01*
X79825Y43890D01*
X79878Y43836D01*
X79905Y43823D01*
X79999Y43756D01*
X80066Y43675D01*
X80120Y43622D01*
X80146Y43595D01*
X80253Y43475D01*
X80334Y43354D01*
X80481Y43100D01*
X80575Y42859D01*
X80642Y42618D01*
X80682Y42417D01*
X80695Y42336D01*
Y42270D01*
X80709Y42202D01*
Y25331D01*
X80695Y25197D01*
Y25090D01*
X80682Y25036D01*
Y25023D01*
X80668Y24929D01*
X80642Y24836D01*
X80628Y24755D01*
X80615Y24729D01*
Y24715D01*
X80494Y24434D01*
X80361Y24193D01*
X80200Y23992D01*
X80026Y23818D01*
X79878Y23684D01*
X79758Y23590D01*
X79704Y23550D01*
X79664Y23523D01*
X79651Y23510D01*
X79637D01*
X79504Y23443D01*
X79410Y23403D01*
X79356Y23390D01*
X79343Y23376D01*
X79209Y23336D01*
X79115Y23309D01*
X79062Y23282D01*
X79035D01*
X78874Y23256D01*
X78727Y23242D01*
X78446D01*
X78178Y23282D01*
X77937Y23336D01*
X77750Y23403D01*
X77669Y23443D01*
X77602Y23470D01*
X77535Y23497D01*
X77495Y23523D01*
X77482Y23537D01*
X77468D01*
X62967Y31906D01*
X62860Y31973D01*
X62779Y32039D01*
X62726Y32080D01*
X62699Y32093D01*
X62632Y32160D01*
X62552Y32227D01*
X62498Y32280D01*
X62471Y32294D01*
Y32307D01*
X62364Y32428D01*
X62284Y32548D01*
X62137Y32789D01*
X62030Y33030D01*
X61963Y33258D01*
X61923Y33459D01*
X61909Y33619D01*
X61896Y33673D01*
Y33753D01*
X61909Y33968D01*
X61936Y34168D01*
X61989Y34356D01*
X62043Y34517D01*
X62097Y34650D01*
X62150Y34744D01*
X62177Y34811D01*
X62190Y34838D01*
X62230Y34905D01*
X62271Y34958D01*
X62284Y34985D01*
X62297Y34999D01*
Y34985D01*
X62405Y35133D01*
X62525Y35253D01*
X62632Y35360D01*
X62739Y35454D01*
X62846Y35534D01*
X62927Y35588D01*
X62980Y35615D01*
X62994Y35628D01*
X77508Y43997D01*
Y44010D01*
X77522Y44023D01*
X77549D01*
X77562Y44037D01*
X77669Y44091D01*
X77763Y44131D01*
X77816Y44157D01*
X77843D01*
X77870Y44171D01*
X77924Y44184D01*
X78017Y44211D01*
X78098Y44238D01*
X78124Y44251D01*
X78138D01*
X78285Y44278D01*
X78432Y44291D01*
X78714Y44278D01*
D02*
G37*
G36*
X50547Y43285D02*
X50591Y43240D01*
X50614Y43218D01*
Y43196D01*
X51082Y40896D01*
X51105Y40830D01*
X51127Y40807D01*
X51172Y40785D01*
X51194D01*
X53024Y40004D01*
X53091D01*
X53114D01*
X53136D01*
X53181D01*
X53203D01*
X55167Y41365D01*
X55189D01*
X55212D01*
X55234D01*
X55279D01*
X57042Y39580D01*
X57087Y39535D01*
X57064Y39468D01*
Y39446D01*
X57042Y39423D01*
X55747Y37526D01*
Y37348D01*
X56216Y36522D01*
Y36432D01*
X56194Y36388D01*
X56172Y36343D01*
X51975Y34625D01*
X51886D01*
X51841Y34647D01*
X51797Y34669D01*
Y34692D01*
X51685Y34915D01*
X51663Y34937D01*
X51640Y34959D01*
X51574Y35026D01*
X51551Y35049D01*
X51395Y35272D01*
X51239Y35451D01*
X51060Y35607D01*
X50882Y35763D01*
X50524Y35986D01*
X50167Y36120D01*
X49833Y36209D01*
X49565Y36254D01*
X49453Y36276D01*
X49386D01*
X49342D01*
X49319D01*
X48895Y36232D01*
X48516Y36142D01*
X48181Y36031D01*
X47891Y35875D01*
X47668Y35741D01*
X47489Y35607D01*
X47400Y35517D01*
X47355Y35495D01*
X47087Y35183D01*
X46886Y34848D01*
X46752Y34535D01*
X46641Y34223D01*
X46596Y33977D01*
X46574Y33754D01*
X46551Y33620D01*
Y33576D01*
X46596Y33152D01*
X46685Y32772D01*
X46797Y32460D01*
X46953Y32169D01*
X47110Y31946D01*
X47221Y31768D01*
X47310Y31678D01*
X47355Y31634D01*
X47668Y31366D01*
X48002Y31187D01*
X48337Y31053D01*
X48627Y30942D01*
X48917Y30897D01*
X49118Y30875D01*
X49208Y30852D01*
X49275D01*
X49297D01*
X49319D01*
X49587Y30875D01*
X49855Y30897D01*
X50301Y31053D01*
X50681Y31254D01*
X50993Y31477D01*
X51239Y31701D01*
X51417Y31902D01*
X51507Y32058D01*
X51551Y32080D01*
Y32102D01*
X51618Y32169D01*
X51640Y32192D01*
X51685Y32214D01*
X51797Y32460D01*
X51841Y32482D01*
X51908Y32504D01*
X51953D01*
X51975D01*
X56172Y30741D01*
X56194Y30719D01*
X56216Y30674D01*
Y30607D01*
X55747Y29803D01*
Y29603D01*
X57042Y27728D01*
X57087Y27661D01*
X57064Y27594D01*
Y27571D01*
X57042Y27549D01*
X55279Y25786D01*
X55256D01*
X55234D01*
X55189D01*
X55167D01*
X53203Y27125D01*
X53158D01*
X53136D01*
X53047D01*
X53024D01*
X51194Y26366D01*
X51127Y26344D01*
X51105Y26299D01*
X51082Y26255D01*
Y26232D01*
X50614Y23933D01*
X50591Y23866D01*
X50547Y23844D01*
X50502Y23822D01*
X50480D01*
X48025D01*
X47935Y23844D01*
X47913Y23866D01*
X47891Y23911D01*
Y23933D01*
X47489Y26299D01*
X47467Y26366D01*
X47422Y26411D01*
X47400Y26433D01*
X47377D01*
X45659Y27192D01*
X45592D01*
X45547D01*
X45502D01*
X45480D01*
X43404Y25786D01*
X43360D01*
X43338D01*
X43270D01*
X43226D01*
X41507Y27549D01*
X41485Y27594D01*
X41463Y27661D01*
Y27728D01*
X42936Y29803D01*
Y29960D01*
X42222Y31611D01*
X42199Y31678D01*
X42154Y31701D01*
X42132Y31723D01*
X42110D01*
X39632Y32214D01*
X39543Y32236D01*
X39521Y32259D01*
X39498Y32303D01*
Y34803D01*
X39521Y34870D01*
X39565Y34892D01*
X39610Y34915D01*
X39632D01*
X42110Y35406D01*
X42177Y35428D01*
X42199Y35451D01*
X42222Y35495D01*
Y35517D01*
X42936Y37169D01*
Y37348D01*
X41463Y39423D01*
Y39490D01*
X41485Y39535D01*
X41507Y39580D01*
X43226Y41365D01*
X43315D01*
X43338D01*
X43382D01*
X43404D01*
X45480Y39959D01*
X45502D01*
X45525D01*
X45547D01*
X45636D01*
X45659D01*
X47377Y40651D01*
X47444Y40718D01*
X47467Y40785D01*
X47489Y40807D01*
Y40830D01*
X47891Y43196D01*
X47913Y43262D01*
X47958Y43285D01*
X48002Y43307D01*
X48025D01*
X50480D01*
X50547Y43285D01*
D02*
G37*
%LPC*%
G36*
X77093Y37288D02*
Y37262D01*
X77080Y37248D01*
X77067Y37195D01*
Y37128D01*
X77080Y37021D01*
X77120Y36913D01*
X77174Y36833D01*
X77227Y36753D01*
X77294Y36699D01*
X77348Y36659D01*
X77388Y36632D01*
X77401Y36619D01*
X77455Y36606D01*
X77482Y36592D01*
X77522Y36552D01*
X77535Y36538D01*
X77549D01*
X77629Y36485D01*
X77696Y36458D01*
X77750Y36431D01*
X77776D01*
X77803Y36418D01*
X77843D01*
X77883D01*
X77897D01*
X77977D01*
X78017Y36431D01*
X78031D01*
X78071D01*
X78098D01*
X78111D01*
X78124D01*
Y36458D01*
X78138Y36498D01*
Y36579D01*
X78124Y36646D01*
X78098Y36713D01*
X78031Y36820D01*
X77964Y36887D01*
X77950Y36900D01*
X77937Y36913D01*
X77857Y36967D01*
X77750Y37034D01*
X77629Y37088D01*
X77495Y37141D01*
X77388Y37181D01*
X77281Y37221D01*
X77214Y37235D01*
X77187Y37248D01*
X77093Y37288D01*
D02*
G37*
G36*
X73599Y38145D02*
X73505D01*
X73451D01*
X73411Y38132D01*
X73398D01*
X73331Y38118D01*
X73250Y38092D01*
X73076Y38011D01*
X72983Y37985D01*
X72916Y37944D01*
X72862Y37931D01*
X72849Y37918D01*
X72661Y37837D01*
X72501Y37757D01*
X72367Y37703D01*
X72246Y37663D01*
X72152Y37637D01*
X72072Y37623D01*
X72032Y37610D01*
X72019D01*
X72929Y36030D01*
X73009Y36043D01*
X73103Y36070D01*
X73277Y36137D01*
X73358Y36190D01*
X73425Y36217D01*
X73465Y36244D01*
X73478Y36257D01*
X73585Y36324D01*
X73679Y36391D01*
X73759Y36431D01*
X73840Y36458D01*
X73893Y36485D01*
X73933Y36498D01*
X73960Y36512D01*
X73974D01*
X74081D01*
X74201D01*
X74455Y36458D01*
X74576Y36418D01*
X74670Y36391D01*
X74737Y36378D01*
X74764Y36364D01*
X74897Y36311D01*
X75018Y36284D01*
X75098Y36271D01*
X75165Y36257D01*
X75219D01*
X75245D01*
X75272D01*
X75513Y36298D01*
X75621Y36311D01*
X75728D01*
X75808D01*
X75888Y36298D01*
X75928D01*
X75942D01*
X75995D01*
X76009D01*
X76022D01*
X76076Y36284D01*
X76089D01*
X76103D01*
X76183Y36257D01*
X76236Y36244D01*
X76263Y36231D01*
X76277D01*
X76344Y36217D01*
X76397Y36190D01*
X76437D01*
X76464Y36177D01*
X76491Y36164D01*
X76638Y36123D01*
X76772Y36083D01*
X77000Y36030D01*
X77174Y35989D01*
X77308Y35963D01*
X77401Y35949D01*
X77468Y35936D01*
X77495D01*
X77508D01*
X77616Y35949D01*
X77696Y35989D01*
X77857Y36083D01*
X77910Y36123D01*
X77950Y36164D01*
X77977Y36190D01*
X77991Y36204D01*
X78004Y36217D01*
X78017Y36244D01*
X78031Y36257D01*
X78044Y36271D01*
X78004D01*
X77950D01*
X77910D01*
X77897D01*
X77830D01*
X77776D01*
X77750Y36284D01*
X77736D01*
X77642Y36324D01*
X77549Y36364D01*
X77468Y36405D01*
X77455Y36418D01*
X77442D01*
X77415Y36445D01*
X77375Y36472D01*
X77348Y36485D01*
X77334Y36498D01*
X77201Y36592D01*
X77093Y36699D01*
X77026Y36806D01*
X76973Y36900D01*
X76946Y36994D01*
X76919Y37061D01*
Y37235D01*
X76933Y37275D01*
Y37288D01*
X76946Y37328D01*
Y37342D01*
X76852Y37382D01*
X76732Y37422D01*
X76678Y37449D01*
X76638Y37462D01*
X76611Y37476D01*
X76598D01*
X76397Y37570D01*
X76236Y37637D01*
X76169Y37663D01*
X76116Y37677D01*
X76089Y37690D01*
X76076D01*
X75969Y37717D01*
X75848Y37730D01*
X75621Y37770D01*
X75527Y37784D01*
X75446D01*
X75393Y37797D01*
X75379D01*
X75192Y37824D01*
X75031Y37851D01*
X74897Y37878D01*
X74790Y37904D01*
X74697Y37918D01*
X74643Y37931D01*
X74603Y37944D01*
X74589D01*
X74576D01*
X74482Y37971D01*
X74389Y37998D01*
X74308Y38011D01*
X74295Y38025D01*
X74282D01*
X74054Y38078D01*
X73866Y38118D01*
X73719Y38132D01*
X73599Y38145D01*
D02*
G37*
G36*
X78446Y42872D02*
X78325D01*
X78218D01*
X78138D01*
X78071Y42859D01*
X78057D01*
X77977Y42845D01*
X77924Y42832D01*
X77897Y42818D01*
X77883D01*
X77843Y42805D01*
X77790Y42778D01*
X77750Y42752D01*
X77736Y42738D01*
X77723Y42725D01*
X77709D01*
X71228Y38989D01*
X71858Y37904D01*
X71992Y37931D01*
X72139Y37971D01*
X72286Y38011D01*
X72420Y38065D01*
X72541Y38118D01*
X72635Y38159D01*
X72701Y38186D01*
X72728Y38199D01*
X72862Y38252D01*
X72983Y38306D01*
X73076Y38346D01*
X73157Y38386D01*
X73224Y38413D01*
X73277Y38427D01*
X73304Y38440D01*
X73317D01*
X73451Y38453D01*
X73599D01*
X73773Y38440D01*
X73947Y38413D01*
X74107Y38373D01*
X74241Y38346D01*
X74295Y38333D01*
X74335D01*
X74348Y38319D01*
X74362D01*
X74482Y38279D01*
X74576Y38252D01*
X74630Y38239D01*
X74643D01*
X74656D01*
X74670D01*
X74777Y38212D01*
X74897Y38199D01*
X75138Y38145D01*
X75245Y38132D01*
X75339Y38118D01*
X75393Y38105D01*
X75420D01*
X75607Y38078D01*
X75768Y38052D01*
X75902Y38038D01*
X75995Y38025D01*
X76076Y37998D01*
X76116D01*
X76143Y37985D01*
X76156D01*
X76236Y37958D01*
X76330Y37931D01*
X76518Y37851D01*
X76598Y37811D01*
X76665Y37784D01*
X76718Y37770D01*
X76732Y37757D01*
X76866Y37703D01*
X76960Y37663D01*
X77040Y37637D01*
X77093Y37610D01*
X77134Y37596D01*
X77160Y37583D01*
X77174D01*
X77187Y37570D01*
X77227Y37556D01*
X77281Y37543D01*
X77294D01*
X77508Y37462D01*
X77683Y37396D01*
X77830Y37328D01*
X77950Y37262D01*
X78031Y37221D01*
X78098Y37181D01*
X78124Y37154D01*
X78138Y37141D01*
X78232Y37047D01*
X78298Y36954D01*
X78352Y36873D01*
X78392Y36780D01*
X78419Y36699D01*
X78432Y36646D01*
X78446Y36606D01*
Y36485D01*
X78419Y36378D01*
X78406Y36311D01*
X78392Y36298D01*
Y36284D01*
X78339Y36177D01*
X78285Y36097D01*
X78232Y36030D01*
X78218Y36003D01*
X78111Y35882D01*
X77991Y35802D01*
X77870Y35735D01*
X77763Y35682D01*
X77669Y35655D01*
X77589Y35641D01*
X77535Y35628D01*
X77522D01*
X77415D01*
X77254Y35655D01*
X77093Y35695D01*
X76919Y35735D01*
X76759Y35775D01*
X76625Y35802D01*
X76571Y35816D01*
X76531Y35829D01*
X76518Y35842D01*
X76504D01*
X76531Y35789D01*
X76571Y35722D01*
X76598Y35668D01*
X76611Y35655D01*
X76652Y35588D01*
X76692Y35534D01*
X76718Y35494D01*
X76745Y35467D01*
X76772Y35441D01*
X76785D01*
X76946Y35467D01*
X77080Y35481D01*
X77147D01*
X77187D01*
X77214D01*
X77227D01*
X77254D01*
X77267D01*
X77294D01*
X77308D01*
X77522Y35467D01*
X77709Y35427D01*
X77870Y35387D01*
X77991Y35320D01*
X78098Y35267D01*
X78165Y35226D01*
X78205Y35186D01*
X78218Y35173D01*
X78312Y35052D01*
X78365Y34918D01*
X78379Y34865D01*
X78392Y34811D01*
X78406Y34784D01*
Y34436D01*
X78379Y34329D01*
X78352Y34249D01*
X78325Y34182D01*
X78312Y34155D01*
X78258Y34061D01*
X78218Y33981D01*
X78178Y33928D01*
X78165Y33914D01*
X78044Y33780D01*
X77924Y33660D01*
X77870Y33606D01*
X77816Y33566D01*
X77790Y33553D01*
X77776Y33539D01*
X77843Y33445D01*
X77883Y33365D01*
X77937Y33204D01*
X77950Y33138D01*
X77964Y33084D01*
Y32923D01*
X77950Y32816D01*
X77910Y32722D01*
X77883Y32655D01*
X77843Y32588D01*
X77803Y32548D01*
X77790Y32522D01*
X77776Y32508D01*
X77750Y32495D01*
X77736Y32481D01*
X77696Y32455D01*
X77656Y32428D01*
X77629Y32401D01*
X77616D01*
X77549Y32374D01*
X77495Y32361D01*
X77482Y32348D01*
X77468D01*
X77334Y32334D01*
X77201D01*
X77147Y32348D01*
X77120D01*
X77093Y32361D01*
X77080D01*
Y32227D01*
X77067Y32093D01*
X77053Y31973D01*
X77026Y31865D01*
X76986Y31798D01*
X76946Y31732D01*
X76919Y31691D01*
X76906Y31678D01*
X76893Y31665D01*
X76839Y31638D01*
X76812Y31624D01*
X76785Y31611D01*
X76652Y31571D01*
X76531Y31544D01*
X76464Y31531D01*
X76437D01*
X76277Y31558D01*
X76156Y31598D01*
X76076Y31638D01*
X76062Y31665D01*
X76049D01*
X76022Y31691D01*
X76009Y31705D01*
X75862Y31839D01*
X75768Y31946D01*
X75701Y31999D01*
X75687Y32026D01*
X75607Y31906D01*
X75513Y31812D01*
X75460Y31745D01*
X75433Y31718D01*
X79236Y25144D01*
X79303Y25237D01*
X79343Y25344D01*
X79370Y25425D01*
X79383Y25438D01*
Y25478D01*
X79396Y25532D01*
X79410Y25585D01*
X79423Y25599D01*
Y25612D01*
X79437Y25666D01*
Y41707D01*
X79423Y41881D01*
X79383Y42028D01*
X79343Y42162D01*
X79276Y42283D01*
X79222Y42377D01*
X79182Y42457D01*
X79142Y42497D01*
X79129Y42511D01*
X79075Y42564D01*
X79035Y42604D01*
X79022Y42618D01*
X79008Y42631D01*
X78914Y42698D01*
X78874Y42711D01*
X78861Y42725D01*
X78727Y42792D01*
X78580Y42845D01*
X78446Y42872D01*
D02*
G37*
G36*
X74107Y36204D02*
X74054D01*
X74040D01*
X74027D01*
X73974Y36190D01*
X73920Y36164D01*
X73799Y36097D01*
X73733Y36057D01*
X73692Y36030D01*
X73665Y36016D01*
X73652Y36003D01*
X73532Y35923D01*
X73425Y35869D01*
X73331Y35816D01*
X73250Y35789D01*
X73184Y35762D01*
X73143Y35748D01*
X73116Y35735D01*
X73103D01*
X73371Y35267D01*
X73478Y35333D01*
X73572Y35387D01*
X73652Y35414D01*
X73665Y35427D01*
X73679D01*
X73813Y35454D01*
X73933Y35467D01*
X73987D01*
X74027D01*
X74054D01*
X74067D01*
X74161D01*
X74241D01*
X74295Y35481D01*
X74322D01*
X74415D01*
X74482D01*
X74536D01*
X74563D01*
X74683D01*
X74790Y35467D01*
X74871Y35454D01*
X74951D01*
X75005Y35441D01*
X75045Y35427D01*
X75058D01*
X75072D01*
X75125Y35414D01*
X75152Y35400D01*
X75205Y35374D01*
X75219D01*
X75232D01*
X75272Y35347D01*
X75326Y35320D01*
X75339Y35307D01*
X75353D01*
X75567Y35213D01*
X75661Y35159D01*
X75741Y35119D01*
X75808Y35079D01*
X75862Y35039D01*
X75888Y35026D01*
X75902Y35012D01*
X76116Y35146D01*
X76210Y35199D01*
X76290Y35240D01*
X76357Y35280D01*
X76411Y35293D01*
X76437Y35320D01*
X76451D01*
X76411Y35374D01*
X76384Y35427D01*
X76357Y35481D01*
X76344Y35508D01*
X76290Y35601D01*
X76250Y35655D01*
X76223Y35682D01*
X76210Y35695D01*
X76183Y35722D01*
X76156Y35748D01*
X76129Y35789D01*
X76116Y35802D01*
X76089Y35842D01*
X76076Y35869D01*
X76062Y35896D01*
X76036Y35936D01*
X76022Y35963D01*
X76009Y35976D01*
X75995D01*
X75982Y35989D01*
X75969D01*
X75942D01*
X75915D01*
X75701D01*
X75607D01*
X75513Y35976D01*
X75446Y35963D01*
X75393D01*
X75353Y35949D01*
X75339D01*
X75259Y35936D01*
X75165Y35949D01*
X74938Y35989D01*
X74830Y36016D01*
X74737Y36043D01*
X74683Y36057D01*
X74656Y36070D01*
X74496Y36123D01*
X74362Y36164D01*
X74255Y36177D01*
X74161Y36190D01*
X74107Y36204D01*
D02*
G37*
G36*
X74723Y35159D02*
X74656D01*
X74603D01*
X74576D01*
X74563D01*
X74536D01*
X74482D01*
X74402D01*
X74308D01*
X74228D01*
X74148D01*
X74094D01*
X74067D01*
X73947D01*
X73853Y35146D01*
X73786Y35133D01*
X73759D01*
X73665Y35092D01*
X73599Y35052D01*
X73545Y35026D01*
X73532Y35012D01*
X73840Y34463D01*
X73987Y34503D01*
X74107Y34517D01*
X74188Y34530D01*
X74201D01*
X74215D01*
X74362Y34517D01*
X74482Y34477D01*
X74563Y34450D01*
X74576Y34436D01*
X74589D01*
X74616Y34423D01*
X74643Y34409D01*
X74656D01*
X74817Y34329D01*
X74938Y34262D01*
X75005Y34222D01*
X75031Y34209D01*
X75205Y34396D01*
X75366Y34557D01*
X75433Y34624D01*
X75487Y34664D01*
X75513Y34691D01*
X75527Y34704D01*
X75567Y34744D01*
X75580Y34758D01*
X75594Y34771D01*
X75634Y34798D01*
X75647Y34811D01*
X75487Y34905D01*
X75353Y34985D01*
X75299Y34999D01*
X75259Y35026D01*
X75245Y35039D01*
X75232D01*
X75165Y35066D01*
X75125Y35079D01*
X75112D01*
X75058Y35092D01*
X75018Y35106D01*
X75005Y35119D01*
X74991D01*
X74857Y35146D01*
X74723Y35159D01*
D02*
G37*
G36*
X77602D02*
X77589D01*
X77522Y35133D01*
X77468Y35119D01*
X77442Y35106D01*
X77428D01*
X77348Y35079D01*
X77281Y35039D01*
X77227Y35026D01*
X77201Y34999D01*
X77160Y34985D01*
X77147Y34972D01*
X77053Y34865D01*
X76986Y34758D01*
X76960Y34704D01*
X76946Y34664D01*
X76933Y34637D01*
Y34624D01*
X76919Y34597D01*
Y34584D01*
X76906Y34543D01*
Y34490D01*
X76893Y34450D01*
X76879Y34436D01*
X76852Y34329D01*
X76839Y34195D01*
X76826Y34075D01*
Y33847D01*
X76852Y33753D01*
X76866Y33660D01*
X76893Y33593D01*
X76906Y33539D01*
X76946Y33472D01*
X76960Y33445D01*
X77040Y33459D01*
X77120Y33499D01*
X77294Y33579D01*
X77361Y33633D01*
X77428Y33673D01*
X77468Y33700D01*
X77482Y33713D01*
X77602Y33807D01*
X77696Y33887D01*
X77763Y33941D01*
X77830Y34008D01*
X77870Y34048D01*
X77897Y34075D01*
X77924Y34102D01*
X77991Y34195D01*
X78017Y34249D01*
X78044Y34276D01*
Y34289D01*
X78071Y34356D01*
X78084Y34409D01*
Y34477D01*
X78098Y34597D01*
Y34731D01*
X78071Y34838D01*
X78044Y34905D01*
X78017Y34945D01*
X78004Y34958D01*
X77870Y35052D01*
X77736Y35119D01*
X77683Y35133D01*
X77629Y35146D01*
X77602Y35159D01*
D02*
G37*
G36*
X74241Y34222D02*
X74215D01*
X74148D01*
X74081Y34209D01*
X74027Y34195D01*
X74000D01*
X74429Y33445D01*
X74549Y33619D01*
X74683Y33780D01*
X74737Y33860D01*
X74790Y33914D01*
X74817Y33954D01*
X74830Y33968D01*
X74737Y34021D01*
X74630Y34075D01*
X74549Y34115D01*
X74536Y34128D01*
X74523D01*
X74482Y34142D01*
X74469Y34155D01*
X74455D01*
X74375Y34195D01*
X74295Y34209D01*
X74241Y34222D01*
D02*
G37*
G36*
X77522Y33365D02*
X77334Y33258D01*
X77174Y33191D01*
X77107Y33178D01*
X77067Y33164D01*
X77040Y33151D01*
X77026D01*
X76960Y33138D01*
X76919Y33124D01*
X76906Y33111D01*
X76893D01*
X76919Y33044D01*
X76960Y32977D01*
X76973Y32923D01*
X76986Y32896D01*
X77000Y32843D01*
X77013Y32789D01*
X77026Y32749D01*
Y32736D01*
X77093Y32696D01*
X77160Y32669D01*
X77281Y32642D01*
X77375D01*
X77388Y32655D01*
X77401D01*
X77428Y32669D01*
X77455D01*
X77468Y32682D01*
X77522Y32709D01*
X77549Y32722D01*
X77562D01*
X77575Y32736D01*
X77629Y32829D01*
X77656Y32910D01*
Y33017D01*
X77629Y33151D01*
X77589Y33271D01*
X77549Y33338D01*
X77522Y33352D01*
Y33365D01*
D02*
G37*
G36*
X77187Y35173D02*
X77053Y35159D01*
X76919Y35146D01*
X76665Y35066D01*
X76424Y34958D01*
X76196Y34825D01*
X76009Y34691D01*
X75862Y34584D01*
X75808Y34543D01*
X75768Y34503D01*
X75741Y34490D01*
X75728Y34477D01*
X75473Y34235D01*
X75366Y34128D01*
X75272Y34021D01*
X75192Y33941D01*
X75138Y33874D01*
X75098Y33820D01*
X75085Y33807D01*
X74884Y33539D01*
X74804Y33432D01*
X74737Y33338D01*
X74683Y33258D01*
X74630Y33204D01*
X74616Y33164D01*
X74603Y33151D01*
X75272Y31986D01*
X75326Y32053D01*
X75379Y32120D01*
X75487Y32280D01*
X75527Y32348D01*
X75567Y32414D01*
X75594Y32455D01*
X75607Y32468D01*
X75674Y32562D01*
X75728Y32642D01*
X75768Y32696D01*
X75795Y32749D01*
X75835Y32803D01*
X75848Y32816D01*
X76022Y32990D01*
X76196Y33124D01*
X76263Y33178D01*
X76330Y33218D01*
X76370Y33231D01*
X76384Y33245D01*
X76504Y33298D01*
X76585Y33338D01*
X76638Y33365D01*
X76652D01*
X76692Y33378D01*
X76745Y33392D01*
X76785Y33405D01*
X76799D01*
X76759Y33499D01*
X76732Y33579D01*
X76718Y33633D01*
Y33646D01*
X76705Y33700D01*
X76692Y33753D01*
X76678Y33780D01*
Y33794D01*
X76665Y33994D01*
X76678Y34195D01*
X76692Y34276D01*
Y34343D01*
X76705Y34396D01*
Y34409D01*
X76732Y34463D01*
Y34503D01*
X76745Y34517D01*
Y34584D01*
X76759Y34624D01*
X76772Y34664D01*
X76785Y34677D01*
X76852Y34838D01*
X76933Y34972D01*
X76973Y35026D01*
X77000Y35066D01*
X77013Y35079D01*
X77026Y35092D01*
X77067Y35119D01*
X77120Y35146D01*
X77174Y35159D01*
X77187Y35173D01*
D02*
G37*
G36*
X76598Y33004D02*
X76571Y32990D01*
X76558D01*
X76531Y32977D01*
X76518Y32963D01*
X76424Y32910D01*
X76330Y32856D01*
X76263Y32803D01*
X76210Y32749D01*
X76129Y32669D01*
X76103Y32655D01*
Y32642D01*
X76076Y32602D01*
X76036Y32548D01*
X75955Y32441D01*
X75928Y32388D01*
X75902Y32348D01*
X75875Y32321D01*
Y32307D01*
X75888Y32267D01*
X75928Y32214D01*
X75982Y32147D01*
X76036Y32093D01*
X76103Y32039D01*
X76156Y31986D01*
X76196Y31959D01*
X76210Y31946D01*
X76223Y31932D01*
X76236D01*
Y31919D01*
X76250Y31906D01*
X76317Y31865D01*
X76370Y31852D01*
X76411D01*
X76424D01*
X76491Y31865D01*
X76571Y31879D01*
X76652Y31892D01*
X76665Y31906D01*
X76678D01*
X76692D01*
Y31919D01*
X76718Y31946D01*
X76745Y31986D01*
X76772Y32093D01*
Y32147D01*
X76785Y32200D01*
Y32240D01*
X76772Y32455D01*
X76759Y32548D01*
X76732Y32642D01*
X76718Y32709D01*
X76705Y32763D01*
X76692Y32789D01*
Y32803D01*
X76665Y32883D01*
X76625Y32937D01*
X76611Y32990D01*
X76598Y33004D01*
D02*
G37*
G36*
X70425Y38520D02*
X63918Y34771D01*
Y34758D01*
X63770Y34664D01*
X63636Y34543D01*
X63556Y34463D01*
X63543Y34436D01*
X63529Y34423D01*
X63516Y34409D01*
X63503Y34383D01*
X63489Y34356D01*
Y34343D01*
X63436Y34235D01*
X63395Y34128D01*
X63342Y33941D01*
Y33860D01*
X63328Y33807D01*
Y33753D01*
X63342Y33593D01*
X63382Y33445D01*
X63422Y33312D01*
X63476Y33204D01*
X63543Y33111D01*
X63583Y33030D01*
X63623Y32990D01*
X63636Y32977D01*
X63677Y32937D01*
X63717Y32896D01*
X63744Y32870D01*
X63757Y32856D01*
X63810Y32816D01*
X63864Y32789D01*
X63891Y32763D01*
X63904D01*
X68631Y30031D01*
X69019Y30968D01*
X69073Y31116D01*
X69113Y31263D01*
X69140Y31397D01*
X69153Y31531D01*
X69166Y31638D01*
X69180Y31718D01*
Y32120D01*
X69166Y32267D01*
Y32508D01*
X69153Y32588D01*
Y32883D01*
X69140Y32963D01*
Y33017D01*
X69126Y33070D01*
Y33365D01*
X69140Y33633D01*
X69166Y33874D01*
X69207Y34088D01*
X69233Y34249D01*
X69274Y34383D01*
X69287Y34463D01*
X69300Y34477D01*
Y34490D01*
X69394Y34704D01*
X69501Y34932D01*
X69622Y35159D01*
X69742Y35360D01*
X69863Y35534D01*
X69943Y35668D01*
X69983Y35722D01*
X70010Y35762D01*
X70037Y35775D01*
Y35789D01*
X70064Y35829D01*
X70104Y35882D01*
X70184Y36016D01*
X70224Y36083D01*
X70251Y36123D01*
X70265Y36164D01*
X70278Y36177D01*
X70318Y36231D01*
X70345Y36284D01*
X70358Y36324D01*
X70372Y36338D01*
X70425Y36418D01*
X70438Y36431D01*
Y36445D01*
X70572Y36632D01*
X70679Y36780D01*
X70720Y36833D01*
X70746Y36873D01*
X70760Y36900D01*
X70773Y36913D01*
X70854Y37007D01*
X70921Y37088D01*
X71028Y37208D01*
X71108Y37275D01*
X71121Y37302D01*
X71135D01*
X70425Y38520D01*
D02*
G37*
G36*
X71282Y37021D02*
X71175Y36913D01*
X71095Y36820D01*
X71041Y36753D01*
X71014Y36726D01*
X70894Y36565D01*
X70800Y36418D01*
X70760Y36364D01*
X70733Y36324D01*
X70706Y36298D01*
Y36284D01*
X70666Y36217D01*
X70626Y36150D01*
X70586Y36070D01*
X70559Y36043D01*
X70546Y36030D01*
X70492Y35923D01*
X70438Y35842D01*
X70398Y35762D01*
X70358Y35708D01*
X70331Y35668D01*
X70305Y35641D01*
X70291Y35615D01*
X70117Y35360D01*
X69970Y35133D01*
X69849Y34918D01*
X69756Y34744D01*
X69675Y34597D01*
X69635Y34490D01*
X69608Y34423D01*
X69595Y34396D01*
X69541Y34182D01*
X69501Y33968D01*
X69475Y33753D01*
X69461Y33539D01*
X69448Y33365D01*
Y32896D01*
X69461Y32816D01*
Y32682D01*
X69488Y32348D01*
Y32187D01*
X69501Y32053D01*
Y31758D01*
X69488Y31584D01*
X69461Y31410D01*
X69434Y31263D01*
X69394Y31116D01*
X69354Y31008D01*
X69327Y30928D01*
X69314Y30861D01*
X69300Y30848D01*
X68899Y29870D01*
X71657Y28277D01*
X71724Y28357D01*
X71777Y28424D01*
X71831Y28478D01*
X71845Y28491D01*
X71992Y28625D01*
X72152Y28732D01*
X72219Y28772D01*
X72260Y28813D01*
X72300Y28826D01*
X72313Y28839D01*
X72394Y28893D01*
X72487Y28933D01*
X72675Y29013D01*
X72768Y29054D01*
X72822Y29067D01*
X72875Y29094D01*
X72889D01*
X73023Y29147D01*
X73143Y29187D01*
X73237Y29228D01*
X73304Y29268D01*
X73358Y29294D01*
X73398Y29321D01*
X73411Y29335D01*
X73425D01*
X73491Y29388D01*
X73558Y29428D01*
X73599Y29469D01*
X73612Y29482D01*
X73706Y29562D01*
X73773Y29629D01*
X73813Y29683D01*
X73826Y29696D01*
X73960Y29830D01*
X74094Y29964D01*
X74295Y30218D01*
X74469Y30446D01*
X74589Y30634D01*
X74670Y30794D01*
X74723Y30915D01*
X74750Y30995D01*
X74764Y31008D01*
Y31022D01*
X71282Y37021D01*
D02*
G37*
G36*
X74964Y30674D02*
X74857Y30459D01*
X74710Y30259D01*
X74563Y30044D01*
X74415Y29870D01*
X74268Y29710D01*
X74161Y29576D01*
X74081Y29495D01*
X74067Y29482D01*
X74054Y29469D01*
X73974Y29402D01*
X73893Y29321D01*
X73840Y29268D01*
X73813Y29241D01*
X73746Y29187D01*
X73665Y29134D01*
X73612Y29094D01*
X73599Y29080D01*
X73518Y29027D01*
X73425Y28973D01*
X73224Y28893D01*
X73130Y28853D01*
X73063Y28826D01*
X73009Y28799D01*
X72996D01*
X72862Y28745D01*
X72755Y28705D01*
X72661Y28679D01*
X72594Y28638D01*
X72541Y28612D01*
X72501Y28598D01*
X72474Y28585D01*
X72380Y28518D01*
X72286Y28451D01*
X72219Y28411D01*
X72166Y28357D01*
X72085Y28304D01*
X72059Y28277D01*
X71978Y28183D01*
X71952Y28143D01*
X71938Y28130D01*
Y28116D01*
X77683Y24795D01*
X77696D01*
X77857Y24715D01*
X78017Y24662D01*
X78084Y24648D01*
X78138Y24635D01*
X78165D01*
X78178D01*
X78245D01*
X78258D01*
X78272D01*
X78352D01*
X78419D01*
X78446Y24648D01*
X78459D01*
X74964Y30674D01*
D02*
G37*
%LPD*%
D10*
X145669Y94488D02*
X194882D01*
X145669Y196850D02*
X194882D01*
Y94488D02*
Y196850D01*
X145669Y94488D02*
Y196850D01*
X223410Y73927D02*
Y69928D01*
X221410Y67929D01*
X219411Y69928D01*
Y73927D01*
X213413Y72927D02*
X214412Y73927D01*
X216412D01*
X217411Y72927D01*
Y68929D01*
X216412Y67929D01*
X214412D01*
X213413Y68929D01*
X207415Y72927D02*
X208414Y73927D01*
X210414D01*
X211413Y72927D01*
Y68929D01*
X210414Y67929D01*
X208414D01*
X207415Y68929D01*
X205415Y67929D02*
Y73927D01*
X201417Y67929D01*
Y73927D01*
X219411Y80801D02*
X220410Y81801D01*
X222410D01*
X223410Y80801D01*
Y76803D01*
X222410Y75803D01*
X220410D01*
X219411Y76803D01*
Y78802D01*
X221410D01*
X217411Y75803D02*
Y81801D01*
X213413Y75803D01*
Y81801D01*
X211413D02*
Y75803D01*
X208414D01*
X207415Y76803D01*
Y80801D01*
X208414Y81801D01*
X211413D01*
X211537Y61116D02*
X212536Y62116D01*
X214536D01*
X215535Y61116D01*
Y57118D01*
X214536Y56118D01*
X212536D01*
X211537Y57118D01*
Y59117D01*
X213536D01*
X209537Y56118D02*
Y62116D01*
X205539Y56118D01*
Y62116D01*
X203539D02*
Y56118D01*
X200540D01*
X199541Y57118D01*
Y61116D01*
X200540Y62116D01*
X203539D01*
X211598Y30620D02*
Y26621D01*
X209599Y24622D01*
X207600Y26621D01*
Y30620D01*
X201602Y29620D02*
X202601Y30620D01*
X204601D01*
X205600Y29620D01*
Y25622D01*
X204601Y24622D01*
X202601D01*
X201602Y25622D01*
X195604Y29620D02*
X196603Y30620D01*
X198603D01*
X199602Y29620D01*
Y25622D01*
X198603Y24622D01*
X196603D01*
X195604Y25622D01*
X193604Y24622D02*
Y30620D01*
X189605Y24622D01*
Y30620D01*
X219411Y214660D02*
X220410Y215659D01*
X222410D01*
X223410Y214660D01*
Y210661D01*
X222410Y209661D01*
X220410D01*
X219411Y210661D01*
Y212660D01*
X221410D01*
X217411Y209661D02*
Y215659D01*
X213413Y209661D01*
Y215659D01*
X211413D02*
Y209661D01*
X208414D01*
X207415Y210661D01*
Y214660D01*
X208414Y215659D01*
X211413D01*
X223410Y223534D02*
Y219535D01*
X221410Y217535D01*
X219411Y219535D01*
Y223534D01*
X213413Y222534D02*
X214412Y223534D01*
X216412D01*
X217411Y222534D01*
Y218535D01*
X216412Y217535D01*
X214412D01*
X213413Y218535D01*
X207415Y222534D02*
X208414Y223534D01*
X210414D01*
X211413Y222534D01*
Y218535D01*
X210414Y217535D01*
X208414D01*
X207415Y218535D01*
X205415Y217535D02*
Y223534D01*
X202416D01*
X201417Y222534D01*
Y220534D01*
X202416Y219535D01*
X205415D01*
X211598Y262904D02*
Y258905D01*
X209599Y256906D01*
X207600Y258905D01*
Y262904D01*
X201602Y261904D02*
X202601Y262904D01*
X204601D01*
X205600Y261904D01*
Y257905D01*
X204601Y256906D01*
X202601D01*
X201602Y257905D01*
X195604Y261904D02*
X196603Y262904D01*
X198603D01*
X199602Y261904D01*
Y257905D01*
X198603Y256906D01*
X196603D01*
X195604Y257905D01*
X193604Y256906D02*
Y262904D01*
X190605D01*
X189605Y261904D01*
Y259905D01*
X190605Y258905D01*
X193604D01*
X212521Y232376D02*
X213521Y233376D01*
X215520D01*
X216520Y232376D01*
Y228378D01*
X215520Y227378D01*
X213521D01*
X212521Y228378D01*
Y230377D01*
X214520D01*
X210522Y227378D02*
Y233376D01*
X206523Y227378D01*
Y233376D01*
X204524D02*
Y227378D01*
X201524D01*
X200525Y228378D01*
Y232376D01*
X201524Y233376D01*
X204524D01*
X107372Y207529D02*
X113370D01*
Y203530D01*
X107372Y201531D02*
X113370D01*
Y198532D01*
X112370Y197532D01*
X108372D01*
X107372Y198532D01*
Y201531D01*
X108372Y185536D02*
X107372Y186536D01*
Y188535D01*
X108372Y189535D01*
X109371D01*
X110371Y188535D01*
Y186536D01*
X111371Y185536D01*
X112370D01*
X113370Y186536D01*
Y188535D01*
X112370Y189535D01*
X107372Y183537D02*
Y179538D01*
Y181537D01*
X113370D01*
Y177539D02*
X109371D01*
X107372Y175539D01*
X109371Y173540D01*
X113370D01*
X110371D01*
Y177539D01*
X113370Y171541D02*
X107372D01*
X113370Y167542D01*
X107372D01*
Y165543D02*
Y161544D01*
Y163543D01*
X113370D01*
X107372Y156545D02*
Y158545D01*
X108372Y159545D01*
X112370D01*
X113370Y158545D01*
Y156545D01*
X112370Y155546D01*
X108372D01*
X107372Y156545D01*
X113370Y153546D02*
X107372D01*
X113370Y149548D01*
X107372D01*
X121244Y207529D02*
X117245D01*
X115246Y205530D01*
X117245Y203530D01*
X121244D01*
X118245D01*
Y207529D01*
X121244Y201531D02*
X115246D01*
Y198532D01*
X116246Y197532D01*
X118245D01*
X119245Y198532D01*
Y201531D01*
X121244Y195533D02*
X115246D01*
Y192534D01*
X116246Y191534D01*
X118245D01*
X119245Y192534D01*
Y195533D01*
Y193534D02*
X121244Y191534D01*
X115246Y189535D02*
Y187535D01*
Y188535D01*
X121244D01*
Y189535D01*
Y187535D01*
X115246Y184536D02*
X121244D01*
Y180538D01*
Y168542D02*
Y172540D01*
X117245Y168542D01*
X116246D01*
X115246Y169541D01*
Y171541D01*
X116246Y172540D01*
Y166542D02*
X115246Y165543D01*
Y163543D01*
X116246Y162543D01*
X120244D01*
X121244Y163543D01*
Y165543D01*
X120244Y166542D01*
X116246D01*
X121244Y156545D02*
Y160544D01*
X117245Y156545D01*
X116246D01*
X115246Y157545D01*
Y159545D01*
X116246Y160544D01*
X121244Y154546D02*
Y152547D01*
Y153546D01*
X115246D01*
X116246Y154546D01*
D14*
X155512Y120079D02*
X194882D01*
X155512Y143701D02*
X194882D01*
X155512Y167323D02*
X194882D01*
X199134Y64961D02*
X226378D01*
X195945Y61772D02*
X199134Y64961D01*
X223425Y225394D02*
X226378D01*
X195945Y229567D02*
X200118Y225394D01*
X223425D01*
X175945Y81772D02*
X195945D01*
X175945Y61772D02*
X195945D01*
X175945D02*
Y81772D01*
X195945Y61772D02*
Y81772D01*
X175945Y229567D02*
X195945D01*
X175945Y209567D02*
X195945D01*
X175945D02*
Y229567D01*
X195945Y209567D02*
Y229567D01*
X226496Y34764D02*
Y54764D01*
X176496D02*
X226496D01*
X176496Y34764D02*
Y54764D01*
Y34764D02*
X226496D01*
X176496Y234606D02*
Y254606D01*
Y234606D02*
X226496D01*
Y254606D01*
X176496D02*
X226496D01*
D101*
X224716Y109436D02*
X227916D01*
X229515Y107837D01*
X227916Y106237D01*
X224716D01*
X225516Y101439D02*
X224716Y102239D01*
Y103838D01*
X225516Y104638D01*
X228715D01*
X229515Y103838D01*
Y102239D01*
X228715Y101439D01*
X225516Y96640D02*
X224716Y97440D01*
Y99040D01*
X225516Y99839D01*
X228715D01*
X229515Y99040D01*
Y97440D01*
X228715Y96640D01*
X229515Y95041D02*
X224716D01*
X229515Y91842D01*
X224716D01*
Y196050D02*
X227916D01*
X229515Y194451D01*
X227916Y192851D01*
X224716D01*
X225516Y188053D02*
X224716Y188853D01*
Y190452D01*
X225516Y191252D01*
X228715D01*
X229515Y190452D01*
Y188853D01*
X228715Y188053D01*
X225516Y183255D02*
X224716Y184054D01*
Y185654D01*
X225516Y186453D01*
X228715D01*
X229515Y185654D01*
Y184054D01*
X228715Y183255D01*
X229515Y181655D02*
X224716D01*
Y179256D01*
X225516Y178456D01*
X227116D01*
X227916Y179256D01*
Y181655D01*
X225516Y127891D02*
X224716Y128691D01*
Y130290D01*
X225516Y131090D01*
X228715D01*
X229515Y130290D01*
Y128691D01*
X228715Y127891D01*
X227116D01*
Y129490D01*
X229515Y126291D02*
X224716D01*
X229515Y123092D01*
X224716D01*
Y121493D02*
X229515D01*
Y119094D01*
X228715Y118294D01*
X225516D01*
X224716Y119094D01*
Y121493D01*
X225516Y167261D02*
X224716Y168061D01*
Y169660D01*
X225516Y170460D01*
X228715D01*
X229515Y169660D01*
Y168061D01*
X228715Y167261D01*
X227116D01*
Y168860D01*
X229515Y165661D02*
X224716D01*
X229515Y162462D01*
X224716D01*
Y160863D02*
X229515D01*
Y158464D01*
X228715Y157664D01*
X225516D01*
X224716Y158464D01*
Y160863D01*
X224716Y145607D02*
Y148806D01*
X227116D01*
X226316Y147207D01*
Y146407D01*
X227116Y145607D01*
X228715D01*
X229515Y146407D01*
Y148007D01*
X228715Y148806D01*
X224716Y144008D02*
X227916D01*
X229515Y142408D01*
X227916Y140809D01*
X224716D01*
X207861Y186577D02*
X206262Y188176D01*
X204662D01*
X203063Y186577D01*
X203863Y180979D02*
X203063Y181779D01*
Y183378D01*
X203863Y184178D01*
X207062D01*
X207861Y183378D01*
Y181779D01*
X207062Y180979D01*
X207861Y179379D02*
X206262Y177780D01*
X204662D01*
X203063Y179379D01*
Y170582D02*
X207861D01*
Y167383D01*
X203063Y165784D02*
X207861D01*
Y163384D01*
X207062Y162585D01*
X203863D01*
X203063Y163384D01*
Y165784D01*
X203863Y152988D02*
X203063Y153788D01*
Y155387D01*
X203863Y156187D01*
X204662D01*
X205462Y155387D01*
Y153788D01*
X206262Y152988D01*
X207062D01*
X207861Y153788D01*
Y155387D01*
X207062Y156187D01*
X203063Y151388D02*
Y148189D01*
Y149789D01*
X207861D01*
Y146590D02*
X204662D01*
X203063Y144990D01*
X204662Y143391D01*
X207861D01*
X205462D01*
Y146590D01*
X207861Y141791D02*
X203063D01*
X207861Y138592D01*
X203063D01*
Y136993D02*
Y133794D01*
Y135393D01*
X207861D01*
X203063Y129795D02*
Y131395D01*
X203863Y132194D01*
X207062D01*
X207861Y131395D01*
Y129795D01*
X207062Y128996D01*
X203863D01*
X203063Y129795D01*
X207861Y127396D02*
X203063D01*
X207861Y124197D01*
X203063D01*
X207861Y114600D02*
Y117799D01*
X204662Y114600D01*
X203863D01*
X203063Y115400D01*
Y116999D01*
X203863Y117799D01*
Y113001D02*
X203063Y112201D01*
Y110601D01*
X203863Y109802D01*
X207062D01*
X207861Y110601D01*
Y112201D01*
X207062Y113001D01*
X203863D01*
X207861Y105003D02*
Y108202D01*
X204662Y105003D01*
X203863D01*
X203063Y105803D01*
Y107403D01*
X203863Y108202D01*
X207861Y103404D02*
Y101804D01*
Y102604D01*
X203063D01*
X203863Y103404D01*
X184239Y162586D02*
Y160986D01*
Y161786D01*
X179441D01*
X180241Y162586D01*
X179441Y158587D02*
X182640D01*
X184239Y156988D01*
X182640Y155388D01*
X179441D01*
X184239Y150590D02*
Y153789D01*
X181040Y150590D01*
X180241D01*
X179441Y151390D01*
Y152989D01*
X180241Y153789D01*
X184239Y115342D02*
Y113742D01*
Y114542D01*
X179441D01*
X180241Y115342D01*
Y111343D02*
X179441Y110543D01*
Y108944D01*
X180241Y108144D01*
X183440D01*
X184239Y108944D01*
Y110543D01*
X183440Y111343D01*
X180241D01*
X179441Y106545D02*
X182640D01*
X184239Y104945D01*
X182640Y103346D01*
X179441D01*
Y98547D02*
Y101746D01*
X181840D01*
X181040Y100147D01*
Y99347D01*
X181840Y98547D01*
X183440D01*
X184239Y99347D01*
Y100946D01*
X183440Y101746D01*
X192113Y112943D02*
X187315D01*
X189714Y115342D01*
Y112143D01*
X188115Y110543D02*
X187315Y109744D01*
Y108144D01*
X188115Y107344D01*
X191314D01*
X192113Y108144D01*
Y109744D01*
X191314Y110543D01*
X188115D01*
X192113Y105745D02*
X188914D01*
Y104945D01*
X189714Y104145D01*
X192113D01*
X189714D01*
X188914Y103346D01*
X189714Y102546D01*
X192113D01*
Y100946D02*
X188914D01*
X187315Y99347D01*
X188914Y97747D01*
X192113D01*
X189714D01*
Y100946D01*
X187315Y194082D02*
Y192482D01*
Y193282D01*
X192113D01*
Y194082D01*
Y192482D01*
Y185285D02*
X187315D01*
Y182886D01*
X188115Y182086D01*
X189714D01*
X190514Y182886D01*
Y185285D01*
Y183685D02*
X192113Y182086D01*
X187315Y177287D02*
Y180486D01*
X192113D01*
Y177287D01*
X189714Y180486D02*
Y178887D01*
X188115Y172489D02*
X187315Y173289D01*
Y174888D01*
X188115Y175688D01*
X191314D01*
X192113Y174888D01*
Y173289D01*
X191314Y172489D01*
X189714D01*
Y174088D01*
X179441Y194082D02*
X182640D01*
X184239Y192482D01*
X182640Y190883D01*
X179441D01*
X184239Y184485D02*
X179441D01*
Y182086D01*
X180241Y181286D01*
X181840D01*
X182640Y182086D01*
Y184485D01*
Y182886D02*
X184239Y181286D01*
X179441Y176488D02*
Y179686D01*
X184239D01*
Y176488D01*
X181840Y179686D02*
Y178087D01*
X180241Y171689D02*
X179441Y172489D01*
Y174088D01*
X180241Y174888D01*
X183440D01*
X184239Y174088D01*
Y172489D01*
X183440Y171689D01*
X181840D01*
Y173289D01*
X171567Y135765D02*
Y138964D01*
X173966D01*
X173166Y137364D01*
Y136565D01*
X173966Y135765D01*
X175566D01*
X176365Y136565D01*
Y138164D01*
X175566Y138964D01*
X171567Y134165D02*
X176365D01*
X174766Y132566D01*
X176365Y130966D01*
X171567D01*
X176365Y194082D02*
X171567D01*
Y191683D01*
X172367Y190883D01*
X173966D01*
X174766Y191683D01*
Y194082D01*
X171567Y184485D02*
X175566D01*
X176365Y183685D01*
Y182086D01*
X175566Y181286D01*
X171567D01*
X172367Y176488D02*
X171567Y177287D01*
Y178887D01*
X172367Y179686D01*
X173166D01*
X173966Y178887D01*
Y177287D01*
X174766Y176488D01*
X175566D01*
X176365Y177287D01*
Y178887D01*
X175566Y179686D01*
X171567Y174888D02*
X176365D01*
Y172489D01*
X175566Y171689D01*
X174766D01*
X173966Y172489D01*
Y174888D01*
Y172489D01*
X173166Y171689D01*
X172367D01*
X171567Y172489D01*
Y174888D01*
X163693Y135765D02*
Y138964D01*
X166092D01*
X165292Y137364D01*
Y136565D01*
X166092Y135765D01*
X167692D01*
X168491Y136565D01*
Y138164D01*
X167692Y138964D01*
X163693Y134165D02*
X166892D01*
X168491Y132566D01*
X166892Y130966D01*
X163693D01*
X164493Y129367D02*
X163693Y128567D01*
Y126968D01*
X164493Y126168D01*
X167692D01*
X168491Y126968D01*
Y128567D01*
X167692Y129367D01*
X164493D01*
X168491Y160187D02*
X163693D01*
X166092Y162586D01*
Y159387D01*
X163693Y157787D02*
X166892D01*
X168491Y156188D01*
X166892Y154588D01*
X163693D01*
Y149790D02*
X164493Y151390D01*
X166092Y152989D01*
X167692D01*
X168491Y152189D01*
Y150590D01*
X167692Y149790D01*
X166892D01*
X166092Y150590D01*
Y152989D01*
X163693Y194082D02*
X166892D01*
X168491Y192482D01*
X166892Y190883D01*
X163693D01*
Y184485D02*
X167692D01*
X168491Y183685D01*
Y182086D01*
X167692Y181286D01*
X163693D01*
X164493Y176488D02*
X163693Y177287D01*
Y178887D01*
X164493Y179686D01*
X165292D01*
X166092Y178887D01*
Y177287D01*
X166892Y176488D01*
X167692D01*
X168491Y177287D01*
Y178887D01*
X167692Y179686D01*
X163693Y174888D02*
X168491D01*
Y172489D01*
X167692Y171689D01*
X166892D01*
X166092Y172489D01*
Y174888D01*
Y172489D01*
X165292Y171689D01*
X164493D01*
X163693Y172489D01*
Y174888D01*
X160617Y115342D02*
X155819D01*
X157418Y113742D01*
X155819Y112143D01*
X160617D01*
Y110543D02*
X157418D01*
X155819Y108944D01*
X157418Y107344D01*
X160617D01*
X158218D01*
Y110543D01*
X155819Y105745D02*
X160617Y102546D01*
X155819D02*
X160617Y105745D01*
Y138964D02*
X155819D01*
X160617Y135765D01*
X155819D01*
Y131766D02*
Y133366D01*
X156619Y134165D01*
X159818D01*
X160617Y133366D01*
Y131766D01*
X159818Y130966D01*
X156619D01*
X155819Y131766D01*
X160617Y129367D02*
X155819D01*
X157418Y127767D01*
X155819Y126168D01*
X160617D01*
Y162586D02*
X155819D01*
X157418Y160986D01*
X155819Y159387D01*
X160617D01*
X155819Y157787D02*
Y156188D01*
Y156988D01*
X160617D01*
Y157787D01*
Y156188D01*
Y153789D02*
X155819D01*
X160617Y150590D01*
X155819D01*
X160617Y194082D02*
X155819D01*
Y191683D01*
X156619Y190883D01*
X158218D01*
X159018Y191683D01*
Y194082D01*
X160617Y189283D02*
X157418D01*
X155819Y187684D01*
X157418Y186084D01*
X160617D01*
X158218D01*
Y189283D01*
X160617Y184485D02*
X155819D01*
Y182086D01*
X156619Y181286D01*
X158218D01*
X159018Y182086D01*
Y184485D01*
Y182886D02*
X160617Y181286D01*
Y179686D02*
X157418D01*
X155819Y178087D01*
X157418Y176488D01*
X160617D01*
X158218D01*
Y179686D01*
X160617Y174888D02*
X155819D01*
X157418Y173289D01*
X155819Y171689D01*
X160617D01*
X148745Y177103D02*
X147945Y177903D01*
Y179503D01*
X148745Y180302D01*
X149544D01*
X150344Y179503D01*
Y177903D01*
X151144Y177103D01*
X151944D01*
X152743Y177903D01*
Y179503D01*
X151944Y180302D01*
X152743Y175504D02*
X147945D01*
Y173105D01*
X148745Y172305D01*
X150344D01*
X151144Y173105D01*
Y175504D01*
X147945Y167507D02*
Y170705D01*
X152743D01*
Y167507D01*
X150344Y170705D02*
Y169106D01*
X148745Y162708D02*
X147945Y163508D01*
Y165107D01*
X148745Y165907D01*
X151944D01*
X152743Y165107D01*
Y163508D01*
X151944Y162708D01*
X147945Y161109D02*
Y159509D01*
Y160309D01*
X152743D01*
Y161109D01*
Y159509D01*
X147945Y153911D02*
Y157110D01*
X150344D01*
Y155510D01*
Y157110D01*
X152743D01*
X147945Y152311D02*
Y150712D01*
Y151512D01*
X152743D01*
Y152311D01*
Y150712D01*
X148745Y145114D02*
X147945Y145914D01*
Y147513D01*
X148745Y148313D01*
X151944D01*
X152743Y147513D01*
Y145914D01*
X151944Y145114D01*
X152743Y143514D02*
X149544D01*
X147945Y141915D01*
X149544Y140315D01*
X152743D01*
X150344D01*
Y143514D01*
X147945Y138716D02*
Y135517D01*
Y137116D01*
X152743D01*
X147945Y133917D02*
Y132318D01*
Y133118D01*
X152743D01*
Y133917D01*
Y132318D01*
X147945Y127519D02*
Y129119D01*
X148745Y129919D01*
X151944D01*
X152743Y129119D01*
Y127519D01*
X151944Y126720D01*
X148745D01*
X147945Y127519D01*
X152743Y125120D02*
X147945D01*
X152743Y121921D01*
X147945D01*
X148745Y117123D02*
X147945Y117922D01*
Y119522D01*
X148745Y120322D01*
X149544D01*
X150344Y119522D01*
Y117922D01*
X151144Y117123D01*
X151944D01*
X152743Y117922D01*
Y119522D01*
X151944Y120322D01*
X129256Y204530D02*
X128457Y205330D01*
Y206929D01*
X129256Y207729D01*
X132455D01*
X133255Y206929D01*
Y205330D01*
X132455Y204530D01*
X130856D01*
Y206130D01*
X128457Y202930D02*
Y201331D01*
Y202131D01*
X133255D01*
Y202930D01*
Y201331D01*
X128457Y198932D02*
Y195733D01*
Y197332D01*
X133255D01*
X128457Y194133D02*
X133255D01*
X130856D01*
Y190934D01*
X128457D01*
X133255D01*
X128457Y189335D02*
X132455D01*
X133255Y188535D01*
Y186936D01*
X132455Y186136D01*
X128457D01*
Y184537D02*
X133255D01*
Y182137D01*
X132455Y181337D01*
X131656D01*
X130856Y182137D01*
Y184537D01*
Y182137D01*
X130056Y181337D01*
X129256D01*
X128457Y182137D01*
Y184537D01*
X133255Y179738D02*
X132455D01*
Y178938D01*
X133255D01*
Y179738D01*
X129256Y172540D02*
X128457Y173340D01*
Y174940D01*
X129256Y175739D01*
X132455D01*
X133255Y174940D01*
Y173340D01*
X132455Y172540D01*
X128457Y168542D02*
Y170141D01*
X129256Y170941D01*
X132455D01*
X133255Y170141D01*
Y168542D01*
X132455Y167742D01*
X129256D01*
X128457Y168542D01*
X133255Y166142D02*
X128457D01*
X130056Y164543D01*
X128457Y162943D01*
X133255D01*
Y161344D02*
X130056Y158145D01*
X128457Y156545D02*
X133255D01*
Y153347D01*
Y151747D02*
X130056D01*
X128457Y150148D01*
X130056Y148548D01*
X133255D01*
X130856D01*
Y151747D01*
X128457Y146949D02*
X133255D01*
X131656Y145349D01*
X133255Y143750D01*
X128457D01*
X133255Y142150D02*
X128457D01*
Y139751D01*
X129256Y138951D01*
X130856D01*
X131656Y139751D01*
Y142150D01*
Y140551D02*
X133255Y138951D01*
X128457Y134153D02*
Y137352D01*
X133255D01*
Y134153D01*
X130856Y137352D02*
Y135752D01*
X133255Y132553D02*
X128457D01*
X133255Y129354D01*
X128457D01*
X129256Y124556D02*
X128457Y125356D01*
Y126955D01*
X129256Y127755D01*
X132455D01*
X133255Y126955D01*
Y125356D01*
X132455Y124556D01*
X128457Y119757D02*
Y122956D01*
X133255D01*
Y119757D01*
X130856Y122956D02*
Y121357D01*
X129256Y114959D02*
X128457Y115759D01*
Y117358D01*
X129256Y118158D01*
X130056D01*
X130856Y117358D01*
Y115759D01*
X131656Y114959D01*
X132455D01*
X133255Y115759D01*
Y117358D01*
X132455Y118158D01*
X128457Y113359D02*
Y110161D01*
Y111760D01*
X133255D01*
Y108561D02*
X130056D01*
X128457Y106962D01*
X130056Y105362D01*
X133255D01*
X130856D01*
Y108561D01*
X133255Y103763D02*
X128457D01*
X133255Y100564D01*
X128457D01*
Y98964D02*
Y95765D01*
Y97365D01*
X133255D01*
X128457Y91766D02*
Y93366D01*
X129256Y94166D01*
X132455D01*
X133255Y93366D01*
Y91766D01*
X132455Y90967D01*
X129256D01*
X128457Y91766D01*
X133255Y89367D02*
X128457D01*
X133255Y86168D01*
X128457D01*
X133255Y84569D02*
X130056Y81370D01*
D102*
X66712Y106268D02*
X74710D01*
X78709Y102269D01*
X74710Y98270D01*
X66712D01*
X78709Y94272D02*
Y90273D01*
Y92272D01*
X66712D01*
X68712Y94272D01*
X78709Y84275D02*
X76709D01*
Y82275D01*
X78709D01*
Y84275D01*
X68712Y74278D02*
X66712Y72279D01*
Y68280D01*
X68712Y66281D01*
X76709D01*
X78709Y68280D01*
Y72279D01*
X76709Y74278D01*
X68712D01*
X88563Y240126D02*
X98560D01*
X100559Y238127D01*
Y234128D01*
X98560Y232129D01*
X88563D01*
X90562Y220132D02*
X88563Y222132D01*
Y226131D01*
X90562Y228130D01*
X92562D01*
X94561Y226131D01*
Y222132D01*
X96560Y220132D01*
X98560D01*
X100559Y222132D01*
Y226131D01*
X98560Y228130D01*
X88563Y216134D02*
X100559D01*
Y210136D01*
X98560Y208136D01*
X96560D01*
X94561Y210136D01*
Y216134D01*
Y210136D01*
X92562Y208136D01*
X90562D01*
X88563Y210136D01*
Y216134D01*
X90562Y184144D02*
X88563Y186143D01*
Y190142D01*
X90562Y192141D01*
X92562D01*
X94561Y190142D01*
Y186143D01*
X96560Y184144D01*
X98560D01*
X100559Y186143D01*
Y190142D01*
X98560Y192141D01*
X100559Y180145D02*
X88563D01*
Y174147D01*
X90562Y172148D01*
X94561D01*
X96560Y174147D01*
Y180145D01*
X88563Y168149D02*
X100559D01*
Y160152D01*
X88563Y156153D02*
Y152154D01*
Y154154D01*
X100559D01*
Y156153D01*
Y152154D01*
X88563Y146156D02*
Y138159D01*
Y142158D01*
X100559D01*
Y122164D02*
X88563D01*
Y116166D01*
X90562Y114167D01*
X94561D01*
X96560Y116166D01*
Y122164D01*
Y118165D02*
X100559Y114167D01*
Y110168D02*
X92562D01*
X88563Y106169D01*
X92562Y102171D01*
X100559D01*
X94561D01*
Y110168D01*
X88563Y98172D02*
Y94173D01*
Y96172D01*
X100559D01*
Y98172D01*
Y94173D01*
X88563Y88175D02*
X100559D01*
Y80178D01*
Y64183D02*
X88563D01*
Y58185D01*
X90562Y56186D01*
X94561D01*
X96560Y58185D01*
Y64183D01*
X90562Y44189D02*
X88563Y46189D01*
Y50187D01*
X90562Y52187D01*
X92562D01*
X94561Y50187D01*
Y46189D01*
X96560Y44189D01*
X98560D01*
X100559Y46189D01*
Y50187D01*
X98560Y52187D01*
X88563Y40191D02*
X98560D01*
X100559Y38191D01*
Y34193D01*
X98560Y32193D01*
X88563D01*
D103*
X64879Y227130D02*
X61880Y230129D01*
Y236127D01*
X64879Y239126D01*
X67878D01*
X70877Y236127D01*
Y230129D01*
X73876Y227130D01*
X76875D01*
X79874Y230129D01*
Y236127D01*
X76875Y239126D01*
X61880Y221132D02*
Y215134D01*
Y218133D01*
X79874D01*
Y221132D01*
Y215134D01*
X61880Y197140D02*
Y203138D01*
X64879Y206137D01*
X76875D01*
X79874Y203138D01*
Y197140D01*
X76875Y194141D01*
X64879D01*
X61880Y197140D01*
X79874Y176146D02*
Y188143D01*
X67878Y176146D01*
X64879D01*
X61880Y179145D01*
Y185143D01*
X64879Y188143D01*
X79874Y170148D02*
X61880D01*
X67878Y164150D01*
X61880Y158152D01*
X79874D01*
X61880Y152154D02*
X79874D01*
X73876D01*
X61880Y140158D01*
X70877Y149155D01*
X79874Y140158D01*
Y134160D02*
X61880D01*
Y125163D01*
X64879Y122164D01*
X70877D01*
X73876Y125163D01*
Y134160D01*
Y128162D02*
X79874Y122164D01*
M02*
