M48
;Layer_Color=9474304
;FILE_FORMAT=2:4
INCH,TZ
;TYPE=PLATED
T1F00S00C0.0197
T3F00S00C0.0315
T4F00S00C0.0315
T5F00S00C0.0354
T6F00S00C0.0354
T8F00S00C0.0360
T9F00S00C0.0433
T10F00S00C0.0472
;TYPE=NON_PLATED
T12F00S00C0.0276
T13F00S00C0.0310
T14F00S00C0.0454
T15F00S00C0.0454
%
T01
X3327Y4331
X5256Y4134
X5591Y5118
X5041Y5904
X4213Y6496
X5197Y8071
X6102Y9018
X7953
X8150Y8465
X7854Y5512
Y4930
X7756Y3563
X4508Y9402
X1654Y10772
X669Y12598
X2047Y14094
X2441Y13937
X3622Y13248
X5984Y15551
X7835
X10315Y14173
Y12205
X14070Y11806
X14547Y11319
X14843Y12205
Y14173
X17205Y10827
X22323Y10772
X21339Y12598
X22717Y14094
X23110Y13937
X24291Y13248
X26654Y15551
X28504
X30984Y14173
Y12205
X28622Y9018
X28819Y8465
X26772Y9018
X25866Y8071
X25177Y9402
X24882Y6496
X25710Y5904
X26260Y5118
X25925Y4134
X23996Y4331
X28524Y4930
Y5512
X28425Y3563
X35217Y11319
X34739Y11806
X35512Y12205
Y14173
X37874Y10827
X42992Y10772
X42008Y12598
X43386Y14094
X43780Y13937
X44961Y13248
X45846Y9402
X46535Y8071
X46380Y5904
X45551Y6496
X44665Y4331
X46594Y4134
X46929Y5118
X49193Y4930
Y5512
X49095Y3563
X49488Y8465
X49291Y9018
X47441
X47323Y15551
X49173
X51654Y14173
Y12205
X55408Y11806
X55886Y11319
X56181Y12205
Y14173
X58543Y10827
X63661Y10772
X62677Y12598
X64055Y14094
X64449Y13937
X65630Y13248
X67992Y15551
X69843
X72323Y14173
Y12205
X76077Y11806
X76555Y11319
X76850Y12205
Y14173
X69961Y9018
X70158Y8465
X68110Y9018
X67205Y8071
X66516Y9402
X66221Y6496
X67049Y5904
X67598Y5118
X67264Y4134
X65335Y4331
X69862Y4930
Y5512
X69764Y3563
X79213Y10827
X79016Y20591
X78228Y21535
X76850Y18504
X76850Y16535
X72323
X72323Y18504
X73831Y19803
X73425Y20787
X74705Y22421
X69055Y22388
X69045Y23386
X68663Y24372
X68661Y24802
X67087Y25039
X67677Y26811
X69843Y27244
X69764Y29547
X69862Y30915
X67598Y31102
X67264Y30118
X65335Y30315
X65061Y23404
X64055Y21260
X65236Y19882
X64832Y18630
X64082Y18630
X67913Y22388
X57559Y21535
X58346Y20591
X56181Y18504
X56181Y16535
X51654
X51654Y18504
X53161Y19803
X52756Y20787
X54035Y22421
X48386Y22388
X48376Y23386
X47994Y24372
X47992Y24802
X47008Y26811
X49173Y27244
X49095Y29547
X49193Y30915
X46929Y31102
X47244Y22388
X46417Y25039
X44392Y23404
X43386Y21260
X44567Y19882
X44163Y18630
X43413Y18630
X37677Y20591
X36890Y21535
X35512Y18504
X35512Y16535
X32492Y19803
X32087Y20787
X33366Y22421
X44665Y30315
X46594Y30118
X28425Y29547
X28524Y30915
X26260Y31102
X25925Y30118
X23996Y30315
X26339Y26811
X25748Y25039
X27323Y24802
X27324Y24372
X27707Y23386
X27717Y22388
X26575
X23722Y23404
X22717Y21260
X23898Y19882
X23493Y18630
X22744Y18630
X17008Y20591
X16220Y21535
X30984Y18504
X30984Y16535
X28504Y27244
X12697Y22421
X11417Y20787
X11823Y19803
X10315Y18504
X10315Y16535
X14843
X14843Y18504
X7047Y22388
X7037Y23386
X6655Y24372
X6654Y24802
X5079Y25039
X5669Y26811
X7835Y27244
X7756Y29547
X7854Y30915
X5591Y31102
X5256Y30118
X3327Y30315
X3053Y23404
X2047Y21260
X3228Y19882
X2824Y18630
X2075Y18630
X5906Y22388
X5041Y31888
X4213Y32480
X5197Y34055
X6102Y35002
X7953
X8150Y34449
X7854Y31496
X4508Y35386
X1654Y36756
X669Y38583
X2047Y40079
X2441Y39921
X3622Y39232
X5984Y41535
X7835
X10315Y42520
X10315Y44488
X11823Y45787
X11417Y46772
X14843Y44488
X14843Y42520
X14843Y40157
Y38189
X14070Y37790
X14547Y37303
X10315Y38189
Y40157
X2824Y44614
X2075Y44614
X3228Y45866
X17008Y46575
X23898Y45866
X23493Y44614
X22744Y44614
X22717Y40079
X23110Y39921
X24291Y39232
X21339Y38583
X22323Y36756
X25177Y35386
X26772Y35002
X28622
X28819Y34449
X28524Y31496
X25710Y31888
X24882Y32480
X25866Y34055
X26654Y41535
X28504
X30984Y42520
X30984Y44488
X30984Y40157
Y38189
X17205Y36811
X35217Y37303
X34739Y37790
X35512Y38189
Y40157
X35512Y42520
X35512Y44488
X37677Y46575
X32087Y46772
X32492Y45787
X43413Y44614
X44163Y44614
X44567Y45866
X43780Y39921
X43386Y40079
X44961Y39232
X42008Y38583
X42992Y36756
X45846Y35386
X46535Y34055
X46380Y31888
X45551Y32480
X37874Y36811
X47441Y35002
X49291
X49488Y34449
X49193Y31496
X51654Y38189
Y40157
Y42520
X51654Y44488
X53161Y45787
X52756Y46772
X56181Y44488
X56181Y42520
X56181Y40157
Y38189
X55408Y37790
X55886Y37303
X58543Y36811
X58346Y46575
X49173Y41535
X47323
X64055Y40079
X64449Y39921
X65630Y39232
X62677Y38583
X63661Y36756
X66516Y35386
X68110Y35002
X69961
X70158Y34449
X69862Y31496
X67049Y31888
X66221Y32480
X67205Y34055
X67992Y41535
X69843
X72323Y42520
X72323Y44488
X73831Y45787
X73425Y46772
X76850Y44488
X76850Y42520
X76850Y40157
Y38189
X76077Y37790
X76555Y37303
X72323Y38189
Y40157
X64832Y44614
X64082Y44614
X65236Y45866
X79016Y46575
X79213Y36811
X78228Y47520
X74705Y48406
X69055Y48372
X69045Y49370
X68663Y50356
X68661Y50787
X67087Y51024
X67677Y52795
X69843Y53228
X67913Y48372
X65061Y49388
X64055Y47244
X57559Y47520
X54035Y48406
X48386Y48372
X48376Y49370
X47994Y50356
X47992Y50787
X47008Y52795
X49173Y53228
X47244Y48372
X46417Y51024
X44392Y49388
X43386Y47244
X36890Y47520
X33366Y48406
X27717Y48372
X27707Y49370
X27324Y50356
X27323Y50787
X25748Y51024
X26339Y52795
X28504Y53228
X26575Y48372
X23722Y49388
X22717Y47244
X16220Y47520
X12697Y48406
X7047Y48372
X7037Y49370
X6655Y50356
X6654Y50787
X5079Y51024
X5669Y52795
X7835Y53228
X5906Y48372
X3053Y49388
X2047Y47244
T03
X4213Y3898
X2452Y7650
X877
X5591Y13189
X6181
X6772
X26260
X26850
X27441
X23122Y7650
X21547
X24882Y3898
X45551
X43791Y7650
X42216
X46929Y13189
X47520
X48110
X67598
X68189
X68780
X64460Y7650
X62885
X66221Y3898
X64449Y24409
X62874
X66221Y29882
X45551
X43780Y24409
X42205
X23110
X21535
X24882Y29882
X4213
X2441Y24409
X866
X877Y33634
X2452
X5591Y39173
X6181
X6772
X26260
X26850
X27441
X23122Y33634
X21547
X42216
X43791
X46929Y39173
X47520
X48110
X67598
X68189
X68780
X64460Y33634
X62885
X62874Y50394
X64449
X43780
X42205
X23110
X21535
X2441
X866
T04
X10693Y10236
X11693
X12693
X31362
X32362
X33362
X52032
X53032
X54032
X72701
X73701
X74701
X12693Y36220
X11693
X10693
X31362
X32362
X33362
X52032
X53032
X54032
X72701
X73701
X74701
T05
X14685Y4961
Y5961
X15685
Y4961
X16685
Y5961
X17685
Y4961
X18685
Y5961
X35354
X36354
Y4961
X37354
Y5961
X38354
Y4961
X39354
Y5961
X35354Y4961
X56024
X57024
Y5961
X58024
Y4961
X59024
Y5961
X60024
Y4961
X56024Y5961
X76693
X77693
Y4961
X76693
X78693
Y5961
X79693
Y4961
X80693
Y5961
Y24961
X79693
Y25961
X78693
Y24961
X80693Y25961
Y30945
X79693
X78693
X77693
X76693
Y25961
X77693
Y24961
X76693
X60024
X59024
Y25961
X58024
Y24961
X57024
Y25961
X56024
Y24961
X60024Y25961
Y30945
X59024
X58024
X57024
X56024
X39354
X38354
X37354
X36354
X35354
Y25961
X36354
X37354
X38354
Y24961
X37354
X36354
X35354
X39354
Y25961
X18685
X17685
Y24961
X16685
Y25961
X15685
Y24961
X18685
Y30945
X17685
X16685
X15685
X14685
Y25961
Y24961
Y31945
X15685
X16685
X17685
X18685
X35354
X36354
X37354
X38354
X39354
X56024
X57024
X58024
X59024
X60024
X76693
X77693
X78693
X79693
X80693
Y50945
X79693
Y51945
X78693
Y50945
X80693Y51945
X77693
Y50945
X76693
Y51945
X60024
X59024
Y50945
X58024
Y51945
X57024
Y50945
X56024
Y51945
X60024Y50945
X39354
X38354
Y51945
X37354
Y50945
X36354
Y51945
X35354
Y50945
X39354Y51945
X18685
X17685
Y50945
X16685
Y51945
X15685
Y50945
X18685
X14685
Y51945
T06
X14685Y6961
Y7961
X15685
Y6961
X16685
Y7961
X17685
Y6961
X18685
Y7961
X35354
X36354
Y6961
X37354
Y7961
X38354
Y6961
X39354
Y7961
X35354Y6961
X56024
X57024
Y7961
X58024
Y6961
X59024
Y7961
X60024
Y6961
X56024Y7961
X76693
X77693
Y6961
X76693
X78693
Y7961
X79693
Y6961
X80693
Y7961
Y22961
X79693
Y23961
X78693
Y22961
X80693Y23961
X77693
Y22961
X76693
Y23961
X60024
X59024
Y22961
X58024
Y23961
X57024
Y22961
X56024
Y23961
X60024Y22961
X39354
X38354
Y23961
X37354
Y22961
X36354
Y23961
X35354
Y22961
X39354Y23961
X18685
X17685
Y22961
X16685
Y23961
X15685
Y22961
X18685
X14685
Y23961
Y32945
Y33945
X15685
Y32945
X16685
Y33945
X17685
Y32945
X18685
Y33945
X35354
X36354
Y32945
X37354
Y33945
X38354
Y32945
X39354
Y33945
X35354Y32945
X56024
X57024
Y33945
X58024
Y32945
X59024
Y33945
X60024
Y32945
X56024Y33945
X76693
X77693
Y32945
X76693
X78693
Y33945
X79693
Y32945
X80693
Y33945
Y48945
X79693
Y49945
X78693
Y48945
X80693Y49945
X77693
Y48945
X76693
Y49945
X60024
X59024
Y48945
X58024
Y49945
X57024
Y48945
X56024
Y49945
X60024Y48945
X39354
X38354
Y49945
X37354
Y48945
X36354
Y49945
X35354
Y48945
X39354Y49945
X18685
X17685
Y48945
X16685
Y49945
X15685
Y48945
X18685
X14685
Y49945
T08
X63071Y18307
Y19094
Y19882
X42402
Y19094
Y18307
X21732
Y19094
Y19882
X1063
Y19094
Y18307
Y44291
Y45079
Y45866
X21732
Y45079
Y44291
X42402
Y45079
Y45866
X63071
Y45079
Y44291
T09
X9724Y8037
X10709
X11693
X30394
X31378
X32362
X51063
X52047
X53032
X71732
X72717
X73701
X73701Y22869
X72717
X71732
X53032
X52047
X51063
X32362
X31378
X30394
X11693
X10709
X9724
X9724Y34021
X10709
X11693
X30394
X31378
X32362
X51063
X52047
X53032
X71732
X72717
X73701
X73701Y48853
X72717
X71732
X53032
X52047
X51063
X32362
X31378
X30394
X11693
X10709
X9724
T10
X18386Y11453
Y13453
Y15453
X39055
Y13453
Y11453
X59724
Y13453
Y15453
X80394
Y13453
Y11453
Y17453
Y19453
X59724
Y17453
X39055
Y19453
X18386
Y17453
Y37437
Y39437
Y41437
Y43437
Y45437
X39055
Y43437
Y41437
Y39437
Y37437
X59724
Y39437
Y41437
Y43437
Y45437
X80394
Y43437
Y41437
Y39437
Y37437
T12
X1329Y14173
X21998
X42667
X63337
Y15748
X42667
X21998
X1329
Y40157
Y41732
X21998
Y40157
X42667
Y41732
X63337
Y40157
T13
X9709Y3053
X10209
X10709
X11209
X11709
X30378
X30878
X31378
X31878
X32378
X51047
X51547
X52047
X52547
X53047
X71717
X72217
X72717
X73217
X73717
Y27853
X73217
X72717
X72217
X71717
Y29037
X72217
X72717
X73217
X73717
X53047
X52547
X52047
X51547
X51047
Y27853
X51547
X52047
X52547
X53047
X32378
X31878
X31378
Y29037
X31878
X32378
X30878
X30378
Y27853
X30878
X11709
X11209
X10709
X10209
X9709
Y29037
X10209
X10709
X11209
X11709
X71717Y53837
X72217
X72717
X73217
X73717
X53047
X52547
X52047
X51547
X51047
X32378
X31878
X31378
X30878
X30378
X11709
X11209
X10709
X10209
X9709
T14
X787Y3740
X551Y10669
X21220
X21457Y3740
X18898Y3740
X39567
X42126Y3740
X41890Y10669
X60236Y3740
X62795Y3740
X62559Y10669
X80906Y3740
Y27165
Y29724
X62795Y29724
X62795Y27165
X60236Y27165
Y29724
X42126Y29724
X42126Y27165
X39567Y27165
Y29724
X21457Y29724
X21457Y27165
X18898Y27165
Y29724
X787Y29724
X787Y27165
X551Y36654
X21220
X41890
X62559
X80906Y53150
X62795Y53150
X60236Y53150
X42126Y53150
X39567Y53150
X21457Y53150
X18898Y53150
X787Y53150
T15
X984Y984
X10709
X31378
X52047
X72717
X80709
Y55906
X72717
X52047
X31378
X10709
X984
M30
