M48
;Layer_Color=9474304
;FILE_FORMAT=2:4
INCH,TZ
;TYPE=PLATED
T2F00S00C0.0236
T7F00S00C0.0354
T11F00S00C0.0709
;TYPE=NON_PLATED
%
G90
G05
T02
G00X354Y13553
M15
G01X630
M16
G00X1713Y13553
M15
G01X1988
M16
G00X21024Y13553
M15
G01X21299
M16
G00X22382Y13553
M15
G01X22657
M16
G00X41693Y13553
M15
G01X41969
M16
G00X43051Y13553
M15
G01X43327
M16
G00X62362Y13553
M15
G01X62638
M16
G00X63720Y13553
M15
G01X63996
M16
G00X63720Y16368
M15
G01X63996
M16
G00X62362Y16368
M15
G01X62638
M16
G00X43051Y16368
M15
G01X43327
M16
G00X41693Y16368
M15
G01X41969
M16
G00X22382Y16368
M15
G01X22657
M16
G00X21024Y16368
M15
G01X21299
M16
G00X1713Y16368
M15
G01X1988
M16
G00X354Y16368
M15
G01X630
M16
G00X354Y39537
M15
G01X630
M16
G00X1713Y39537
M15
G01X1988
M16
G00X1713Y42352
M15
G01X1988
M16
G00X354Y42352
M15
G01X630
M16
G00X21024Y42352
M15
G01X21299
M16
G00X22382Y42352
M15
G01X22657
M16
G00X22382Y39537
M15
G01X22657
M16
G00X21024Y39537
M15
G01X21299
M16
G00X41693Y39537
M15
G01X41969
M16
G00X43051Y39537
M15
G01X43327
M16
G00X43051Y42352
M15
G01X43327
M16
G00X41693Y42352
M15
G01X41969
M16
G00X62362Y42352
M15
G01X62638
M16
G00X63720Y42352
M15
G01X63996
M16
G00X63720Y39537
M15
G01X63996
M16
G00X62362Y39537
M15
G01X62638
M16
T07
G00X62972Y17480
M15
G01X63169
M16
G00X62972Y20709
M15
G01X63169
M16
G00X42303Y20709
M15
G01X42500
M16
G00X42303Y17480
M15
G01X42500
M16
G00X21634Y17480
M15
G01X21831
M16
G00X21634Y20709
M15
G01X21831
M16
G00X965Y20709
M15
G01X1161
M16
G00X965Y17480
M15
G01X1161
M16
G00X965Y43465
M15
G01X1161
M16
G00X965Y46693
M15
G01X1161
M16
G00X21634Y46693
M15
G01X21831
M16
G00X21634Y43465
M15
G01X21831
M16
G00X42303Y43465
M15
G01X42500
M16
G00X42303Y46693
M15
G01X42500
M16
G00X62972Y46693
M15
G01X63169
M16
G00X62972Y43465
M15
G01X63169
M16
T11
G00X8976Y5365
M15
G01Y5208
M16
G00X12441Y5359
M15
G01Y5202
M16
G00X29646Y5365
M15
G01Y5208
M16
G00X33110Y5359
M15
G01Y5202
M16
G00X50315Y5365
M15
G01Y5208
M16
G00X53780Y5359
M15
G01Y5202
M16
G00X70984Y5365
M15
G01Y5208
M16
G00X74449Y5359
M15
G01Y5202
M16
G00X74449Y25540
M15
G01Y25698
M16
G00X70984Y25546
M15
G01Y25704
M16
G00X53780Y25540
M15
G01Y25698
M16
G00X50315Y25546
M15
G01Y25704
M16
G00X33110Y25540
M15
G01Y25698
M16
G00X29646Y25546
M15
G01Y25704
M16
G00X12441Y25540
M15
G01Y25698
M16
G00X8976Y25546
M15
G01Y25704
M16
G00X8976Y31350
M15
G01Y31192
M16
G00X12441Y31344
M15
G01Y31186
M16
G00X29646Y31350
M15
G01Y31192
M16
G00X33110Y31344
M15
G01Y31186
M16
G00X50315Y31350
M15
G01Y31192
M16
G00X53780Y31344
M15
G01Y31186
M16
G00X70984Y31350
M15
G01Y31192
M16
G00X74449Y31344
M15
G01Y31186
M16
G00X74449Y51524
M15
G01Y51682
M16
G00X70984Y51530
M15
G01Y51688
M16
G00X53780Y51524
M15
G01Y51682
M16
G00X50315Y51530
M15
G01Y51688
M16
G00X33110Y51524
M15
G01Y51682
M16
G00X29646Y51530
M15
G01Y51688
M16
G00X12441Y51524
M15
G01Y51682
M16
G00X8976Y51530
M15
G01Y51688
M16
M17
M30
