M48
;Layer_Color=9474304
;FILE_FORMAT=2:4
INCH,TZ
;TYPE=PLATED
T1F00S00C0.0197
T3F00S00C0.0250
T4F00S00C0.0315
T6F00S00C0.0360
T7F00S00C0.0433
T8F00S00C0.0472
;TYPE=NON_PLATED
T10F00S00C0.0276
%
T01
X4134Y11614
X4154Y13189
Y13780
Y14370
X5512Y12992
X7087Y12264
X8661Y10630
X7972Y8417
X8563Y7087
X9567Y8033
X11417
X11614Y7480
X11417Y11024
X13780Y11614
Y13583
Y15551
X18307
X18307Y13583
Y11614
X17283Y10276
X16929Y9252
X19961Y9409
X19882Y10236
X20079Y2677
X17717
X15354
X12992
X11220
X10502Y3740
X7535Y5550
X5118Y9787
X22441Y2677
X20472Y19606
X22441Y26378
X20079
X17717
X15354
X12992
X9774Y25197
X8666Y26239
X8543Y24055
X9370Y21404
X10512
X10502Y22402
X6517Y22420
X5512Y20276
X6693Y18898
X6289Y17645
X5539Y17645
X9055Y17717
X9843Y18504
X11811Y17323
Y15748
X13780Y17520
X15287Y18819
X14882Y19803
X16732Y21457
X18594Y20866
X18307Y17520
T03
X18150Y3976
X19150
Y4976
X20150
Y3976
X18150Y4976
X18094Y6677
X19094
Y7677
X18094
X21150Y4976
Y3976
X22150
Y4976
Y23961
X21150
Y24961
X22150
X20150
Y23961
X19150
Y24961
X18150
Y23961
X18094Y22457
Y21457
X19094
Y22457
T04
X4342Y6665
X5917
X6201Y5217
X9055Y12205
X9646
X10236
X10630Y14468
X5906Y23425
X4331
T06
X4528Y17323
Y18110
Y18898
T07
X13189Y7052
X14173
X15157
X15157Y21885
X14173
X13189
T08
X21850Y10468
Y12469
Y14468
Y16468
Y18469
T10
X4793Y13189
Y14764
M30
