M48
;Layer_Color=9474304
;FILE_FORMAT=2:4
INCH,TZ
;TYPE=PLATED
T2F00S00C0.0236
T5F00S00C0.0354
T9F00S00C0.0709
;TYPE=NON_PLATED
%
G90
G05
T02
G00X3819Y12569
M15
G01X4094
M16
G00X3819Y15384
M15
G01X4094
M16
G00X5177Y15384
M15
G01X5453
M16
G00X5177Y12569
M15
G01X5453
M16
T05
G00X4429Y16535
M15
G01X4626
M16
G00X4429Y19685
M15
G01X4626
M16
T09
G00X12441Y4381
M15
G01Y4224
M16
G00X15906Y4375
M15
G01Y4218
M16
G00X15905Y24556
M15
G01Y24713
M16
G00X12441Y24562
M15
G01Y24719
M16
M17
M30
