G04*
G04 #@! TF.GenerationSoftware,Altium Limited,Altium Designer,21.9.2 (33)*
G04*
G04 Layer_Color=16711935*
%FSLAX25Y25*%
%MOIN*%
G70*
G04*
G04 #@! TF.SameCoordinates,92FC589E-7DC0-4DB0-8F66-2D7A547C6286*
G04*
G04*
G04 #@! TF.FilePolarity,Positive*
G04*
G01*
G75*
%ADD123C,0.00394*%
D123*
X303044Y549213D02*
X303994Y549023D01*
X304890Y548653D01*
X305696Y548114D01*
X306382Y547429D01*
X306920Y546622D01*
X307291Y545727D01*
X307480Y544776D01*
Y544291D02*
Y544776D01*
Y543807D02*
Y544291D01*
X307291Y542856D02*
X307480Y543807D01*
X306920Y541960D02*
X307291Y542856D01*
X306382Y541154D02*
X306920Y541960D01*
X305696Y540469D02*
X306382Y541154D01*
X304890Y539930D02*
X305696Y540469D01*
X303994Y539559D02*
X304890Y539930D01*
X303044Y539370D02*
X303994Y539559D01*
X214567Y539370D02*
X303044D01*
X213795Y539332D02*
X214567Y539370D01*
X212281Y539031D02*
X213795Y539332D01*
X210855Y538440D02*
X212281Y539031D01*
X209572Y537583D02*
X210855Y538440D01*
X208480Y536491D02*
X209572Y537583D01*
X207623Y535208D02*
X208480Y536491D01*
X207032Y533782D02*
X207623Y535208D01*
X206731Y532268D02*
X207032Y533782D01*
X206693Y531496D02*
X206731Y532268D01*
X206693Y297244D02*
Y531496D01*
Y297244D02*
X206731Y296472D01*
X207032Y294958D01*
X207623Y293532D01*
X208480Y292249D01*
X209572Y291157D01*
X210855Y290300D01*
X212281Y289709D01*
X213795Y289408D01*
X214567Y289370D01*
X303044D01*
X303994Y289181D01*
X304890Y288810D01*
X305696Y288271D01*
X306382Y287586D01*
X306920Y286780D01*
X307291Y285884D01*
X307480Y284933D01*
Y284449D02*
Y284933D01*
Y283964D02*
Y284449D01*
X307291Y283013D02*
X307480Y283964D01*
X306920Y282118D02*
X307291Y283013D01*
X306382Y281312D02*
X306920Y282118D01*
X305696Y280626D02*
X306382Y281312D01*
X304890Y280088D02*
X305696Y280626D01*
X303994Y279717D02*
X304890Y280088D01*
X303044Y279528D02*
X303994Y279717D01*
X214567Y279528D02*
X303044D01*
X213795Y279490D02*
X214567Y279528D01*
X212281Y279188D02*
X213795Y279490D01*
X210855Y278598D02*
X212281Y279188D01*
X209572Y277740D02*
X210855Y278598D01*
X208480Y276649D02*
X209572Y277740D01*
X207623Y275365D02*
X208480Y276649D01*
X207032Y273939D02*
X207623Y275365D01*
X206731Y272425D02*
X207032Y273939D01*
X206693Y271654D02*
X206731Y272425D01*
X206693Y37402D02*
Y271654D01*
Y37402D02*
X206731Y36630D01*
X207032Y35116D01*
X207623Y33690D01*
X208480Y32406D01*
X209572Y31315D01*
X210855Y30457D01*
X212281Y29867D01*
X213795Y29566D01*
X214567Y29528D01*
X303044D01*
X303994Y29338D01*
X304890Y28967D01*
X305696Y28429D01*
X306382Y27743D01*
X306920Y26937D01*
X307291Y26042D01*
X307480Y25091D01*
Y24606D02*
Y25091D01*
Y24016D02*
Y24606D01*
Y23589D02*
Y24016D01*
X307314Y22752D02*
X307480Y23589D01*
X306987Y21964D02*
X307314Y22752D01*
X306514Y21255D02*
X306987Y21964D01*
X305910Y20652D02*
X306514Y21255D01*
X305201Y20178D02*
X305910Y20652D01*
X304413Y19851D02*
X305201Y20178D01*
X303576Y19685D02*
X304413Y19851D01*
X118019Y19685D02*
X303576D01*
X117069Y19874D02*
X118019Y19685D01*
X116173Y20245D02*
X117069Y19874D01*
X115367Y20784D02*
X116173Y20245D01*
X114681Y21469D02*
X115367Y20784D01*
X114143Y22275D02*
X114681Y21469D01*
X113772Y23171D02*
X114143Y22275D01*
X113583Y24122D02*
X113772Y23171D01*
X113583Y24122D02*
Y24606D01*
Y25091D01*
X113772Y26042D01*
X114143Y26937D01*
X114681Y27743D01*
X115367Y28429D01*
X116173Y28967D01*
X117069Y29338D01*
X118019Y29528D01*
X188976D01*
X189748Y29566D01*
X191262Y29867D01*
X192688Y30457D01*
X193972Y31315D01*
X195063Y32406D01*
X195921Y33690D01*
X196511Y35116D01*
X196812Y36630D01*
X196850Y37402D01*
Y271654D01*
X196812Y272425D02*
X196850Y271654D01*
X196511Y273939D02*
X196812Y272425D01*
X195921Y275365D02*
X196511Y273939D01*
X195063Y276649D02*
X195921Y275365D01*
X193972Y277740D02*
X195063Y276649D01*
X192688Y278598D02*
X193972Y277740D01*
X191262Y279188D02*
X192688Y278598D01*
X189748Y279490D02*
X191262Y279188D01*
X188976Y279528D02*
X189748Y279490D01*
X118019Y279528D02*
X188976D01*
X117069Y279717D02*
X118019Y279528D01*
X116173Y280088D02*
X117069Y279717D01*
X115367Y280626D02*
X116173Y280088D01*
X114681Y281312D02*
X115367Y280626D01*
X114143Y282118D02*
X114681Y281312D01*
X113772Y283013D02*
X114143Y282118D01*
X113583Y283964D02*
X113772Y283013D01*
X113583Y283964D02*
Y284449D01*
Y284933D01*
X113772Y285884D01*
X114143Y286780D01*
X114681Y287586D01*
X115367Y288271D01*
X116173Y288810D01*
X117069Y289181D01*
X118019Y289370D01*
X188976D01*
X189748Y289408D01*
X191262Y289709D01*
X192688Y290300D01*
X193972Y291157D01*
X195063Y292249D01*
X195921Y293532D01*
X196511Y294958D01*
X196812Y296472D01*
X196850Y297244D01*
Y531496D01*
X196812Y532268D02*
X196850Y531496D01*
X196511Y533782D02*
X196812Y532268D01*
X195921Y535208D02*
X196511Y533782D01*
X195063Y536491D02*
X195921Y535208D01*
X193972Y537583D02*
X195063Y536491D01*
X192688Y538440D02*
X193972Y537583D01*
X191262Y539031D02*
X192688Y538440D01*
X189748Y539332D02*
X191262Y539031D01*
X188976Y539370D02*
X189748Y539332D01*
X118019Y539370D02*
X188976D01*
X117069Y539559D02*
X118019Y539370D01*
X116173Y539930D02*
X117069Y539559D01*
X115367Y540469D02*
X116173Y539930D01*
X114681Y541154D02*
X115367Y540469D01*
X114143Y541960D02*
X114681Y541154D01*
X113772Y542856D02*
X114143Y541960D01*
X113583Y543807D02*
X113772Y542856D01*
X113583Y543807D02*
Y544291D01*
Y544776D01*
X113772Y545727D01*
X114143Y546622D01*
X114681Y547429D01*
X115367Y548114D01*
X116173Y548653D01*
X117069Y549023D01*
X118019Y549213D01*
X303044D01*
X509737D02*
X510687Y549023D01*
X511583Y548653D01*
X512389Y548114D01*
X513075Y547429D01*
X513613Y546622D01*
X513984Y545727D01*
X514173Y544776D01*
Y544291D02*
Y544776D01*
Y543807D02*
Y544291D01*
X513984Y542856D02*
X514173Y543807D01*
X513613Y541960D02*
X513984Y542856D01*
X513075Y541154D02*
X513613Y541960D01*
X512389Y540469D02*
X513075Y541154D01*
X511583Y539930D02*
X512389Y540469D01*
X510687Y539559D02*
X511583Y539930D01*
X509737Y539370D02*
X510687Y539559D01*
X421260Y539370D02*
X509737D01*
X420488Y539332D02*
X421260Y539370D01*
X418974Y539031D02*
X420488Y539332D01*
X417548Y538440D02*
X418974Y539031D01*
X416265Y537583D02*
X417548Y538440D01*
X415173Y536491D02*
X416265Y537583D01*
X414316Y535208D02*
X415173Y536491D01*
X413725Y533782D02*
X414316Y535208D01*
X413424Y532268D02*
X413725Y533782D01*
X413386Y531496D02*
X413424Y532268D01*
X413386Y297244D02*
Y531496D01*
Y297244D02*
X413424Y296472D01*
X413725Y294958D01*
X414316Y293532D01*
X415173Y292249D01*
X416265Y291157D01*
X417548Y290300D01*
X418974Y289709D01*
X420488Y289408D01*
X421260Y289370D01*
X509737D01*
X510687Y289181D01*
X511583Y288810D01*
X512389Y288271D01*
X513075Y287586D01*
X513613Y286780D01*
X513984Y285884D01*
X514173Y284933D01*
Y284449D02*
Y284933D01*
Y283964D02*
Y284449D01*
X513984Y283013D02*
X514173Y283964D01*
X513613Y282118D02*
X513984Y283013D01*
X513075Y281312D02*
X513613Y282118D01*
X512389Y280626D02*
X513075Y281312D01*
X511583Y280088D02*
X512389Y280626D01*
X510687Y279717D02*
X511583Y280088D01*
X509737Y279528D02*
X510687Y279717D01*
X421260Y279528D02*
X509737D01*
X420488Y279490D02*
X421260Y279528D01*
X418974Y279188D02*
X420488Y279490D01*
X417548Y278598D02*
X418974Y279188D01*
X416265Y277740D02*
X417548Y278598D01*
X415173Y276649D02*
X416265Y277740D01*
X414316Y275365D02*
X415173Y276649D01*
X413725Y273939D02*
X414316Y275365D01*
X413424Y272425D02*
X413725Y273939D01*
X413386Y271654D02*
X413424Y272425D01*
X413386Y37402D02*
Y271654D01*
Y37402D02*
X413424Y36630D01*
X413725Y35116D01*
X414316Y33690D01*
X415173Y32406D01*
X416265Y31315D01*
X417548Y30457D01*
X418974Y29867D01*
X420488Y29566D01*
X421260Y29528D01*
X509737D01*
X510687Y29338D01*
X511583Y28967D01*
X512389Y28429D01*
X513075Y27743D01*
X513613Y26937D01*
X513984Y26042D01*
X514173Y25091D01*
Y24606D02*
Y25091D01*
Y24016D02*
Y24606D01*
Y23589D02*
Y24016D01*
X514007Y22752D02*
X514173Y23589D01*
X513680Y21964D02*
X514007Y22752D01*
X513206Y21255D02*
X513680Y21964D01*
X512603Y20652D02*
X513206Y21255D01*
X511894Y20178D02*
X512603Y20652D01*
X511106Y19851D02*
X511894Y20178D01*
X510269Y19685D02*
X511106Y19851D01*
X324712Y19685D02*
X510269D01*
X323761Y19874D02*
X324712Y19685D01*
X322866Y20245D02*
X323761Y19874D01*
X322060Y20784D02*
X322866Y20245D01*
X321374Y21469D02*
X322060Y20784D01*
X320836Y22275D02*
X321374Y21469D01*
X320465Y23171D02*
X320836Y22275D01*
X320276Y24122D02*
X320465Y23171D01*
X320276Y24122D02*
Y24606D01*
Y25091D01*
X320465Y26042D01*
X320836Y26937D01*
X321374Y27743D01*
X322060Y28429D01*
X322866Y28967D01*
X323761Y29338D01*
X324712Y29528D01*
X395669D01*
X396441Y29566D01*
X397955Y29867D01*
X399381Y30457D01*
X400665Y31315D01*
X401756Y32406D01*
X402613Y33690D01*
X403204Y35116D01*
X403505Y36630D01*
X403543Y37402D01*
Y271654D01*
X403505Y272425D02*
X403543Y271654D01*
X403204Y273939D02*
X403505Y272425D01*
X402613Y275365D02*
X403204Y273939D01*
X401756Y276649D02*
X402613Y275365D01*
X400665Y277740D02*
X401756Y276649D01*
X399381Y278598D02*
X400665Y277740D01*
X397955Y279188D02*
X399381Y278598D01*
X396441Y279490D02*
X397955Y279188D01*
X395669Y279528D02*
X396441Y279490D01*
X324712Y279528D02*
X395669D01*
X323761Y279717D02*
X324712Y279528D01*
X322866Y280088D02*
X323761Y279717D01*
X322060Y280626D02*
X322866Y280088D01*
X321374Y281312D02*
X322060Y280626D01*
X320836Y282118D02*
X321374Y281312D01*
X320465Y283013D02*
X320836Y282118D01*
X320276Y283964D02*
X320465Y283013D01*
X320276Y283964D02*
Y284449D01*
Y284933D01*
X320465Y285884D01*
X320836Y286780D01*
X321374Y287586D01*
X322060Y288271D01*
X322866Y288810D01*
X323761Y289181D01*
X324712Y289370D01*
X395669D01*
X396441Y289408D01*
X397955Y289709D01*
X399381Y290300D01*
X400665Y291157D01*
X401756Y292249D01*
X402613Y293532D01*
X403204Y294958D01*
X403505Y296472D01*
X403543Y297244D01*
Y531496D01*
X403505Y532268D02*
X403543Y531496D01*
X403204Y533782D02*
X403505Y532268D01*
X402613Y535208D02*
X403204Y533782D01*
X401756Y536491D02*
X402613Y535208D01*
X400665Y537583D02*
X401756Y536491D01*
X399381Y538440D02*
X400665Y537583D01*
X397955Y539031D02*
X399381Y538440D01*
X396441Y539332D02*
X397955Y539031D01*
X395669Y539370D02*
X396441Y539332D01*
X324712Y539370D02*
X395669D01*
X323761Y539559D02*
X324712Y539370D01*
X322866Y539930D02*
X323761Y539559D01*
X322060Y540469D02*
X322866Y539930D01*
X321374Y541154D02*
X322060Y540469D01*
X320836Y541960D02*
X321374Y541154D01*
X320465Y542856D02*
X320836Y541960D01*
X320276Y543807D02*
X320465Y542856D01*
X320276Y543807D02*
Y544291D01*
Y544776D01*
X320465Y545727D01*
X320836Y546622D01*
X321374Y547429D01*
X322060Y548114D01*
X322866Y548653D01*
X323761Y549023D01*
X324712Y549213D01*
X509737D01*
X716430D02*
X717380Y549023D01*
X718276Y548653D01*
X719082Y548114D01*
X719768Y547429D01*
X720306Y546622D01*
X720677Y545727D01*
X720866Y544776D01*
Y544291D02*
Y544776D01*
Y543807D02*
Y544291D01*
X720677Y542856D02*
X720866Y543807D01*
X720306Y541960D02*
X720677Y542856D01*
X719768Y541154D02*
X720306Y541960D01*
X719082Y540469D02*
X719768Y541154D01*
X718276Y539930D02*
X719082Y540469D01*
X717380Y539559D02*
X718276Y539930D01*
X716430Y539370D02*
X717380Y539559D01*
X627953Y539370D02*
X716430D01*
X627181Y539332D02*
X627953Y539370D01*
X625667Y539031D02*
X627181Y539332D01*
X624241Y538440D02*
X625667Y539031D01*
X622958Y537583D02*
X624241Y538440D01*
X621866Y536491D02*
X622958Y537583D01*
X621008Y535208D02*
X621866Y536491D01*
X620418Y533782D02*
X621008Y535208D01*
X620117Y532268D02*
X620418Y533782D01*
X620079Y531496D02*
X620117Y532268D01*
X620079Y297244D02*
Y531496D01*
Y297244D02*
X620117Y296472D01*
X620418Y294958D01*
X621008Y293532D01*
X621866Y292249D01*
X622958Y291157D01*
X624241Y290300D01*
X625667Y289709D01*
X627181Y289408D01*
X627953Y289370D01*
X716430D01*
X717380Y289181D01*
X718276Y288810D01*
X719082Y288271D01*
X719768Y287586D01*
X720306Y286780D01*
X720677Y285884D01*
X720866Y284933D01*
Y284449D02*
Y284933D01*
Y283964D02*
Y284449D01*
X720677Y283013D02*
X720866Y283964D01*
X720306Y282118D02*
X720677Y283013D01*
X719768Y281312D02*
X720306Y282118D01*
X719082Y280626D02*
X719768Y281312D01*
X718276Y280088D02*
X719082Y280626D01*
X717380Y279717D02*
X718276Y280088D01*
X716430Y279528D02*
X717380Y279717D01*
X627953Y279528D02*
X716430D01*
X627181Y279490D02*
X627953Y279528D01*
X625667Y279188D02*
X627181Y279490D01*
X624241Y278598D02*
X625667Y279188D01*
X622958Y277740D02*
X624241Y278598D01*
X621866Y276649D02*
X622958Y277740D01*
X621008Y275365D02*
X621866Y276649D01*
X620418Y273939D02*
X621008Y275365D01*
X620117Y272425D02*
X620418Y273939D01*
X620079Y271654D02*
X620117Y272425D01*
X620079Y37402D02*
Y271654D01*
Y37402D02*
X620117Y36630D01*
X620418Y35116D01*
X621008Y33690D01*
X621866Y32406D01*
X622958Y31315D01*
X624241Y30457D01*
X625667Y29867D01*
X627181Y29566D01*
X627953Y29528D01*
X716430D01*
X717380Y29338D01*
X718276Y28967D01*
X719082Y28429D01*
X719768Y27743D01*
X720306Y26937D01*
X720677Y26042D01*
X720866Y25091D01*
Y24606D02*
Y25091D01*
Y24016D02*
Y24606D01*
Y23589D02*
Y24016D01*
X720700Y22752D02*
X720866Y23589D01*
X720373Y21964D02*
X720700Y22752D01*
X719899Y21255D02*
X720373Y21964D01*
X719296Y20652D02*
X719899Y21255D01*
X718587Y20178D02*
X719296Y20652D01*
X717799Y19851D02*
X718587Y20178D01*
X716962Y19685D02*
X717799Y19851D01*
X531405Y19685D02*
X716962D01*
X530454Y19874D02*
X531405Y19685D01*
X529559Y20245D02*
X530454Y19874D01*
X528753Y20784D02*
X529559Y20245D01*
X528067Y21469D02*
X528753Y20784D01*
X527529Y22275D02*
X528067Y21469D01*
X527158Y23171D02*
X527529Y22275D01*
X526968Y24122D02*
X527158Y23171D01*
X526968Y24122D02*
Y24606D01*
Y25091D01*
X527158Y26042D01*
X527529Y26937D01*
X528067Y27743D01*
X528753Y28429D01*
X529559Y28967D01*
X530454Y29338D01*
X531405Y29528D01*
X602362D01*
X603134Y29566D01*
X604648Y29867D01*
X606074Y30457D01*
X607357Y31315D01*
X608449Y32406D01*
X609306Y33690D01*
X609897Y35116D01*
X610198Y36630D01*
X610236Y37402D01*
Y271654D01*
X610198Y272425D02*
X610236Y271654D01*
X609897Y273939D02*
X610198Y272425D01*
X609306Y275365D02*
X609897Y273939D01*
X608449Y276649D02*
X609306Y275365D01*
X607357Y277740D02*
X608449Y276649D01*
X606074Y278598D02*
X607357Y277740D01*
X604648Y279188D02*
X606074Y278598D01*
X603134Y279490D02*
X604648Y279188D01*
X602362Y279528D02*
X603134Y279490D01*
X531405Y279528D02*
X602362D01*
X530454Y279717D02*
X531405Y279528D01*
X529559Y280088D02*
X530454Y279717D01*
X528753Y280626D02*
X529559Y280088D01*
X528067Y281312D02*
X528753Y280626D01*
X527529Y282118D02*
X528067Y281312D01*
X527158Y283013D02*
X527529Y282118D01*
X526968Y283964D02*
X527158Y283013D01*
X526968Y283964D02*
Y284449D01*
Y284933D01*
X527158Y285884D01*
X527529Y286780D01*
X528067Y287586D01*
X528753Y288271D01*
X529559Y288810D01*
X530454Y289181D01*
X531405Y289370D01*
X602362D01*
X603134Y289408D01*
X604648Y289709D01*
X606074Y290300D01*
X607357Y291157D01*
X608449Y292249D01*
X609306Y293532D01*
X609897Y294958D01*
X610198Y296472D01*
X610236Y297244D01*
Y531496D01*
X610198Y532268D02*
X610236Y531496D01*
X609897Y533782D02*
X610198Y532268D01*
X609306Y535208D02*
X609897Y533782D01*
X608449Y536491D02*
X609306Y535208D01*
X607357Y537583D02*
X608449Y536491D01*
X606074Y538440D02*
X607357Y537583D01*
X604648Y539031D02*
X606074Y538440D01*
X603134Y539332D02*
X604648Y539031D01*
X602362Y539370D02*
X603134Y539332D01*
X531405Y539370D02*
X602362D01*
X530454Y539559D02*
X531405Y539370D01*
X529559Y539930D02*
X530454Y539559D01*
X528753Y540469D02*
X529559Y539930D01*
X528067Y541154D02*
X528753Y540469D01*
X527529Y541960D02*
X528067Y541154D01*
X527158Y542856D02*
X527529Y541960D01*
X526968Y543807D02*
X527158Y542856D01*
X526968Y543807D02*
Y544291D01*
Y544776D01*
X527158Y545727D01*
X527529Y546622D01*
X528067Y547429D01*
X528753Y548114D01*
X529559Y548653D01*
X530454Y549023D01*
X531405Y549213D01*
X716430D01*
X816929D02*
Y568898D01*
X0D02*
X816929D01*
X0Y549213D02*
Y568898D01*
Y549213D02*
X96351D01*
X97302Y549023D01*
X98197Y548653D01*
X99003Y548114D01*
X99689Y547429D01*
X100227Y546622D01*
X100598Y545727D01*
X100787Y544776D01*
Y544291D02*
Y544776D01*
Y543807D02*
Y544291D01*
X100598Y542856D02*
X100787Y543807D01*
X100227Y541960D02*
X100598Y542856D01*
X99689Y541154D02*
X100227Y541960D01*
X99003Y540469D02*
X99689Y541154D01*
X98197Y539930D02*
X99003Y540469D01*
X97302Y539559D02*
X98197Y539930D01*
X96351Y539370D02*
X97302Y539559D01*
X7099Y539370D02*
X96351D01*
X7099D02*
Y539370D01*
X7099D02*
X7099D01*
X6403Y539336D02*
X7099Y539370D01*
X5038Y539064D02*
X6403Y539336D01*
X3752Y538532D02*
X5038Y539064D01*
X2595Y537759D02*
X3752Y538532D01*
X1611Y536775D02*
X2595Y537759D01*
X838Y535618D02*
X1611Y536775D01*
X306Y534332D02*
X838Y535618D01*
X34Y532967D02*
X306Y534332D01*
X0Y532271D02*
X34Y532967D01*
X0Y297244D02*
Y532271D01*
Y297244D02*
X38Y296472D01*
X339Y294958D01*
X930Y293532D01*
X1787Y292249D01*
X2879Y291157D01*
X4162Y290300D01*
X5588Y289709D01*
X7102Y289408D01*
X7874Y289370D01*
X96351D01*
X97302Y289181D01*
X98197Y288810D01*
X99003Y288271D01*
X99689Y287586D01*
X100227Y286780D01*
X100598Y285884D01*
X100787Y284933D01*
Y284449D02*
Y284933D01*
Y283964D02*
Y284449D01*
X100598Y283013D02*
X100787Y283964D01*
X100227Y282118D02*
X100598Y283013D01*
X99689Y281312D02*
X100227Y282118D01*
X99003Y280626D02*
X99689Y281312D01*
X98197Y280088D02*
X99003Y280626D01*
X97302Y279717D02*
X98197Y280088D01*
X96351Y279528D02*
X97302Y279717D01*
X7874Y279528D02*
X96351D01*
X7102Y279490D02*
X7874Y279528D01*
X5588Y279188D02*
X7102Y279490D01*
X4162Y278598D02*
X5588Y279188D01*
X2879Y277740D02*
X4162Y278598D01*
X1787Y276649D02*
X2879Y277740D01*
X930Y275365D02*
X1787Y276649D01*
X339Y273939D02*
X930Y275365D01*
X38Y272425D02*
X339Y273939D01*
X0Y271654D02*
X38Y272425D01*
X0Y37402D02*
Y271654D01*
Y37402D02*
X38Y36630D01*
X339Y35116D01*
X930Y33690D01*
X1787Y32406D01*
X2879Y31315D01*
X4162Y30457D01*
X5588Y29867D01*
X7102Y29566D01*
X7874Y29528D01*
X96351D01*
X97302Y29338D01*
X98197Y28967D01*
X99003Y28429D01*
X99689Y27743D01*
X100227Y26937D01*
X100598Y26042D01*
X100787Y25091D01*
Y24606D02*
Y25091D01*
Y24122D02*
Y24606D01*
X100598Y23171D02*
X100787Y24122D01*
X100227Y22275D02*
X100598Y23171D01*
X99689Y21469D02*
X100227Y22275D01*
X99003Y20784D02*
X99689Y21469D01*
X98197Y20245D02*
X99003Y20784D01*
X97302Y19874D02*
X98197Y20245D01*
X96351Y19685D02*
X97302Y19874D01*
X0Y19685D02*
X96351D01*
X0Y0D02*
Y19685D01*
Y0D02*
X816929D01*
Y19685D01*
X738098D02*
X816929D01*
X737147Y19874D02*
X738098Y19685D01*
X736252Y20245D02*
X737147Y19874D01*
X735446Y20784D02*
X736252Y20245D01*
X734760Y21469D02*
X735446Y20784D01*
X734222Y22275D02*
X734760Y21469D01*
X733851Y23171D02*
X734222Y22275D01*
X733661Y24122D02*
X733851Y23171D01*
X733661Y24122D02*
Y24606D01*
Y25091D01*
X733851Y26042D01*
X734222Y26937D01*
X734760Y27743D01*
X735446Y28429D01*
X736252Y28967D01*
X737147Y29338D01*
X738098Y29528D01*
X809055D01*
X809827Y29566D01*
X811341Y29867D01*
X812767Y30457D01*
X814050Y31315D01*
X815142Y32406D01*
X815999Y33690D01*
X816590Y35116D01*
X816891Y36630D01*
X816929Y37401D01*
Y271654D01*
X816891Y272425D02*
X816929Y271654D01*
X816590Y273939D02*
X816891Y272425D01*
X815999Y275365D02*
X816590Y273939D01*
X815142Y276649D02*
X815999Y275365D01*
X814050Y277740D02*
X815142Y276649D01*
X812767Y278598D02*
X814050Y277740D01*
X811341Y279188D02*
X812767Y278598D01*
X809827Y279490D02*
X811341Y279188D01*
X809055Y279528D02*
X809827Y279490D01*
X738098Y279528D02*
X809055D01*
X737147Y279717D02*
X738098Y279528D01*
X736252Y280088D02*
X737147Y279717D01*
X735446Y280626D02*
X736252Y280088D01*
X734760Y281312D02*
X735446Y280626D01*
X734222Y282118D02*
X734760Y281312D01*
X733851Y283013D02*
X734222Y282118D01*
X733661Y283964D02*
X733851Y283013D01*
X733661Y283964D02*
Y284449D01*
Y284933D01*
X733851Y285884D01*
X734222Y286780D01*
X734760Y287586D01*
X735446Y288271D01*
X736252Y288810D01*
X737147Y289181D01*
X738098Y289370D01*
X809055D01*
X809827Y289408D01*
X811341Y289709D01*
X812767Y290300D01*
X814050Y291157D01*
X815142Y292249D01*
X815999Y293532D01*
X816590Y294958D01*
X816891Y296472D01*
X816929Y297244D01*
Y531496D01*
X816891Y532268D02*
X816929Y531496D01*
X816590Y533782D02*
X816891Y532268D01*
X815999Y535208D02*
X816590Y533782D01*
X815142Y536491D02*
X815999Y535208D01*
X814050Y537583D02*
X815142Y536491D01*
X812767Y538440D02*
X814050Y537583D01*
X811341Y539031D02*
X812767Y538440D01*
X809827Y539332D02*
X811341Y539031D01*
X809055Y539370D02*
X809827Y539332D01*
X738098Y539370D02*
X809055D01*
X737147Y539559D02*
X738098Y539370D01*
X736252Y539930D02*
X737147Y539559D01*
X735446Y540469D02*
X736252Y539930D01*
X734760Y541154D02*
X735446Y540469D01*
X734222Y541960D02*
X734760Y541154D01*
X733851Y542856D02*
X734222Y541960D01*
X733661Y543807D02*
X733851Y542856D01*
X733661Y543807D02*
Y544291D01*
Y544685D01*
Y545131D01*
X733835Y546006D01*
X734177Y546830D01*
X734672Y547571D01*
X735303Y548202D01*
X736044Y548697D01*
X736868Y549039D01*
X737743Y549213D01*
X816929D01*
M02*
