G04*
G04 #@! TF.GenerationSoftware,Altium Limited,Altium Designer,21.9.2 (33)*
G04*
G04 Layer_Color=16711935*
%FSLAX25Y25*%
%MOIN*%
G70*
G04*
G04 #@! TF.SameCoordinates,92FC589E-7DC0-4DB0-8F66-2D7A547C6286*
G04*
G04*
G04 #@! TF.FilePolarity,Negative*
G04*
G01*
G75*
%ADD106C,0.06284*%
G04:AMPARAMS|DCode=107|XSize=62.99mil|YSize=62.99mil|CornerRadius=5.87mil|HoleSize=0mil|Usage=FLASHONLY|Rotation=270.000|XOffset=0mil|YOffset=0mil|HoleType=Round|Shape=RoundedRectangle|*
%AMROUNDEDRECTD107*
21,1,0.06299,0.05126,0,0,270.0*
21,1,0.05126,0.06299,0,0,270.0*
1,1,0.01173,-0.02563,-0.02563*
1,1,0.01173,-0.02563,0.02563*
1,1,0.01173,0.02563,0.02563*
1,1,0.01173,0.02563,-0.02563*
%
%ADD107ROUNDEDRECTD107*%
%ADD108C,0.06299*%
%ADD109O,0.08661X0.07087*%
%ADD110C,0.06787*%
%ADD111C,0.03543*%
%ADD112O,0.07480X0.04724*%
%ADD113C,0.04265*%
%ADD114C,0.07874*%
%ADD115O,0.10630X0.12598*%
%ADD116C,0.07874*%
%ADD117C,0.05890*%
%ADD118C,0.10630*%
%ADD119C,0.06693*%
%ADD120R,0.05118X0.06299*%
D106*
X9843Y559055D02*
D03*
X107087D02*
D03*
X313779D02*
D03*
X520472D02*
D03*
X727165D02*
D03*
X807087D02*
D03*
Y9843D02*
D03*
X9843D02*
D03*
X107087D02*
D03*
X313779D02*
D03*
X520472D02*
D03*
X727165D02*
D03*
X7874Y271654D02*
D03*
X7874Y37402D02*
D03*
X188977Y37402D02*
D03*
Y271654D02*
D03*
X214567Y271654D02*
D03*
X214567Y37402D02*
D03*
X395670Y37402D02*
D03*
Y271654D02*
D03*
X421260Y271654D02*
D03*
X421260Y37402D02*
D03*
X602362Y37402D02*
D03*
Y271654D02*
D03*
X627953Y271654D02*
D03*
X627953Y37402D02*
D03*
X809056Y37402D02*
D03*
Y271654D02*
D03*
X7874Y531496D02*
D03*
X7874Y297244D02*
D03*
X188977Y297244D02*
D03*
Y531496D02*
D03*
X214567Y531496D02*
D03*
X214567Y297244D02*
D03*
X395670Y297244D02*
D03*
Y531496D02*
D03*
X421260Y531496D02*
D03*
X421260Y297244D02*
D03*
X602362Y297244D02*
D03*
Y531496D02*
D03*
X627953Y531496D02*
D03*
X627953Y297244D02*
D03*
X809056Y297244D02*
D03*
Y531496D02*
D03*
D107*
X126929Y102362D02*
D03*
X333622D02*
D03*
X540315D02*
D03*
X747008D02*
D03*
X126929Y362205D02*
D03*
X333622D02*
D03*
X540315D02*
D03*
X747008D02*
D03*
D108*
X106929Y102362D02*
D03*
X116929D02*
D03*
X313622D02*
D03*
X323622D02*
D03*
X520315D02*
D03*
X530315D02*
D03*
X727008D02*
D03*
X737008D02*
D03*
X106929Y362205D02*
D03*
X116929D02*
D03*
X313622D02*
D03*
X323622D02*
D03*
X520315D02*
D03*
X530315D02*
D03*
X727008D02*
D03*
X737008D02*
D03*
D109*
X10630Y207087D02*
D03*
Y174803D02*
D03*
X217323Y207087D02*
D03*
Y174803D02*
D03*
X424016Y207087D02*
D03*
Y174803D02*
D03*
X630709Y207087D02*
D03*
Y174803D02*
D03*
X10630Y466929D02*
D03*
Y434646D02*
D03*
X217323Y466929D02*
D03*
Y434646D02*
D03*
X424016Y466929D02*
D03*
Y434646D02*
D03*
X630709Y466929D02*
D03*
Y434646D02*
D03*
D110*
X10630Y183071D02*
D03*
Y190945D02*
D03*
Y198819D02*
D03*
X217323Y183071D02*
D03*
Y190945D02*
D03*
Y198819D02*
D03*
X424016Y183071D02*
D03*
Y190945D02*
D03*
Y198819D02*
D03*
X630709Y183071D02*
D03*
Y190945D02*
D03*
Y198819D02*
D03*
X10630Y442913D02*
D03*
Y450787D02*
D03*
Y458661D02*
D03*
X217323Y442913D02*
D03*
Y450787D02*
D03*
Y458661D02*
D03*
X424016Y442913D02*
D03*
Y450787D02*
D03*
Y458661D02*
D03*
X630709Y442913D02*
D03*
Y450787D02*
D03*
Y458661D02*
D03*
D111*
X13288Y157480D02*
D03*
Y141732D02*
D03*
X219981Y157480D02*
D03*
Y141732D02*
D03*
X426674Y157480D02*
D03*
Y141732D02*
D03*
X633367Y157480D02*
D03*
Y141732D02*
D03*
X13288Y417323D02*
D03*
Y401575D02*
D03*
X219981Y417323D02*
D03*
Y401575D02*
D03*
X426674Y417323D02*
D03*
Y401575D02*
D03*
X633367Y417323D02*
D03*
Y401575D02*
D03*
D112*
X18504Y135531D02*
D03*
Y163681D02*
D03*
X4921D02*
D03*
Y135531D02*
D03*
X225197D02*
D03*
Y163681D02*
D03*
X211614D02*
D03*
Y135531D02*
D03*
X431890D02*
D03*
Y163681D02*
D03*
X418307D02*
D03*
Y135531D02*
D03*
X638583D02*
D03*
Y163681D02*
D03*
X625000D02*
D03*
Y135531D02*
D03*
X18504Y395374D02*
D03*
Y423524D02*
D03*
X4921D02*
D03*
Y395374D02*
D03*
X225197D02*
D03*
Y423524D02*
D03*
X211614D02*
D03*
Y395374D02*
D03*
X431890D02*
D03*
Y423524D02*
D03*
X418307D02*
D03*
Y395374D02*
D03*
X638583D02*
D03*
Y423524D02*
D03*
X625000D02*
D03*
Y395374D02*
D03*
D113*
X97087Y278528D02*
D03*
X102087D02*
D03*
X107087D02*
D03*
X112087D02*
D03*
X117087D02*
D03*
Y30528D02*
D03*
X112087D02*
D03*
X107087D02*
D03*
X102087D02*
D03*
X97087D02*
D03*
X303780Y278528D02*
D03*
X308780D02*
D03*
X313780D02*
D03*
X318780D02*
D03*
X323780D02*
D03*
Y30528D02*
D03*
X318780D02*
D03*
X313780D02*
D03*
X308780D02*
D03*
X303780D02*
D03*
X510473Y278528D02*
D03*
X515473D02*
D03*
X520473D02*
D03*
X525473D02*
D03*
X530473D02*
D03*
Y30528D02*
D03*
X525473D02*
D03*
X520473D02*
D03*
X515473D02*
D03*
X510473D02*
D03*
X717166Y278528D02*
D03*
X722166D02*
D03*
X727166D02*
D03*
X732166D02*
D03*
X737166D02*
D03*
Y30528D02*
D03*
X732166D02*
D03*
X727166D02*
D03*
X722166D02*
D03*
X717166D02*
D03*
X97087Y538370D02*
D03*
X102087D02*
D03*
X107087D02*
D03*
X112087D02*
D03*
X117087D02*
D03*
Y290370D02*
D03*
X112087D02*
D03*
X107087D02*
D03*
X102087D02*
D03*
X97087D02*
D03*
X303780Y538370D02*
D03*
X308780D02*
D03*
X313780D02*
D03*
X318780D02*
D03*
X323780D02*
D03*
Y290370D02*
D03*
X318780D02*
D03*
X313780D02*
D03*
X308780D02*
D03*
X303780D02*
D03*
X510473Y538370D02*
D03*
X515473D02*
D03*
X520473D02*
D03*
X525473D02*
D03*
X530473D02*
D03*
Y290370D02*
D03*
X525473D02*
D03*
X520473D02*
D03*
X515473D02*
D03*
X510473D02*
D03*
X717166Y538370D02*
D03*
X722166D02*
D03*
X727166D02*
D03*
X732166D02*
D03*
X737166D02*
D03*
Y290370D02*
D03*
X732166D02*
D03*
X727166D02*
D03*
X722166D02*
D03*
X717166D02*
D03*
D114*
X156851Y79606D02*
D03*
Y69606D02*
D03*
X166850D02*
D03*
Y79606D02*
D03*
X176850D02*
D03*
Y69606D02*
D03*
X186851Y79606D02*
D03*
Y69606D02*
D03*
X146851Y79606D02*
D03*
Y69606D02*
D03*
X176850Y229606D02*
D03*
Y239606D02*
D03*
X166850D02*
D03*
Y229606D02*
D03*
X156851D02*
D03*
Y239606D02*
D03*
X146851Y229606D02*
D03*
Y239606D02*
D03*
X186851Y229606D02*
D03*
Y239606D02*
D03*
X156851Y59606D02*
D03*
Y49606D02*
D03*
X166850D02*
D03*
Y59606D02*
D03*
X176850D02*
D03*
Y49606D02*
D03*
X186851Y59606D02*
D03*
Y49606D02*
D03*
X146851Y59606D02*
D03*
Y49606D02*
D03*
X176850Y249606D02*
D03*
Y259606D02*
D03*
X166850D02*
D03*
Y249606D02*
D03*
X156851D02*
D03*
Y259606D02*
D03*
X146851Y249606D02*
D03*
Y259606D02*
D03*
X186851Y249606D02*
D03*
Y259606D02*
D03*
X363544Y79606D02*
D03*
Y69606D02*
D03*
X373544D02*
D03*
Y79606D02*
D03*
X383543D02*
D03*
Y69606D02*
D03*
X393544Y79606D02*
D03*
Y69606D02*
D03*
X353543Y79606D02*
D03*
Y69606D02*
D03*
X383543Y229606D02*
D03*
Y239606D02*
D03*
X373544D02*
D03*
Y229606D02*
D03*
X363544D02*
D03*
Y239606D02*
D03*
X353543Y229606D02*
D03*
Y239606D02*
D03*
X393544Y229606D02*
D03*
Y239606D02*
D03*
X363544Y59606D02*
D03*
Y49606D02*
D03*
X373544D02*
D03*
Y59606D02*
D03*
X383543D02*
D03*
Y49606D02*
D03*
X393544Y59606D02*
D03*
Y49606D02*
D03*
X353543Y59606D02*
D03*
Y49606D02*
D03*
X383543Y249606D02*
D03*
Y259606D02*
D03*
X373544D02*
D03*
Y249606D02*
D03*
X363544D02*
D03*
Y259606D02*
D03*
X353543Y249606D02*
D03*
Y259606D02*
D03*
X393544Y249606D02*
D03*
Y259606D02*
D03*
X570236Y79606D02*
D03*
Y69606D02*
D03*
X580236D02*
D03*
Y79606D02*
D03*
X590237D02*
D03*
Y69606D02*
D03*
X600237Y79606D02*
D03*
Y69606D02*
D03*
X560237Y79606D02*
D03*
Y69606D02*
D03*
X590237Y229606D02*
D03*
Y239606D02*
D03*
X580236D02*
D03*
Y229606D02*
D03*
X570236D02*
D03*
Y239606D02*
D03*
X560237Y229606D02*
D03*
Y239606D02*
D03*
X600237Y229606D02*
D03*
Y239606D02*
D03*
X570236Y59606D02*
D03*
Y49606D02*
D03*
X580236D02*
D03*
Y59606D02*
D03*
X590237D02*
D03*
Y49606D02*
D03*
X600237Y59606D02*
D03*
Y49606D02*
D03*
X560237Y59606D02*
D03*
Y49606D02*
D03*
X590237Y249606D02*
D03*
Y259606D02*
D03*
X580236D02*
D03*
Y249606D02*
D03*
X570236D02*
D03*
Y259606D02*
D03*
X560237Y249606D02*
D03*
Y259606D02*
D03*
X600237Y249606D02*
D03*
Y259606D02*
D03*
X776930Y79606D02*
D03*
Y69606D02*
D03*
X786930D02*
D03*
Y79606D02*
D03*
X796930D02*
D03*
Y69606D02*
D03*
X806929Y79606D02*
D03*
Y69606D02*
D03*
X766929Y79606D02*
D03*
Y69606D02*
D03*
X796930Y229606D02*
D03*
Y239606D02*
D03*
X786930D02*
D03*
Y229606D02*
D03*
X776930D02*
D03*
Y239606D02*
D03*
X766929Y229606D02*
D03*
Y239606D02*
D03*
X806929Y229606D02*
D03*
Y239606D02*
D03*
X776930Y59606D02*
D03*
Y49606D02*
D03*
X786930D02*
D03*
Y59606D02*
D03*
X796930D02*
D03*
Y49606D02*
D03*
X806929Y59606D02*
D03*
Y49606D02*
D03*
X766929Y59606D02*
D03*
Y49606D02*
D03*
X796930Y249606D02*
D03*
Y259606D02*
D03*
X786930D02*
D03*
Y249606D02*
D03*
X776930D02*
D03*
Y259606D02*
D03*
X766929Y249606D02*
D03*
Y259606D02*
D03*
X806929Y249606D02*
D03*
Y259606D02*
D03*
X156851Y339449D02*
D03*
Y329449D02*
D03*
X166850D02*
D03*
Y339449D02*
D03*
X176850D02*
D03*
Y329449D02*
D03*
X186851Y339449D02*
D03*
Y329449D02*
D03*
X146851Y339449D02*
D03*
Y329449D02*
D03*
X176850Y489449D02*
D03*
Y499449D02*
D03*
X166850D02*
D03*
Y489449D02*
D03*
X156851D02*
D03*
Y499449D02*
D03*
X146851Y489449D02*
D03*
Y499449D02*
D03*
X186851Y489449D02*
D03*
Y499449D02*
D03*
X156851Y319449D02*
D03*
Y309449D02*
D03*
X166850D02*
D03*
Y319449D02*
D03*
X176850D02*
D03*
Y309449D02*
D03*
X186851Y319449D02*
D03*
Y309449D02*
D03*
X146851Y319449D02*
D03*
Y309449D02*
D03*
X176850Y509449D02*
D03*
Y519449D02*
D03*
X166850D02*
D03*
Y509449D02*
D03*
X156851D02*
D03*
Y519449D02*
D03*
X146851Y509449D02*
D03*
Y519449D02*
D03*
X186851Y509449D02*
D03*
Y519449D02*
D03*
X363544Y339449D02*
D03*
Y329449D02*
D03*
X373544D02*
D03*
Y339449D02*
D03*
X383543D02*
D03*
Y329449D02*
D03*
X393544Y339449D02*
D03*
Y329449D02*
D03*
X353543Y339449D02*
D03*
Y329449D02*
D03*
X383543Y489449D02*
D03*
Y499449D02*
D03*
X373544D02*
D03*
Y489449D02*
D03*
X363544D02*
D03*
Y499449D02*
D03*
X353543Y489449D02*
D03*
Y499449D02*
D03*
X393544Y489449D02*
D03*
Y499449D02*
D03*
X363544Y319449D02*
D03*
Y309449D02*
D03*
X373544D02*
D03*
Y319449D02*
D03*
X383543D02*
D03*
Y309449D02*
D03*
X393544Y319449D02*
D03*
Y309449D02*
D03*
X353543Y319449D02*
D03*
Y309449D02*
D03*
X383543Y509449D02*
D03*
Y519449D02*
D03*
X373544D02*
D03*
Y509449D02*
D03*
X363544D02*
D03*
Y519449D02*
D03*
X353543Y509449D02*
D03*
Y519449D02*
D03*
X393544Y509449D02*
D03*
Y519449D02*
D03*
X570236Y339449D02*
D03*
Y329449D02*
D03*
X580236D02*
D03*
Y339449D02*
D03*
X590237D02*
D03*
Y329449D02*
D03*
X600237Y339449D02*
D03*
Y329449D02*
D03*
X560237Y339449D02*
D03*
Y329449D02*
D03*
X590237Y489449D02*
D03*
Y499449D02*
D03*
X580236D02*
D03*
Y489449D02*
D03*
X570236D02*
D03*
Y499449D02*
D03*
X560237Y489449D02*
D03*
Y499449D02*
D03*
X600237Y489449D02*
D03*
Y499449D02*
D03*
X570236Y319449D02*
D03*
Y309449D02*
D03*
X580236D02*
D03*
Y319449D02*
D03*
X590237D02*
D03*
Y309449D02*
D03*
X600237Y319449D02*
D03*
Y309449D02*
D03*
X560237Y319449D02*
D03*
Y309449D02*
D03*
X590237Y509449D02*
D03*
Y519449D02*
D03*
X580236D02*
D03*
Y509449D02*
D03*
X570236D02*
D03*
Y519449D02*
D03*
X560237Y509449D02*
D03*
Y519449D02*
D03*
X600237Y509449D02*
D03*
Y519449D02*
D03*
X776930Y339449D02*
D03*
Y329449D02*
D03*
X786930D02*
D03*
Y339449D02*
D03*
X796930D02*
D03*
Y329449D02*
D03*
X806929Y339449D02*
D03*
Y329449D02*
D03*
X766929Y339449D02*
D03*
Y329449D02*
D03*
X796930Y489449D02*
D03*
Y499449D02*
D03*
X786930D02*
D03*
Y489449D02*
D03*
X776930D02*
D03*
Y499449D02*
D03*
X766929Y489449D02*
D03*
Y499449D02*
D03*
X806929Y489449D02*
D03*
Y499449D02*
D03*
X776930Y319449D02*
D03*
Y309449D02*
D03*
X786930D02*
D03*
Y319449D02*
D03*
X796930D02*
D03*
Y309449D02*
D03*
X806929Y319449D02*
D03*
Y309449D02*
D03*
X766929Y319449D02*
D03*
Y309449D02*
D03*
X796930Y509449D02*
D03*
Y519449D02*
D03*
X786930D02*
D03*
Y509449D02*
D03*
X776930D02*
D03*
Y519449D02*
D03*
X766929Y509449D02*
D03*
Y519449D02*
D03*
X806929Y509449D02*
D03*
Y519449D02*
D03*
D115*
X89764Y52866D02*
D03*
X124410Y52807D02*
D03*
X124409Y256189D02*
D03*
X89764Y256248D02*
D03*
X296457Y52866D02*
D03*
X331103Y52807D02*
D03*
X331102Y256189D02*
D03*
X296457Y256248D02*
D03*
X503150Y52866D02*
D03*
X537796Y52807D02*
D03*
X537795Y256189D02*
D03*
X503150Y256248D02*
D03*
X709843Y52866D02*
D03*
X744489Y52807D02*
D03*
X744488Y256189D02*
D03*
X709843Y256248D02*
D03*
X89764Y312709D02*
D03*
X124410Y312650D02*
D03*
X124409Y516032D02*
D03*
X89764Y516091D02*
D03*
X296457Y312709D02*
D03*
X331103Y312650D02*
D03*
X331102Y516032D02*
D03*
X296457Y516091D02*
D03*
X503150Y312709D02*
D03*
X537796Y312650D02*
D03*
X537795Y516032D02*
D03*
X503150Y516091D02*
D03*
X709843Y312709D02*
D03*
X744489Y312650D02*
D03*
X744488Y516032D02*
D03*
X709843Y516091D02*
D03*
D116*
X97244Y80366D02*
D03*
X107087D02*
D03*
X116929D02*
D03*
X116929Y228689D02*
D03*
X107087D02*
D03*
X97244D02*
D03*
X303937Y80366D02*
D03*
X313780D02*
D03*
X323622D02*
D03*
X323622Y228689D02*
D03*
X313780D02*
D03*
X303937D02*
D03*
X510630Y80366D02*
D03*
X520473D02*
D03*
X530315D02*
D03*
X530315Y228689D02*
D03*
X520473D02*
D03*
X510630D02*
D03*
X717323Y80366D02*
D03*
X727166D02*
D03*
X737008D02*
D03*
X737008Y228689D02*
D03*
X727166D02*
D03*
X717323D02*
D03*
X97244Y340209D02*
D03*
X107087D02*
D03*
X116929D02*
D03*
X116929Y488531D02*
D03*
X107087D02*
D03*
X97244D02*
D03*
X303937Y340209D02*
D03*
X313780D02*
D03*
X323622D02*
D03*
X323622Y488531D02*
D03*
X313780D02*
D03*
X303937D02*
D03*
X510630Y340209D02*
D03*
X520473D02*
D03*
X530315D02*
D03*
X530315Y488531D02*
D03*
X520473D02*
D03*
X510630D02*
D03*
X717323Y340209D02*
D03*
X727166D02*
D03*
X737008D02*
D03*
X737008Y488531D02*
D03*
X727166D02*
D03*
X717323D02*
D03*
D117*
X5512Y106693D02*
D03*
X212205D02*
D03*
X418898D02*
D03*
X625591D02*
D03*
X5512Y366535D02*
D03*
X212205D02*
D03*
X418898D02*
D03*
X625591D02*
D03*
D118*
X183858Y174528D02*
D03*
Y154528D02*
D03*
Y134528D02*
D03*
Y194528D02*
D03*
Y114528D02*
D03*
X390551Y174528D02*
D03*
Y154528D02*
D03*
Y134528D02*
D03*
Y194528D02*
D03*
Y114528D02*
D03*
X597244Y174528D02*
D03*
Y154528D02*
D03*
Y134528D02*
D03*
Y194528D02*
D03*
Y114528D02*
D03*
X803937Y174528D02*
D03*
Y154528D02*
D03*
Y134528D02*
D03*
Y194528D02*
D03*
Y114528D02*
D03*
X183858Y434370D02*
D03*
Y414370D02*
D03*
Y394370D02*
D03*
Y454370D02*
D03*
Y374370D02*
D03*
X390551Y434370D02*
D03*
Y414370D02*
D03*
Y394370D02*
D03*
Y454370D02*
D03*
Y374370D02*
D03*
X597244Y434370D02*
D03*
Y414370D02*
D03*
Y394370D02*
D03*
Y454370D02*
D03*
Y374370D02*
D03*
X803937Y434370D02*
D03*
Y414370D02*
D03*
Y394370D02*
D03*
Y454370D02*
D03*
Y374370D02*
D03*
D119*
X42126Y38976D02*
D03*
X248819D02*
D03*
X455512D02*
D03*
X662205D02*
D03*
X42126Y298819D02*
D03*
X248819D02*
D03*
X455512D02*
D03*
X662205D02*
D03*
D120*
X65650Y155512D02*
D03*
X72540D02*
D03*
X272343D02*
D03*
X279233D02*
D03*
X479036D02*
D03*
X485925D02*
D03*
X685729D02*
D03*
X692619D02*
D03*
X65650Y415354D02*
D03*
X72540D02*
D03*
X272343D02*
D03*
X279233D02*
D03*
X479036D02*
D03*
X485925D02*
D03*
X685729D02*
D03*
X692619D02*
D03*
M02*
