G04*
G04 #@! TF.GenerationSoftware,Altium Limited,Altium Designer,21.2.2 (38)*
G04*
G04 Layer_Color=8388736*
%FSLAX25Y25*%
%MOIN*%
G70*
G04*
G04 #@! TF.SameCoordinates,9478AF75-F406-41B2-BF1A-F2BA18401FE8*
G04*
G04*
G04 #@! TF.FilePolarity,Negative*
G04*
G01*
G75*
%ADD17R,0.04528X0.04331*%
%ADD18R,0.04331X0.04528*%
%ADD19R,0.03228X0.03228*%
%ADD20R,0.05512X0.06299*%
%ADD21R,0.06299X0.05512*%
%ADD22R,0.04528X0.04724*%
%ADD23R,0.04724X0.04528*%
%ADD24R,0.03228X0.03032*%
%ADD25O,0.06772X0.03150*%
%ADD26O,0.06496X0.03150*%
%ADD27R,0.10236X0.06890*%
%ADD28R,0.03150X0.04528*%
%ADD29R,0.04528X0.03150*%
%ADD30R,0.04724X0.03347*%
%ADD31R,0.03347X0.04724*%
%ADD32R,0.10827X0.16535*%
%ADD33R,0.07284X0.14370*%
%ADD34C,0.03150*%
%ADD35C,0.02756*%
%ADD36R,0.03937X0.03937*%
%ADD37R,0.05287X0.08787*%
%ADD38R,0.07480X0.05315*%
%ADD39R,0.22047X0.12205*%
%ADD40R,0.05709X0.06299*%
%ADD41R,0.06299X0.02362*%
%ADD42R,0.03937X0.03937*%
%ADD43C,0.08858*%
%ADD44C,0.06787*%
%ADD45O,0.08661X0.07087*%
%ADD46C,0.06693*%
%ADD47O,0.10630X0.12598*%
%ADD48C,0.07874*%
%ADD49C,0.05787*%
%ADD50R,0.05787X0.05787*%
%ADD51O,0.07480X0.04724*%
%ADD52C,0.03543*%
%ADD53R,0.05787X0.05787*%
D17*
X69784Y258858D02*
D03*
X64075D02*
D03*
X63878Y37598D02*
D03*
X58169D02*
D03*
X76772Y230118D02*
D03*
X71063D02*
D03*
X82874Y236024D02*
D03*
X88583D02*
D03*
Y230118D02*
D03*
X82874D02*
D03*
X103445Y59055D02*
D03*
X109153D02*
D03*
X69784Y247047D02*
D03*
X64075D02*
D03*
X69784Y252953D02*
D03*
X64075D02*
D03*
X71358Y25591D02*
D03*
X65650D02*
D03*
X63878Y31693D02*
D03*
X58169D02*
D03*
X44390Y26969D02*
D03*
X50098D02*
D03*
X167323Y209921D02*
D03*
X161614D02*
D03*
X199114Y201181D02*
D03*
X204823D02*
D03*
X75886Y262598D02*
D03*
X81595D02*
D03*
X58169Y43504D02*
D03*
X63878D02*
D03*
X146555Y82677D02*
D03*
X140847D02*
D03*
X103445Y53150D02*
D03*
X109153D02*
D03*
X96555Y262598D02*
D03*
X90847D02*
D03*
X109153Y47244D02*
D03*
X103445D02*
D03*
X90453Y26772D02*
D03*
X96161D02*
D03*
X76772Y236024D02*
D03*
X71063D02*
D03*
X91634Y59055D02*
D03*
X97342D02*
D03*
D18*
X110236Y65256D02*
D03*
Y70965D02*
D03*
X41535Y254823D02*
D03*
Y249114D02*
D03*
X61024Y199705D02*
D03*
Y193996D02*
D03*
X47244Y111122D02*
D03*
Y105413D02*
D03*
X96457Y241043D02*
D03*
Y235335D02*
D03*
X92126Y249114D02*
D03*
Y254823D02*
D03*
X111122Y34547D02*
D03*
Y40256D02*
D03*
X89764Y33760D02*
D03*
Y39469D02*
D03*
X66929Y193996D02*
D03*
Y199705D02*
D03*
D19*
X156260Y188189D02*
D03*
X160276D02*
D03*
X188150Y103937D02*
D03*
X192165D02*
D03*
D20*
X160433Y194095D02*
D03*
X153740D02*
D03*
X187205Y90158D02*
D03*
X193898D02*
D03*
D21*
X64961Y122638D02*
D03*
Y129331D02*
D03*
D22*
X110236Y223425D02*
D03*
Y217520D02*
D03*
X70866Y65945D02*
D03*
Y71850D02*
D03*
D23*
X57087Y261811D02*
D03*
X51181D02*
D03*
X50197Y49409D02*
D03*
X44291D02*
D03*
D24*
X110236Y76831D02*
D03*
Y80650D02*
D03*
X68898Y220532D02*
D03*
Y224350D02*
D03*
D25*
X99410Y209035D02*
D03*
Y214035D02*
D03*
Y219035D02*
D03*
Y224035D02*
D03*
X77756Y209035D02*
D03*
Y214035D02*
D03*
Y219035D02*
D03*
Y224035D02*
D03*
X101378Y65335D02*
D03*
Y70335D02*
D03*
Y75335D02*
D03*
Y80335D02*
D03*
X79724Y65335D02*
D03*
Y70335D02*
D03*
Y75335D02*
D03*
Y80335D02*
D03*
X168307Y203563D02*
D03*
Y198563D02*
D03*
Y193563D02*
D03*
Y188563D02*
D03*
X189961Y203563D02*
D03*
Y198563D02*
D03*
Y193563D02*
D03*
Y188563D02*
D03*
D26*
X178839Y87776D02*
D03*
Y92776D02*
D03*
Y97776D02*
D03*
Y102776D02*
D03*
X157382Y87776D02*
D03*
Y92776D02*
D03*
Y97776D02*
D03*
Y102776D02*
D03*
D27*
X129724Y192126D02*
D03*
X141929D02*
D03*
Y205118D02*
D03*
X129724D02*
D03*
X141929Y99213D02*
D03*
X129724D02*
D03*
D28*
X84449Y256594D02*
D03*
X76968D02*
D03*
X80709Y247342D02*
D03*
D29*
X70177Y41339D02*
D03*
Y33858D02*
D03*
X79429Y37598D02*
D03*
X89862Y149409D02*
D03*
Y141929D02*
D03*
X99114Y145669D02*
D03*
X110925Y232480D02*
D03*
Y239961D02*
D03*
X101673Y236221D02*
D03*
X97736Y255709D02*
D03*
Y248228D02*
D03*
X106988Y251969D02*
D03*
X93209Y45472D02*
D03*
Y52953D02*
D03*
X83957Y49213D02*
D03*
X105020Y33661D02*
D03*
Y41142D02*
D03*
X95768Y37402D02*
D03*
D30*
X56890Y251969D02*
D03*
X47441Y248228D02*
D03*
Y255709D02*
D03*
D31*
X47244Y42323D02*
D03*
X50984Y32874D02*
D03*
X43504D02*
D03*
D32*
X129823Y155512D02*
D03*
X153642D02*
D03*
Y175197D02*
D03*
X129823D02*
D03*
X191043Y175197D02*
D03*
X167224D02*
D03*
Y155512D02*
D03*
X191043D02*
D03*
X167224Y116142D02*
D03*
X191043D02*
D03*
Y135827D02*
D03*
X167224D02*
D03*
X153642Y135827D02*
D03*
X129823D02*
D03*
Y116142D02*
D03*
X153642D02*
D03*
D33*
X51181Y66535D02*
D03*
Y87008D02*
D03*
Y214173D02*
D03*
Y234646D02*
D03*
D34*
X70866Y78740D02*
D03*
X171260Y259842D02*
D03*
X129921Y88583D02*
D03*
X66929Y153543D02*
D03*
X61024Y148622D02*
D03*
X118110Y210630D02*
D03*
X152559D02*
D03*
X110236D02*
D03*
X138150Y89921D02*
D03*
X173228Y31496D02*
D03*
D35*
X58961Y133934D02*
D03*
X62992Y137795D02*
D03*
X61024Y141732D02*
D03*
D36*
X108465Y262598D02*
D03*
X102559D02*
D03*
Y26772D02*
D03*
X108465D02*
D03*
D37*
X67585Y144685D02*
D03*
X78085D02*
D03*
D38*
X64961Y159843D02*
D03*
Y170866D02*
D03*
X61024Y102756D02*
D03*
Y113779D02*
D03*
D39*
X96457Y198622D02*
D03*
Y159646D02*
D03*
Y131693D02*
D03*
Y92716D02*
D03*
D40*
X153839Y201969D02*
D03*
X160335D02*
D03*
X187303Y98032D02*
D03*
X193799D02*
D03*
D41*
X51181Y134646D02*
D03*
Y137205D02*
D03*
Y139764D02*
D03*
Y142323D02*
D03*
Y144882D02*
D03*
D42*
X41339Y105315D02*
D03*
Y111221D02*
D03*
D43*
X218504Y164685D02*
D03*
Y144685D02*
D03*
Y124685D02*
D03*
Y184685D02*
D03*
Y104685D02*
D03*
D44*
X45276Y188976D02*
D03*
Y181102D02*
D03*
Y173228D02*
D03*
D45*
Y165354D02*
D03*
Y196850D02*
D03*
D46*
X62008Y52165D02*
D03*
D47*
X124409Y43024D02*
D03*
X159055Y42965D02*
D03*
X159055Y246346D02*
D03*
X124409Y246406D02*
D03*
D48*
X131890Y70524D02*
D03*
X141732D02*
D03*
X151575D02*
D03*
X151575Y218847D02*
D03*
X141732D02*
D03*
X131890D02*
D03*
D49*
X190945Y66772D02*
D03*
X180945D02*
D03*
X190945Y76772D02*
D03*
Y214567D02*
D03*
X180945D02*
D03*
X190945Y224567D02*
D03*
X191496Y49764D02*
D03*
Y39764D02*
D03*
X201496D02*
D03*
Y49764D02*
D03*
X211496D02*
D03*
Y39764D02*
D03*
X221496Y49764D02*
D03*
X181496D02*
D03*
Y39764D02*
D03*
X211496Y239606D02*
D03*
Y249606D02*
D03*
X201496D02*
D03*
Y239606D02*
D03*
X191496D02*
D03*
Y249606D02*
D03*
X181496Y239606D02*
D03*
X221496D02*
D03*
Y249606D02*
D03*
D50*
X180945Y76772D02*
D03*
Y224567D02*
D03*
D51*
X39567Y125689D02*
D03*
Y153839D02*
D03*
X53149D02*
D03*
Y125689D02*
D03*
D52*
X47933Y131890D02*
D03*
Y147638D02*
D03*
D53*
X221496Y39764D02*
D03*
X181496Y249606D02*
D03*
M02*
