G04*
G04 #@! TF.GenerationSoftware,Altium Limited,Altium Designer,21.2.2 (38)*
G04*
G04 Layer_Physical_Order=1*
G04 Layer_Color=255*
%FSLAX25Y25*%
%MOIN*%
G70*
G04*
G04 #@! TF.SameCoordinates,9478AF75-F406-41B2-BF1A-F2BA18401FE8*
G04*
G04*
G04 #@! TF.FilePolarity,Positive*
G04*
G01*
G75*
%ADD11C,0.02362*%
%ADD54R,0.03740X0.03543*%
%ADD55R,0.03543X0.03740*%
%ADD56R,0.02441X0.02441*%
%ADD57R,0.04724X0.05512*%
%ADD58R,0.05512X0.04724*%
%ADD59R,0.03740X0.03937*%
%ADD60R,0.03937X0.03740*%
%ADD61R,0.02441X0.02244*%
%ADD62O,0.05984X0.02362*%
%ADD63O,0.05709X0.02362*%
%ADD64R,0.09449X0.06102*%
%ADD65R,0.02362X0.03740*%
%ADD66R,0.03740X0.02362*%
%ADD67R,0.03937X0.02559*%
%ADD68R,0.02559X0.03937*%
%ADD69R,0.10039X0.15748*%
%ADD70R,0.06496X0.13583*%
%ADD71C,0.02362*%
%ADD72C,0.01968*%
%ADD73R,0.03150X0.03150*%
%ADD74R,0.04500X0.08000*%
%ADD75R,0.06693X0.04528*%
%ADD76R,0.21260X0.11417*%
%ADD77R,0.04921X0.05512*%
%ADD78R,0.05512X0.01575*%
%ADD79R,0.03150X0.03150*%
%ADD80C,0.01500*%
%ADD81C,0.01575*%
%ADD82C,0.01968*%
%ADD83C,0.03937*%
%ADD84C,0.09843*%
%ADD85C,0.05906*%
%ADD86C,0.03150*%
%ADD87C,0.06299*%
%ADD88C,0.08071*%
%ADD89C,0.06000*%
%ADD90O,0.07874X0.06299*%
%ADD91C,0.05906*%
%ADD92O,0.09843X0.11811*%
%ADD93C,0.07087*%
%ADD94C,0.05000*%
%ADD95R,0.05000X0.05000*%
%ADD96O,0.06693X0.03937*%
%ADD97C,0.02756*%
%ADD98R,0.05000X0.05000*%
%ADD99C,0.04724*%
%ADD100C,0.03150*%
G36*
X51550Y259965D02*
X51424Y260048D01*
X51277Y260088D01*
X51108Y260085D01*
X50918Y260037D01*
X50706Y259947D01*
X50472Y259812D01*
X50217Y259634D01*
X49941Y259413D01*
X49323Y258839D01*
X48111Y259855D01*
X48428Y260183D01*
X48927Y260769D01*
X49108Y261027D01*
X49243Y261262D01*
X49333Y261473D01*
X49377Y261660D01*
X49376Y261824D01*
X49329Y261965D01*
X49237Y262082D01*
X51550Y259965D01*
D02*
G37*
G36*
X108413Y261031D02*
X108280Y260982D01*
X108161Y260902D01*
X108059Y260791D01*
X107972Y260648D01*
X107902Y260474D01*
X107846Y260268D01*
X107807Y260030D01*
X107783Y259761D01*
X107776Y259461D01*
X106201D01*
X106902Y261036D01*
X108563Y261048D01*
X108413Y261031D01*
D02*
G37*
G36*
X170511Y258929D02*
X170466Y258953D01*
X170393Y258975D01*
X170293Y258994D01*
X170164Y259010D01*
X169823Y259035D01*
X168805Y259055D01*
Y260630D01*
X169101Y260631D01*
X170393Y260710D01*
X170466Y260732D01*
X170511Y260756D01*
Y258929D01*
D02*
G37*
G36*
X58315Y259949D02*
X58181Y259901D01*
X58063Y259822D01*
X57961Y259711D01*
X57874Y259568D01*
X57803Y259394D01*
X57748Y259187D01*
X57709Y258949D01*
X57685Y258680D01*
X57677Y258378D01*
X56102D01*
X56094Y258680D01*
X56071Y258949D01*
X56032Y259187D01*
X55976Y259394D01*
X55905Y259568D01*
X55819Y259711D01*
X55717Y259822D01*
X55598Y259901D01*
X55465Y259949D01*
X55315Y259965D01*
X58465D01*
X58315Y259949D01*
D02*
G37*
G36*
X123589Y259055D02*
X123279Y259044D01*
X122978Y259011D01*
X122686Y258955D01*
X122403Y258877D01*
X122130Y258777D01*
X121865Y258654D01*
X121610Y258509D01*
X121365Y258342D01*
X121128Y258153D01*
X120901Y257942D01*
X121688Y259842D01*
X123589Y259055D01*
D02*
G37*
G36*
X172450Y259910D02*
X172486Y259843D01*
X172544Y259759D01*
X172623Y259657D01*
X172847Y259398D01*
X173553Y258663D01*
X172439Y257550D01*
X172229Y257758D01*
X171259Y258616D01*
X171192Y258652D01*
X171144Y258667D01*
X172435Y259958D01*
X172450Y259910D01*
D02*
G37*
G36*
X48231Y257861D02*
X48256Y257506D01*
X48278Y257363D01*
X48305Y257241D01*
X48339Y257141D01*
X48379Y257064D01*
X48425Y257009D01*
X48477Y256975D01*
X48536Y256964D01*
X46346D01*
X46405Y256975D01*
X46457Y257009D01*
X46503Y257064D01*
X46543Y257141D01*
X46577Y257241D01*
X46604Y257363D01*
X46626Y257506D01*
X46641Y257673D01*
X46654Y258071D01*
X48228D01*
X48231Y257861D01*
D02*
G37*
G36*
X45484Y254441D02*
X45469Y254532D01*
X45421Y254614D01*
X45343Y254686D01*
X45232Y254748D01*
X45091Y254801D01*
X44918Y254844D01*
X44713Y254878D01*
X44477Y254902D01*
X44450Y254903D01*
X44300Y254890D01*
X44062Y254850D01*
X43856Y254795D01*
X43682Y254724D01*
X43539Y254638D01*
X43428Y254535D01*
X43348Y254417D01*
X43300Y254283D01*
X43283Y254134D01*
X43295Y256681D01*
X43311Y256646D01*
X43358Y256614D01*
X43437Y256587D01*
X43547Y256563D01*
X43689Y256542D01*
X44067Y256513D01*
X44301Y256508D01*
X44713Y256539D01*
X44918Y256573D01*
X45091Y256616D01*
X45232Y256669D01*
X45343Y256731D01*
X45421Y256803D01*
X45469Y256885D01*
X45484Y256976D01*
Y254441D01*
D02*
G37*
G36*
X70492Y255925D02*
X70514Y255668D01*
X70552Y255441D01*
X70604Y255245D01*
X70672Y255078D01*
X70754Y254942D01*
X70852Y254837D01*
X70964Y254761D01*
X71092Y254715D01*
X71234Y254700D01*
X68234D01*
X68377Y254715D01*
X68504Y254761D01*
X68617Y254837D01*
X68714Y254942D01*
X68797Y255078D01*
X68864Y255245D01*
X68917Y255441D01*
X68954Y255668D01*
X68977Y255925D01*
X68984Y256212D01*
X70484D01*
X70492Y255925D01*
D02*
G37*
G36*
X64919Y255986D02*
X64943Y255716D01*
X64982Y255478D01*
X65037Y255272D01*
X65108Y255097D01*
X65195Y254954D01*
X65297Y254843D01*
X65415Y254764D01*
X65549Y254716D01*
X65699Y254700D01*
X62549D01*
X62699Y254716D01*
X62833Y254764D01*
X62951Y254843D01*
X63053Y254954D01*
X63140Y255097D01*
X63211Y255272D01*
X63266Y255478D01*
X63305Y255716D01*
X63329Y255986D01*
X63337Y256287D01*
X64911D01*
X64919Y255986D01*
D02*
G37*
G36*
X78053Y256741D02*
X78010Y256603D01*
Y256444D01*
X78053Y256264D01*
X78138Y256062D01*
X78265Y255839D01*
X78435Y255595D01*
X78647Y255330D01*
X79198Y254736D01*
X78138Y253676D01*
X77830Y253973D01*
X77279Y254439D01*
X77034Y254609D01*
X76812Y254736D01*
X76610Y254821D01*
X76430Y254864D01*
X76271D01*
X76133Y254821D01*
X76016Y254736D01*
X78138Y256858D01*
X78053Y256741D01*
D02*
G37*
G36*
X49308Y256546D02*
X49264Y256401D01*
Y256234D01*
X49308Y256045D01*
X49397Y255833D01*
X49531Y255599D01*
X49709Y255343D01*
X49932Y255065D01*
X50511Y254441D01*
X49397Y253328D01*
X49075Y253639D01*
X48496Y254129D01*
X48239Y254308D01*
X48006Y254441D01*
X47794Y254530D01*
X47605Y254575D01*
X47438D01*
X47293Y254530D01*
X47170Y254441D01*
X49397Y256668D01*
X49308Y256546D01*
D02*
G37*
G36*
X57685Y254509D02*
X57709Y254240D01*
X57748Y254002D01*
X57803Y253795D01*
X57874Y253621D01*
X57961Y253478D01*
X58063Y253367D01*
X58181Y253288D01*
X58315Y253240D01*
X58465Y253224D01*
X55315D01*
X55465Y253240D01*
X55598Y253288D01*
X55717Y253367D01*
X55819Y253478D01*
X55905Y253621D01*
X55976Y253795D01*
X56032Y254002D01*
X56071Y254240D01*
X56094Y254509D01*
X56102Y254811D01*
X57677D01*
X57685Y254509D01*
D02*
G37*
G36*
X229890Y250694D02*
X225954Y250436D01*
X225907Y250788D01*
X225451Y251890D01*
X224725Y252835D01*
X223779Y253561D01*
X222678Y254017D01*
X221496Y254173D01*
X181496D01*
X181495Y254173D01*
X181397Y254182D01*
X181195Y254236D01*
X180895Y254358D01*
X180514Y254559D01*
X180063Y254842D01*
X179579Y255189D01*
X177689Y256815D01*
X176986Y257501D01*
X176944Y257528D01*
X174736Y259736D01*
X174710Y259776D01*
X174034Y260479D01*
X173901Y260634D01*
X173828Y260906D01*
X173828Y260906D01*
X173465Y261535D01*
X173465Y261535D01*
X172952Y262048D01*
X172324Y262411D01*
X171623Y262598D01*
X170897D01*
X170897Y262598D01*
X170196Y262411D01*
X170196Y262411D01*
X169995Y262295D01*
X169049Y262237D01*
X168798Y262236D01*
X168746Y262225D01*
X123851D01*
X122376Y264142D01*
X124259Y268079D01*
X229890D01*
Y250694D01*
D02*
G37*
G36*
X71141Y251190D02*
X71013Y251145D01*
X70901Y251069D01*
X70803Y250963D01*
X70721Y250827D01*
X70653Y250661D01*
X70601Y250464D01*
X70564Y250237D01*
X70543Y250000D01*
X70564Y249763D01*
X70601Y249536D01*
X70653Y249339D01*
X70721Y249173D01*
X70803Y249037D01*
X70901Y248931D01*
X71013Y248855D01*
X71141Y248810D01*
X71284Y248795D01*
X68283D01*
X68426Y248810D01*
X68554Y248855D01*
X68666Y248931D01*
X68764Y249037D01*
X68846Y249173D01*
X68914Y249339D01*
X68966Y249536D01*
X69003Y249763D01*
X69024Y250000D01*
X69003Y250237D01*
X68966Y250464D01*
X68914Y250661D01*
X68846Y250827D01*
X68764Y250963D01*
X68666Y251069D01*
X68554Y251145D01*
X68426Y251190D01*
X68283Y251205D01*
X71284D01*
X71141Y251190D01*
D02*
G37*
G36*
X43300Y249654D02*
X43348Y249520D01*
X43428Y249402D01*
X43539Y249299D01*
X43682Y249213D01*
X43856Y249142D01*
X44062Y249087D01*
X44300Y249047D01*
X44420Y249037D01*
X44713Y249059D01*
X44918Y249093D01*
X45091Y249136D01*
X45232Y249189D01*
X45343Y249251D01*
X45421Y249323D01*
X45469Y249405D01*
X45484Y249496D01*
Y246961D01*
X45469Y247052D01*
X45421Y247134D01*
X45343Y247206D01*
X45232Y247268D01*
X45091Y247321D01*
X44918Y247364D01*
X44713Y247398D01*
X44477Y247422D01*
X44359Y247426D01*
X43547Y247374D01*
X43437Y247350D01*
X43358Y247323D01*
X43311Y247291D01*
X43295Y247256D01*
X43283Y249803D01*
X43300Y249654D01*
D02*
G37*
G36*
X62217Y245472D02*
X62201Y245622D01*
X62154Y245756D01*
X62075Y245874D01*
X61965Y245976D01*
X61823Y246063D01*
X61650Y246134D01*
X61445Y246189D01*
X61209Y246228D01*
X60941Y246252D01*
X60642Y246260D01*
Y247835D01*
X60941Y247843D01*
X61209Y247866D01*
X61445Y247905D01*
X61650Y247961D01*
X61823Y248031D01*
X61965Y248118D01*
X62075Y248220D01*
X62154Y248339D01*
X62201Y248472D01*
X62217Y248622D01*
Y245472D01*
D02*
G37*
G36*
X71043Y245285D02*
X70915Y245239D01*
X70803Y245163D01*
X70705Y245058D01*
X70623Y244922D01*
X70555Y244755D01*
X70503Y244559D01*
X70465Y244332D01*
X70443Y244075D01*
X70435Y243788D01*
X68935D01*
X68928Y244075D01*
X68905Y244332D01*
X68868Y244559D01*
X68815Y244755D01*
X68748Y244922D01*
X68665Y245058D01*
X68568Y245163D01*
X68455Y245239D01*
X68328Y245285D01*
X68185Y245300D01*
X71185D01*
X71043Y245285D01*
D02*
G37*
G36*
X176603Y255631D02*
X178586Y253925D01*
X179168Y253508D01*
X179712Y253166D01*
X180217Y252901D01*
X180683Y252711D01*
X181110Y252597D01*
X181498Y252559D01*
X180891Y251952D01*
X180970Y251951D01*
X181114Y251994D01*
X181235Y252082D01*
X180128Y250975D01*
X183984Y247118D01*
X183790Y247077D01*
X183529Y246951D01*
X183200Y246743D01*
X182804Y246450D01*
X181809Y245615D01*
X179809Y243736D01*
X179008Y242943D01*
X174832Y247118D01*
X175626Y247920D01*
X178218Y250844D01*
X178201Y250885D01*
X177936Y251390D01*
X177595Y251934D01*
X177178Y252517D01*
X176116Y253799D01*
X175471Y254499D01*
X174751Y255238D01*
X175865Y256351D01*
X176603Y255631D01*
D02*
G37*
G36*
X111721Y242403D02*
X111744Y242133D01*
X111784Y241895D01*
X111839Y241689D01*
X111909Y241514D01*
X111996Y241372D01*
X112098Y241261D01*
X112216Y241181D01*
X112350Y241134D01*
X112500Y241118D01*
X109350D01*
X109500Y241134D01*
X109634Y241181D01*
X109752Y241261D01*
X109854Y241372D01*
X109941Y241514D01*
X110012Y241689D01*
X110067Y241895D01*
X110106Y242133D01*
X110130Y242403D01*
X110138Y242705D01*
X111713D01*
X111721Y242403D01*
D02*
G37*
G36*
X168773Y257450D02*
X169748Y257431D01*
X169952Y257416D01*
X170196Y257274D01*
X170420Y257214D01*
X171131Y256586D01*
X171309Y256410D01*
X171352Y256381D01*
X173574Y254158D01*
X173601Y254117D01*
X174306Y253394D01*
X174906Y252743D01*
X175905Y251536D01*
X176254Y251048D01*
X174485Y249053D01*
X170393Y244961D01*
X169667Y244016D01*
X169211Y242914D01*
X169055Y241732D01*
Y224410D01*
Y221439D01*
X167737Y217717D01*
X166908D01*
X166107Y217502D01*
X165389Y217087D01*
X165251Y216950D01*
X158810D01*
X156693Y219066D01*
Y219351D01*
X156496Y220339D01*
X156110Y221271D01*
X155550Y222109D01*
X154837Y222822D01*
X153999Y223382D01*
X153068Y223768D01*
X152079Y223965D01*
X151795D01*
X145728Y230031D01*
X145235Y230410D01*
X144997Y230508D01*
X144660Y230648D01*
X144043Y230729D01*
X125829D01*
X121102Y235455D01*
X121237Y235956D01*
X123213Y239407D01*
X123622Y239367D01*
Y246406D01*
X124409D01*
Y247193D01*
X130541D01*
Y247390D01*
X130423Y248586D01*
X130075Y249736D01*
X129508Y250796D01*
X128745Y251726D01*
X127816Y252488D01*
X126756Y253055D01*
X126140Y256975D01*
X126177Y257223D01*
X126298Y257460D01*
X168727D01*
X168773Y257450D01*
D02*
G37*
G36*
X72921Y237783D02*
X70571Y237771D01*
X70720Y237788D01*
X70854Y237836D01*
X70972Y237916D01*
X71075Y238027D01*
X71161Y238170D01*
X71232Y238345D01*
X71287Y238550D01*
X71327Y238788D01*
X71350Y239057D01*
X71358Y239358D01*
X72933D01*
X72921Y237783D01*
D02*
G37*
G36*
X101976Y238664D02*
X102000Y238394D01*
X102039Y238156D01*
X102094Y237950D01*
X102165Y237776D01*
X102252Y237633D01*
X102354Y237522D01*
X102472Y237442D01*
X102606Y237394D01*
X102756Y237378D01*
X99815Y237390D01*
X99925Y237405D01*
X100023Y237453D01*
X100110Y237531D01*
X100185Y237642D01*
X100249Y237783D01*
X100301Y237957D01*
X100342Y238161D01*
X100371Y238397D01*
X100388Y238665D01*
X100394Y238964D01*
X101969D01*
X101976Y238664D01*
D02*
G37*
G36*
X229890Y248519D02*
Y45320D01*
X225954Y43510D01*
X225571Y43839D01*
X224599Y47776D01*
X224926Y48343D01*
X225096Y48976D01*
X221496D01*
Y49764D01*
X220709D01*
Y53364D01*
X220075Y53194D01*
X219236Y52709D01*
X218550Y52024D01*
X218149Y51931D01*
X214843D01*
X214442Y52024D01*
X213756Y52709D01*
X212917Y53194D01*
X212283Y53364D01*
Y49764D01*
X210709D01*
Y53364D01*
X210075Y53194D01*
X209236Y52709D01*
X208550Y52024D01*
X208149Y51931D01*
X204843D01*
X204442Y52024D01*
X203756Y52709D01*
X202917Y53194D01*
X202283Y53364D01*
Y49764D01*
X200709D01*
Y53364D01*
X200075Y53194D01*
X199236Y52709D01*
X198550Y52024D01*
X198149Y51931D01*
X194843D01*
X194442Y52024D01*
X193756Y52709D01*
X192917Y53194D01*
X192283Y53364D01*
Y49764D01*
X190709D01*
Y53364D01*
X190075Y53194D01*
X189236Y52709D01*
X188550Y52024D01*
X188149Y51931D01*
X184843D01*
X184442Y52024D01*
X183756Y52709D01*
X182917Y53194D01*
X182283Y53364D01*
Y49764D01*
X180709D01*
Y53842D01*
X178615Y56591D01*
X178582Y56666D01*
Y57951D01*
X182836Y62205D01*
X190945D01*
X192127Y62361D01*
X193228Y62817D01*
X194174Y63543D01*
X221733Y91102D01*
X222459Y92047D01*
X222915Y93149D01*
X223071Y94331D01*
X223071Y94331D01*
Y101421D01*
X223476Y102028D01*
X223899Y103049D01*
X224114Y104132D01*
Y105238D01*
X223899Y106322D01*
X223476Y107343D01*
X222862Y108261D01*
X222080Y109043D01*
X221161Y109657D01*
X220140Y110080D01*
X219057Y110295D01*
X217951D01*
X216867Y110080D01*
X215846Y109657D01*
X214928Y109043D01*
X214146Y108261D01*
X213532Y107343D01*
X213109Y106322D01*
X212894Y105238D01*
Y104132D01*
X213109Y103049D01*
X213532Y102028D01*
X213937Y101421D01*
Y96222D01*
X197795Y80080D01*
X193891Y79032D01*
X193205Y79717D01*
X192366Y80202D01*
X191732Y80372D01*
Y76772D01*
X190157D01*
Y80372D01*
X189524Y80202D01*
X188685Y79717D01*
X188563Y79596D01*
X184900Y80337D01*
X184626Y80453D01*
X184434Y80576D01*
X184341Y80662D01*
X184687Y85698D01*
X184845Y85808D01*
X184942Y85827D01*
X191142D01*
Y86402D01*
X193398D01*
Y90158D01*
X194398D01*
Y86402D01*
X197260D01*
Y87833D01*
X199305Y91411D01*
X199305Y91411D01*
X199922Y91492D01*
X199922Y91492D01*
X200258Y91631D01*
X200258Y91631D01*
X200496Y91730D01*
X200496Y91730D01*
X200870Y92017D01*
Y92017D01*
X200990Y92108D01*
Y92109D01*
X201291Y92410D01*
Y92410D01*
X201670Y92903D01*
X201670Y92903D01*
X201908Y93478D01*
X201908Y93478D01*
X201908Y93478D01*
X201989Y94094D01*
X201989Y94095D01*
X201908Y94711D01*
X201908Y94711D01*
X201670Y95286D01*
X201670Y95286D01*
X201291Y95779D01*
Y95779D01*
X200990Y96080D01*
X200990Y96081D01*
X200543Y96424D01*
X200199Y98925D01*
X200408Y100604D01*
X200504Y100677D01*
X200504Y100678D01*
X200882Y101171D01*
X200882Y101171D01*
X201120Y101745D01*
X201120Y101746D01*
X201202Y102362D01*
X201202Y102362D01*
X201202Y102362D01*
X201120Y102979D01*
X201120Y102979D01*
X201120Y102979D01*
X200882Y103553D01*
X200882Y103553D01*
X200504Y104047D01*
X200504Y104047D01*
X200010Y104426D01*
X200010Y104426D01*
X199850Y104492D01*
X198343Y105993D01*
X197512Y107921D01*
X197127Y109405D01*
X197093Y109582D01*
X197063Y109876D01*
Y113623D01*
X197074Y113644D01*
X197445Y114868D01*
X197571Y116142D01*
Y135827D01*
X197445Y137100D01*
X197074Y138325D01*
X197063Y138345D01*
Y142701D01*
X197063Y144701D01*
X197063Y148638D01*
Y152993D01*
X197074Y153014D01*
X197445Y154238D01*
X197571Y155512D01*
Y175197D01*
X197445Y176470D01*
X197074Y177695D01*
X197063Y177715D01*
Y184071D01*
X198889Y187252D01*
X200799Y189162D01*
X201178Y189655D01*
X201276Y189893D01*
X201416Y190230D01*
X201497Y190846D01*
X201598Y191004D01*
X202107Y191563D01*
X204724Y193680D01*
X205341Y193762D01*
X205341Y193762D01*
X205341Y193762D01*
X205916Y194000D01*
X205916Y194000D01*
X205916Y194000D01*
X206409Y194378D01*
X206409Y194378D01*
X206409Y194378D01*
X206458Y194427D01*
X206837Y194921D01*
X206837Y194921D01*
X207075Y195495D01*
X207075Y195495D01*
X207156Y196112D01*
X207156Y196112D01*
X207156Y196330D01*
X211093Y197960D01*
X213937Y195116D01*
Y187949D01*
X213532Y187343D01*
X213109Y186321D01*
X212894Y185238D01*
Y184133D01*
X213109Y183049D01*
X213532Y182028D01*
X214146Y181109D01*
X214928Y180327D01*
X215846Y179713D01*
X216867Y179290D01*
X217951Y179075D01*
X219057D01*
X220140Y179290D01*
X221161Y179713D01*
X222080Y180327D01*
X222862Y181109D01*
X223476Y182028D01*
X223899Y183049D01*
X224114Y184133D01*
Y185238D01*
X223899Y186321D01*
X223476Y187343D01*
X223071Y187949D01*
Y197008D01*
X223071Y197008D01*
X222915Y198190D01*
X222459Y199291D01*
X221733Y200237D01*
X194174Y227796D01*
X193228Y228522D01*
X192127Y228978D01*
X190945Y229134D01*
X179482D01*
X178362Y233071D01*
X178547Y233405D01*
X180709Y235616D01*
Y239606D01*
X182283D01*
Y236006D01*
X182917Y236176D01*
X183756Y236661D01*
X184442Y237346D01*
X184843Y237439D01*
X188149D01*
X188550Y237346D01*
X189236Y236661D01*
X190075Y236176D01*
X190709Y236006D01*
Y239606D01*
X192283D01*
Y236006D01*
X192917Y236176D01*
X193756Y236661D01*
X194442Y237346D01*
X194843Y237439D01*
X198149D01*
X198550Y237346D01*
X199236Y236661D01*
X200075Y236176D01*
X200709Y236006D01*
Y239606D01*
X202283D01*
Y236006D01*
X202917Y236176D01*
X203756Y236661D01*
X204442Y237346D01*
X204843Y237439D01*
X208149D01*
X208550Y237346D01*
X209236Y236661D01*
X210075Y236176D01*
X210709Y236006D01*
Y239606D01*
X212283D01*
Y236006D01*
X212917Y236176D01*
X213756Y236661D01*
X214442Y237346D01*
X214843Y237439D01*
X218149D01*
X218550Y237346D01*
X219236Y236661D01*
X220075Y236176D01*
X220709Y236006D01*
Y239606D01*
X221496D01*
Y240394D01*
X225096D01*
X224926Y241027D01*
X224536Y241703D01*
X224420Y241989D01*
X224313Y242600D01*
X224436Y245234D01*
X224725Y246377D01*
X225451Y247323D01*
X225907Y248424D01*
X225954Y248777D01*
X229890Y248519D01*
D02*
G37*
G36*
X81028Y234449D02*
X81012Y234598D01*
X80964Y234732D01*
X80885Y234850D01*
X80774Y234953D01*
X80631Y235039D01*
X80457Y235110D01*
X80250Y235165D01*
X80012Y235205D01*
X79743Y235228D01*
X79441Y235236D01*
Y236811D01*
X79743Y236819D01*
X80012Y236842D01*
X80250Y236882D01*
X80457Y236937D01*
X80631Y237008D01*
X80774Y237094D01*
X80885Y237197D01*
X80964Y237315D01*
X81012Y237449D01*
X81028Y237598D01*
Y234449D01*
D02*
G37*
G36*
X54429Y236390D02*
X54500Y236189D01*
X54619Y236012D01*
X54785Y235858D01*
X54999Y235728D01*
X55260Y235622D01*
X55568Y235539D01*
X55925Y235480D01*
X56328Y235445D01*
X56779Y235433D01*
Y233071D01*
X56328Y233059D01*
X55925Y233024D01*
X55568Y232965D01*
X55260Y232882D01*
X54999Y232776D01*
X54785Y232646D01*
X54619Y232492D01*
X54500Y232315D01*
X54429Y232114D01*
X54405Y231890D01*
Y236614D01*
X54429Y236390D01*
D02*
G37*
G36*
X47957Y231890D02*
X47933Y232114D01*
X47862Y232315D01*
X47743Y232492D01*
X47577Y232646D01*
X47363Y232776D01*
X47102Y232882D01*
X46794Y232965D01*
X46438Y233024D01*
X46034Y233059D01*
X45583Y233071D01*
Y235433D01*
X46034Y235445D01*
X46438Y235480D01*
X46794Y235539D01*
X47102Y235622D01*
X47363Y235728D01*
X47577Y235858D01*
X47743Y236012D01*
X47862Y236189D01*
X47933Y236390D01*
X47957Y236614D01*
Y231890D01*
D02*
G37*
G36*
X77567Y233151D02*
X77591Y232881D01*
X77630Y232643D01*
X77685Y232437D01*
X77756Y232262D01*
X77842Y232120D01*
X77945Y232009D01*
X78063Y231929D01*
X78197Y231882D01*
X78347Y231866D01*
X75197D01*
X75346Y231882D01*
X75480Y231929D01*
X75598Y232009D01*
X75701Y232120D01*
X75787Y232262D01*
X75858Y232437D01*
X75913Y232643D01*
X75953Y232881D01*
X75976Y233151D01*
X75984Y233453D01*
X77559D01*
X77567Y233151D01*
D02*
G37*
G36*
X109067Y231311D02*
X109051Y231384D01*
X109004Y231449D01*
X108925Y231506D01*
X108815Y231556D01*
X108673Y231597D01*
X108500Y231632D01*
X108296Y231659D01*
X107791Y231689D01*
X107492Y231693D01*
Y233268D01*
X107791Y233272D01*
X108500Y233329D01*
X108673Y233363D01*
X108815Y233405D01*
X108925Y233455D01*
X109004Y233512D01*
X109051Y233577D01*
X109067Y233649D01*
Y231311D01*
D02*
G37*
G36*
X90312Y228335D02*
X90197Y228264D01*
X90096Y228146D01*
X90008Y227980D01*
X89933Y227768D01*
X89872Y227508D01*
X89825Y227201D01*
X89791Y226847D01*
X89764Y225996D01*
X87402D01*
X87395Y226445D01*
X87341Y227201D01*
X87293Y227508D01*
X87232Y227768D01*
X87158Y227980D01*
X87070Y228146D01*
X86968Y228264D01*
X86853Y228335D01*
X86725Y228359D01*
X90441D01*
X90312Y228335D01*
D02*
G37*
G36*
X84604D02*
X84488Y228264D01*
X84387Y228146D01*
X84299Y227980D01*
X84224Y227768D01*
X84163Y227508D01*
X84116Y227201D01*
X84082Y226847D01*
X84055Y225996D01*
X81693D01*
X81686Y226445D01*
X81632Y227201D01*
X81585Y227508D01*
X81524Y227768D01*
X81449Y227980D01*
X81361Y228146D01*
X81260Y228264D01*
X81145Y228335D01*
X81016Y228359D01*
X84732D01*
X84604Y228335D01*
D02*
G37*
G36*
X108378Y219476D02*
X108390Y216673D01*
X108365Y216898D01*
X108294Y217098D01*
X108174Y217276D01*
X108008Y217429D01*
X107794Y217559D01*
X107533Y217665D01*
X107225Y217748D01*
X106869Y217807D01*
X106466Y217843D01*
X106016Y217854D01*
Y220216D01*
X108378Y219476D01*
D02*
G37*
G36*
X111063Y216652D02*
X111055Y216573D01*
X111041Y216277D01*
X111035Y215575D01*
X111811D01*
X111661Y215559D01*
X111528Y215512D01*
X111409Y215432D01*
X111307Y215321D01*
X111221Y215178D01*
X111150Y215004D01*
X111094Y214798D01*
X111055Y214560D01*
X111031Y214290D01*
X111024Y213988D01*
X109449D01*
X109441Y214290D01*
X109417Y214560D01*
X109378Y214798D01*
X109323Y215004D01*
X109252Y215178D01*
X109165Y215321D01*
X109063Y215432D01*
X108945Y215512D01*
X108811Y215559D01*
X108661Y215575D01*
X109423D01*
X109400Y216685D01*
X111072D01*
X111063Y216652D01*
D02*
G37*
G36*
X162409Y212954D02*
X162433Y212684D01*
X162472Y212446D01*
X162528Y212240D01*
X162598Y212066D01*
X162685Y211923D01*
X162787Y211812D01*
X162906Y211732D01*
X163039Y211685D01*
X163189Y211669D01*
X160039D01*
X160189Y211685D01*
X160323Y211732D01*
X160441Y211812D01*
X160543Y211923D01*
X160630Y212066D01*
X160701Y212240D01*
X160756Y212446D01*
X160795Y212684D01*
X160819Y212954D01*
X160827Y213256D01*
X162402D01*
X162409Y212954D01*
D02*
G37*
G36*
X111025Y212789D02*
X111104Y211496D01*
X111125Y211424D01*
X111149Y211379D01*
X109323D01*
X109347Y211424D01*
X109368Y211496D01*
X109387Y211597D01*
X109404Y211726D01*
X109429Y212067D01*
X109449Y213085D01*
X111024D01*
X111025Y212789D01*
D02*
G37*
G36*
X169204Y211571D02*
X169275Y211473D01*
X169394Y211386D01*
X169559Y211311D01*
X169772Y211247D01*
X170031Y211195D01*
X170338Y211155D01*
X171094Y211108D01*
X171543Y211102D01*
Y208740D01*
X171094Y208734D01*
X170031Y208648D01*
X169772Y208596D01*
X169559Y208532D01*
X169394Y208457D01*
X169275Y208370D01*
X169204Y208272D01*
X169181Y208162D01*
Y211681D01*
X169204Y211571D01*
D02*
G37*
G36*
X153348Y209881D02*
X153472D01*
X153448Y209836D01*
X153427Y209764D01*
X153408Y209663D01*
X153392Y209534D01*
X153367Y209193D01*
X153364Y209062D01*
X153395Y207528D01*
X151723D01*
X151733Y207560D01*
X151741Y207639D01*
X151754Y207936D01*
X151760Y208635D01*
X151691Y209764D01*
X151670Y209836D01*
X151646Y209881D01*
X151771D01*
X151772Y209935D01*
X153347D01*
X153348Y209881D01*
D02*
G37*
G36*
X54417Y207394D02*
X54419Y207374D01*
X54422Y207315D01*
X54429Y205413D01*
X50492D01*
X50480Y207406D01*
X54417Y207394D01*
D02*
G37*
G36*
X146665Y208103D02*
X146736Y208055D01*
X146854Y208013D01*
X147020Y207976D01*
X147232Y207945D01*
X147799Y207899D01*
X149004Y207874D01*
Y205512D01*
X148553Y205500D01*
X148150Y205465D01*
X147794Y205405D01*
X147486Y205323D01*
X147225Y205217D01*
X147011Y205087D01*
X146845Y204933D01*
X146726Y204756D01*
X146654Y204555D01*
X146630Y204331D01*
X146642Y208157D01*
X146665Y208103D01*
D02*
G37*
G36*
X101543Y207984D02*
X101344Y207909D01*
X101167Y207783D01*
X101014Y207607D01*
X100885Y207381D01*
X100779Y207104D01*
X100696Y206777D01*
X100638Y206400D01*
X100613Y206107D01*
X100638Y205831D01*
X100697Y205476D01*
X100779Y205169D01*
X100886Y204909D01*
X101016Y204697D01*
X101169Y204531D01*
X101347Y204413D01*
X101547Y204342D01*
X101772Y204319D01*
X97047D01*
X97272Y204342D01*
X97473Y204413D01*
X97650Y204531D01*
X97803Y204697D01*
X97933Y204909D01*
X98039Y205169D01*
X98122Y205476D01*
X98181Y205831D01*
X98206Y206107D01*
X98181Y206400D01*
X98123Y206777D01*
X98040Y207104D01*
X97934Y207381D01*
X97805Y207607D01*
X97652Y207783D01*
X97475Y207909D01*
X97275Y207984D01*
X97052Y208009D01*
X101767D01*
X101543Y207984D01*
D02*
G37*
G36*
X165907Y202542D02*
X165833Y202586D01*
X165735Y202626D01*
X165612Y202661D01*
X165463Y202691D01*
X165290Y202717D01*
X164870Y202754D01*
X164349Y202773D01*
X164052Y202776D01*
Y204350D01*
X164349Y204353D01*
X165463Y204435D01*
X165612Y204465D01*
X165735Y204500D01*
X165833Y204540D01*
X165907Y204584D01*
Y202542D01*
D02*
G37*
G36*
X61819Y202836D02*
X61843Y202566D01*
X61882Y202328D01*
X61937Y202122D01*
X62008Y201947D01*
X62094Y201805D01*
X62197Y201694D01*
X62315Y201614D01*
X62449Y201567D01*
X62598Y201551D01*
X59449D01*
X59598Y201567D01*
X59732Y201614D01*
X59850Y201694D01*
X59953Y201805D01*
X60039Y201947D01*
X60110Y202122D01*
X60165Y202328D01*
X60205Y202566D01*
X60228Y202836D01*
X60236Y203138D01*
X61811D01*
X61819Y202836D01*
D02*
G37*
G36*
X197580Y203741D02*
X198161Y203249D01*
X198417Y203070D01*
X198651Y202935D01*
X198863Y202845D01*
X199051Y202799D01*
X199218Y202798D01*
X199362Y202841D01*
X199483Y202929D01*
X197268Y200714D01*
X197356Y200835D01*
X197399Y200979D01*
X197398Y201145D01*
X197352Y201334D01*
X197262Y201546D01*
X197127Y201780D01*
X196948Y202036D01*
X196724Y202315D01*
X196142Y202941D01*
X197256Y204054D01*
X197580Y203741D01*
D02*
G37*
G36*
X100245Y200740D02*
X100126Y200605D01*
X100015Y200444D01*
X99911Y200258D01*
X99814Y200046D01*
X99725Y199809D01*
X99642Y199545D01*
X99499Y198941D01*
X99438Y198600D01*
X99384Y198234D01*
X96069Y201549D01*
X96435Y201603D01*
X97380Y201807D01*
X97643Y201890D01*
X97881Y201980D01*
X98093Y202077D01*
X98279Y202181D01*
X98440Y202292D01*
X98574Y202410D01*
X100245Y200740D01*
D02*
G37*
G36*
X125633Y202165D02*
X124469Y202124D01*
X123339Y201998D01*
X122245Y201789D01*
X121185Y201497D01*
X120159Y201121D01*
X119169Y200662D01*
X118212Y200119D01*
X117291Y199493D01*
X116404Y198783D01*
X115551Y197989D01*
X118504Y205118D01*
X125633Y202165D01*
D02*
G37*
G36*
X200539Y199418D02*
X200406Y199370D01*
X200287Y199291D01*
X200185Y199180D01*
X200098Y199037D01*
X200027Y198862D01*
X199972Y198656D01*
X199933Y198418D01*
X199909Y198148D01*
X199902Y197847D01*
X198327D01*
X198319Y198148D01*
X198295Y198418D01*
X198256Y198656D01*
X198201Y198862D01*
X198130Y199037D01*
X198043Y199180D01*
X197941Y199291D01*
X197823Y199370D01*
X197689Y199418D01*
X197539Y199433D01*
X200689D01*
X200539Y199418D01*
D02*
G37*
G36*
X182110Y204416D02*
X182181Y203435D01*
X182299Y202570D01*
X182465Y201820D01*
X182677Y201186D01*
X182937Y200667D01*
X183244Y200263D01*
X183598Y199975D01*
X183695Y199933D01*
X184800Y199826D01*
X186670Y199753D01*
X187746Y199744D01*
Y197382D01*
X186670Y197373D01*
X183306Y197155D01*
X182701Y197055D01*
X182190Y196937D01*
X181772Y196801D01*
X181449Y196646D01*
X181220Y196474D01*
Y198309D01*
X179134Y197382D01*
X177047Y198309D01*
Y196474D01*
X176818Y196646D01*
X176495Y196801D01*
X176078Y196937D01*
X175567Y197055D01*
X174961Y197155D01*
X173468Y197300D01*
X171598Y197373D01*
X170522Y197382D01*
Y199744D01*
X171598Y199753D01*
X174608Y199948D01*
X174669Y199975D01*
X175024Y200263D01*
X175331Y200667D01*
X175591Y201186D01*
X175803Y201820D01*
X175969Y202570D01*
X176157Y204416D01*
X176181Y205512D01*
X182087D01*
X182110Y204416D01*
D02*
G37*
G36*
X146307Y202020D02*
X146008Y201843D01*
X145744Y201547D01*
X145515Y201134D01*
X145322Y200603D01*
X145163Y199953D01*
X145040Y199185D01*
X144992Y198703D01*
X145040Y198059D01*
X145163Y197291D01*
X145322Y196642D01*
X145515Y196110D01*
X145744Y195697D01*
X146008Y195401D01*
X146307Y195224D01*
X146642Y195165D01*
X137217D01*
X137551Y195224D01*
X137850Y195401D01*
X138114Y195697D01*
X138343Y196110D01*
X138537Y196642D01*
X138695Y197291D01*
X138818Y198059D01*
X138866Y198542D01*
X138818Y199185D01*
X138695Y199953D01*
X138537Y200603D01*
X138343Y201134D01*
X138114Y201547D01*
X137850Y201843D01*
X137551Y202020D01*
X137217Y202079D01*
X146642D01*
X146307Y202020D01*
D02*
G37*
G36*
X107112Y203179D02*
X107260Y202842D01*
X107508Y202545D01*
X107854Y202288D01*
X108299Y202070D01*
X108843Y201892D01*
X109486Y201753D01*
X110228Y201654D01*
X111068Y201595D01*
X112008Y201575D01*
Y195669D01*
X111068Y195650D01*
X109486Y195491D01*
X108843Y195352D01*
X108299Y195174D01*
X107854Y194956D01*
X107508Y194699D01*
X107260Y194402D01*
X107112Y194065D01*
X107063Y193689D01*
Y203555D01*
X107112Y203179D01*
D02*
G37*
G36*
X62449Y192122D02*
X62315Y192075D01*
X62197Y191996D01*
X62094Y191886D01*
X62008Y191744D01*
X61937Y191571D01*
X61882Y191366D01*
X61843Y191130D01*
X61819Y190862D01*
X61811Y190563D01*
X60236D01*
X60228Y190862D01*
X60205Y191130D01*
X60165Y191366D01*
X60110Y191571D01*
X60039Y191744D01*
X59953Y191886D01*
X59850Y191996D01*
X59732Y192075D01*
X59598Y192122D01*
X59449Y192138D01*
X62598D01*
X62449Y192122D01*
D02*
G37*
G36*
X170779Y189542D02*
X170875Y189504D01*
X170996Y189470D01*
X171143Y189441D01*
X171315Y189416D01*
X171735Y189380D01*
X172555Y189360D01*
X172570Y187785D01*
X172273Y187783D01*
X171332Y187724D01*
X171158Y187698D01*
X171009Y187666D01*
X170884Y187629D01*
X170783Y187588D01*
X170708Y187542D01*
Y189584D01*
X170779Y189542D01*
D02*
G37*
G36*
X166191Y187424D02*
X166084Y187462D01*
X165957Y187496D01*
X165810Y187527D01*
X165456Y187575D01*
X165023Y187607D01*
X164223Y187625D01*
X163936Y189200D01*
X164220Y189204D01*
X164957Y189261D01*
X165163Y189296D01*
X165351Y189338D01*
X165519Y189388D01*
X165667Y189446D01*
X165797Y189511D01*
X165907Y189584D01*
X166191Y187424D01*
D02*
G37*
G36*
X161500Y189360D02*
X161547Y189326D01*
X161626Y189297D01*
X161736Y189271D01*
X161878Y189249D01*
X162256Y189217D01*
X163059Y189200D01*
Y187625D01*
X162760Y187619D01*
X162256Y187567D01*
X162051Y187522D01*
X161878Y187464D01*
X161736Y187393D01*
X161626Y187309D01*
X161547Y187213D01*
X161500Y187103D01*
X161484Y186980D01*
Y189398D01*
X161500Y189360D01*
D02*
G37*
G36*
X155051Y186980D02*
X155036Y187060D01*
X154988Y187132D01*
X154910Y187195D01*
X154799Y187250D01*
X154658Y187296D01*
X154484Y187334D01*
X154280Y187364D01*
X154043Y187385D01*
X153477Y187402D01*
Y188976D01*
X153776Y188981D01*
X154280Y189014D01*
X154484Y189044D01*
X154658Y189082D01*
X154799Y189128D01*
X154910Y189183D01*
X154988Y189246D01*
X155036Y189318D01*
X155051Y189398D01*
Y186980D01*
D02*
G37*
G36*
X133299Y178759D02*
X134330Y178129D01*
X134838Y177874D01*
X135342Y177657D01*
X135842Y177480D01*
X136337Y177342D01*
X136828Y177244D01*
X137314Y177185D01*
X137795Y177165D01*
Y173228D01*
X137314Y173209D01*
X136828Y173150D01*
X136337Y173051D01*
X135842Y172914D01*
X135342Y172736D01*
X134838Y172520D01*
X134330Y172264D01*
X133817Y171969D01*
X132777Y171261D01*
Y179133D01*
X133299Y178759D01*
D02*
G37*
G36*
X188089Y171261D02*
X187567Y171635D01*
X186537Y172264D01*
X186028Y172520D01*
X185524Y172736D01*
X185024Y172914D01*
X184529Y173051D01*
X184039Y173150D01*
X183553Y173209D01*
X183071Y173228D01*
Y177165D01*
X183553Y177185D01*
X184039Y177244D01*
X184529Y177342D01*
X185024Y177480D01*
X185524Y177657D01*
X186028Y177874D01*
X186537Y178129D01*
X187050Y178425D01*
X188089Y179133D01*
Y171261D01*
D02*
G37*
G36*
X68335Y173064D02*
X68453Y173016D01*
X68649Y172974D01*
X68925Y172937D01*
X69712Y172880D01*
X72232Y172835D01*
Y168898D01*
X71484Y168895D01*
X68453Y168716D01*
X68335Y168668D01*
X68295Y168614D01*
Y173118D01*
X68335Y173064D01*
D02*
G37*
G36*
X109750Y191751D02*
X111551Y188343D01*
X98501Y175293D01*
X97910Y174574D01*
X97471Y173753D01*
X97201Y172862D01*
X97110Y171936D01*
Y171717D01*
X97103Y171684D01*
X97072Y170537D01*
X96988Y169577D01*
X96853Y168771D01*
X96680Y168125D01*
X96483Y167644D01*
X96288Y167325D01*
X96116Y167140D01*
X95968Y167042D01*
X95800Y166982D01*
X95390Y166939D01*
X95358Y166929D01*
X91501D01*
X91407Y166948D01*
X91312Y166929D01*
X89778D01*
X89592Y167035D01*
X89073Y167397D01*
X87723Y168538D01*
X86954Y169281D01*
X86954Y169281D01*
X83280Y172956D01*
X83100Y176460D01*
X83095Y176480D01*
Y187881D01*
X84252Y191339D01*
X108661D01*
Y191619D01*
X108973Y191771D01*
X109750Y191751D01*
D02*
G37*
G36*
X81708Y172257D02*
X79936D01*
X80315Y170866D01*
X82284Y166114D01*
X81715Y166643D01*
X81124Y167116D01*
X80509Y167534D01*
X79872Y167895D01*
X79211Y168202D01*
X78528Y168452D01*
X77821Y168647D01*
X77091Y168786D01*
X76338Y168870D01*
X75563Y168898D01*
X75197Y172835D01*
X75945Y172858D01*
X76614Y172929D01*
X77205Y173047D01*
X77716Y173213D01*
X78150Y173425D01*
X78504Y173685D01*
X78780Y173992D01*
X78976Y174346D01*
X79094Y174748D01*
X79108Y174898D01*
X79134Y176378D01*
X81496D01*
X81708Y172257D01*
D02*
G37*
G36*
X105028Y170445D02*
X105193Y168429D01*
X105338Y167610D01*
X105524Y166917D01*
X105751Y166350D01*
X106020Y165909D01*
X106330Y165594D01*
X106682Y165405D01*
X107075Y165342D01*
X95558D01*
X96157Y165405D01*
X96692Y165594D01*
X97164Y165909D01*
X97574Y166350D01*
X97920Y166917D01*
X98204Y167610D01*
X98424Y168429D01*
X98582Y169374D01*
X98676Y170445D01*
X98708Y171642D01*
X105007D01*
X105028Y170445D01*
D02*
G37*
G36*
X86646Y167347D02*
X88094Y166122D01*
X88734Y165676D01*
X89319Y165342D01*
X89848Y165120D01*
X90321Y165008D01*
X90738D01*
X91100Y165120D01*
X91407Y165342D01*
X85839Y159775D01*
X86062Y160081D01*
X86173Y160443D01*
Y160860D01*
X86062Y161334D01*
X85839Y161863D01*
X85505Y162447D01*
X85059Y163087D01*
X84503Y163783D01*
X83055Y165342D01*
X85839Y168126D01*
X86646Y167347D01*
D02*
G37*
G36*
X68305Y161980D02*
X68371Y161945D01*
X68480Y161913D01*
X68633Y161886D01*
X68830Y161863D01*
X69356Y161830D01*
X70473Y161811D01*
Y157874D01*
X70056Y157872D01*
X68480Y157772D01*
X68371Y157740D01*
X68305Y157705D01*
X68283Y157665D01*
Y162020D01*
X68305Y161980D01*
D02*
G37*
G36*
X67055Y153543D02*
X67809Y154331D01*
X68898Y154331D01*
Y152756D01*
X67809Y152756D01*
X67055Y153543D01*
X66180Y152630D01*
X66135Y152654D01*
X66063Y152675D01*
X64771Y152755D01*
X64474Y152756D01*
Y154331D01*
X65492Y154351D01*
X65833Y154376D01*
X65962Y154392D01*
X66063Y154411D01*
X66135Y154432D01*
X66180Y154456D01*
X67055Y153543D01*
D02*
G37*
G36*
X133299Y159074D02*
X134330Y158444D01*
X134838Y158189D01*
X135342Y157972D01*
X135842Y157795D01*
X136337Y157657D01*
X136828Y157559D01*
X137314Y157500D01*
X137795Y157480D01*
Y153543D01*
X137314Y153524D01*
X136828Y153465D01*
X136337Y153366D01*
X135842Y153228D01*
X135342Y153051D01*
X134838Y152835D01*
X134330Y152579D01*
X133817Y152284D01*
X132777Y151576D01*
Y159448D01*
X133299Y159074D01*
D02*
G37*
G36*
X188089Y151576D02*
X187567Y151950D01*
X186537Y152579D01*
X186028Y152835D01*
X185524Y153051D01*
X185024Y153228D01*
X184529Y153366D01*
X184039Y153465D01*
X183553Y153524D01*
X183071Y153543D01*
Y157480D01*
X183553Y157500D01*
X184039Y157559D01*
X184529Y157657D01*
X185024Y157795D01*
X185524Y157972D01*
X186028Y158189D01*
X186537Y158444D01*
X187050Y158740D01*
X188089Y159448D01*
Y151576D01*
D02*
G37*
G36*
X146642Y189087D02*
X146644Y189047D01*
X146652Y187152D01*
X146653Y186389D01*
X147126Y185930D01*
X149466Y183924D01*
X150468Y183214D01*
X151358Y182700D01*
X152137Y182381D01*
X152803Y182257D01*
X153358Y182329D01*
X153801Y182596D01*
X154131Y183059D01*
X149303Y173216D01*
X156693D01*
Y182283D01*
X163779D01*
Y173216D01*
X172146D01*
X172197Y167335D01*
X172232D01*
X172216Y167236D01*
X172201Y166941D01*
X172201Y166927D01*
X172232Y163374D01*
X172180D01*
X172146Y157492D01*
X163779D01*
Y148425D01*
X156693D01*
Y157492D01*
X148721D01*
X148669Y163374D01*
X148634D01*
X148651Y163472D01*
X148665Y163768D01*
X148665Y163782D01*
X148634Y167335D01*
X148686D01*
X148713Y172015D01*
X148634Y171853D01*
X148714Y172116D01*
X148721Y173216D01*
X148812D01*
X148647Y173969D01*
X148292Y174868D01*
X147755Y175864D01*
X147039Y176956D01*
X146142Y178145D01*
X143808Y180813D01*
X142370Y182292D01*
X144342Y185138D01*
X140748D01*
X140738Y185890D01*
X140589Y187672D01*
X140499Y188108D01*
X140389Y188464D01*
X140260Y188742D01*
X140110Y188940D01*
X139941Y189059D01*
X139752Y189099D01*
X146642Y189087D01*
D02*
G37*
G36*
X54111Y159449D02*
X59055Y154505D01*
X59055Y150551D01*
X58818Y150314D01*
X58455Y149686D01*
X58268Y148985D01*
Y148259D01*
X58455Y147558D01*
X58571Y147357D01*
X58576Y147290D01*
X51181D01*
X50948Y147244D01*
X50885D01*
X50886Y147249D01*
Y148027D01*
X50685Y148777D01*
X50296Y149451D01*
X49746Y150001D01*
X49073Y150389D01*
X48322Y150591D01*
X47545D01*
X46793Y150389D01*
X46120Y150001D01*
X45570Y149451D01*
X45182Y148777D01*
X44980Y148027D01*
Y147249D01*
X45182Y146498D01*
X45570Y145825D01*
X46120Y145275D01*
X46793Y144886D01*
X46850Y144871D01*
Y142520D01*
Y139961D01*
Y137402D01*
Y134843D01*
X47544D01*
X46793Y134641D01*
X46120Y134253D01*
X45570Y133703D01*
X45182Y133029D01*
X44980Y132279D01*
Y131501D01*
X45182Y130750D01*
X45570Y130077D01*
X46120Y129527D01*
X46793Y129138D01*
X47545Y128937D01*
X48322D01*
X49073Y129138D01*
X49746Y129527D01*
X50296Y130077D01*
X50685Y130750D01*
X50886Y131501D01*
Y132279D01*
X50685Y133029D01*
X50296Y133703D01*
X49746Y134253D01*
X49073Y134641D01*
X48322Y134843D01*
X50948D01*
X51181Y134796D01*
X54693D01*
X56623Y132866D01*
X56914Y132362D01*
X57390Y131886D01*
X57973Y131549D01*
X58624Y131375D01*
X59055D01*
X59055Y120079D01*
X36220Y120079D01*
X36220Y159449D01*
X54111Y159449D01*
D02*
G37*
G36*
X61913Y147828D02*
X61892Y147756D01*
X61873Y147655D01*
X61856Y147526D01*
X61831Y147185D01*
X61811Y146167D01*
X60236D01*
X60235Y146464D01*
X60156Y147756D01*
X60134Y147828D01*
X60110Y147873D01*
X61937D01*
X61913Y147828D01*
D02*
G37*
G36*
X68354Y140693D02*
X68221Y140646D01*
X68102Y140566D01*
X68000Y140455D01*
X67913Y140312D01*
X67843Y140138D01*
X67787Y139931D01*
X67748Y139693D01*
X67724Y139424D01*
X67716Y139122D01*
X66142D01*
X66134Y139424D01*
X66110Y139693D01*
X66071Y139931D01*
X66016Y140138D01*
X65945Y140312D01*
X65858Y140455D01*
X65756Y140566D01*
X65638Y140646D01*
X65504Y140693D01*
X65354Y140709D01*
X68504D01*
X68354Y140693D01*
D02*
G37*
G36*
X188089Y131891D02*
X187567Y132264D01*
X186537Y132894D01*
X186028Y133150D01*
X185524Y133366D01*
X185024Y133544D01*
X184529Y133681D01*
X184039Y133780D01*
X183553Y133839D01*
X183071Y133858D01*
Y137795D01*
X183553Y137815D01*
X184039Y137874D01*
X184529Y137972D01*
X185024Y138110D01*
X185524Y138287D01*
X186028Y138504D01*
X186537Y138759D01*
X187050Y139055D01*
X188089Y139763D01*
Y131891D01*
D02*
G37*
G36*
X133299Y139389D02*
X134330Y138759D01*
X134838Y138504D01*
X135342Y138287D01*
X135842Y138110D01*
X136337Y137972D01*
X136828Y137874D01*
X137314Y137815D01*
X137795Y137795D01*
Y133858D01*
X137314Y133839D01*
X136828Y133780D01*
X136337Y133681D01*
X135842Y133544D01*
X135342Y133366D01*
X134838Y133150D01*
X134330Y132894D01*
X133817Y132599D01*
X132777Y131891D01*
Y139763D01*
X133299Y139389D01*
D02*
G37*
G36*
X67704Y131681D02*
X65354Y131669D01*
X65504Y131685D01*
X65638Y131734D01*
X65756Y131813D01*
X65858Y131925D01*
X65945Y132068D01*
X66016Y132242D01*
X66071Y132448D01*
X66110Y132686D01*
X66134Y132955D01*
X66142Y133256D01*
X67716D01*
X67704Y131681D01*
D02*
G37*
G36*
X105925Y125957D02*
X105591Y125839D01*
X105295Y125642D01*
X105039Y125366D01*
X104823Y125012D01*
X104646Y124579D01*
X104508Y124067D01*
X104410Y123477D01*
X104350Y122807D01*
X104331Y122059D01*
X100394D01*
X100374Y122807D01*
X100315Y123477D01*
X100216Y124067D01*
X100079Y124579D01*
X99902Y125012D01*
X99685Y125366D01*
X99429Y125642D01*
X99410Y125655D01*
X99390Y125642D01*
X99134Y125366D01*
X98917Y125012D01*
X98740Y124579D01*
X98602Y124067D01*
X98504Y123477D01*
X98445Y122807D01*
X98425Y122059D01*
X94488D01*
X94468Y122807D01*
X94409Y123477D01*
X94311Y124067D01*
X94173Y124579D01*
X93996Y125012D01*
X93779Y125366D01*
X93524Y125642D01*
X93504Y125655D01*
X93484Y125642D01*
X93228Y125366D01*
X93012Y125012D01*
X92835Y124579D01*
X92697Y124067D01*
X92598Y123477D01*
X92539Y122807D01*
X92520Y122059D01*
X88583D01*
X88563Y122807D01*
X88504Y123477D01*
X88406Y124067D01*
X88268Y124579D01*
X88090Y125012D01*
X87874Y125366D01*
X87618Y125642D01*
X87323Y125839D01*
X86988Y125957D01*
X86614Y125996D01*
X106299D01*
X105925Y125957D01*
D02*
G37*
G36*
X67728Y124766D02*
X67799Y124567D01*
X67917Y124392D01*
X68082Y124240D01*
X68295Y124111D01*
X68555Y124006D01*
X68862Y123924D01*
X69216Y123866D01*
X69618Y123831D01*
X70067Y123819D01*
Y121457D01*
X69618Y121445D01*
X69216Y121410D01*
X68862Y121352D01*
X68555Y121270D01*
X68295Y121164D01*
X68082Y121036D01*
X67917Y120884D01*
X67799Y120709D01*
X67728Y120510D01*
X67704Y120288D01*
Y124988D01*
X67728Y124766D01*
D02*
G37*
G36*
X188089Y112206D02*
X187567Y112580D01*
X186537Y113209D01*
X186028Y113465D01*
X185524Y113681D01*
X185024Y113858D01*
X184529Y113996D01*
X184039Y114094D01*
X183553Y114154D01*
X183071Y114173D01*
Y118110D01*
X183553Y118130D01*
X184039Y118189D01*
X184529Y118287D01*
X185024Y118425D01*
X185524Y118602D01*
X186028Y118819D01*
X186537Y119074D01*
X187050Y119369D01*
X188089Y120078D01*
Y112206D01*
D02*
G37*
G36*
X133299Y119704D02*
X134330Y119074D01*
X134838Y118819D01*
X135342Y118602D01*
X135842Y118425D01*
X136337Y118287D01*
X136828Y118189D01*
X137314Y118130D01*
X137795Y118110D01*
Y114173D01*
X137314Y114154D01*
X136828Y114094D01*
X136337Y113996D01*
X135842Y113858D01*
X135342Y113681D01*
X134838Y113465D01*
X134330Y113209D01*
X133817Y112914D01*
X132777Y112206D01*
Y120078D01*
X133299Y119704D01*
D02*
G37*
G36*
X63257Y111540D02*
X62925Y111735D01*
X62543Y111824D01*
X62112Y111808D01*
X61630Y111687D01*
X61098Y111460D01*
X60516Y111127D01*
X59884Y110690D01*
X59203Y110146D01*
X58471Y109498D01*
X57689Y108744D01*
X54905Y111528D01*
X55434Y112074D01*
X56325Y113102D01*
X56687Y113585D01*
X56993Y114046D01*
X57244Y114485D01*
X57439Y114904D01*
X57578Y115301D01*
X57661Y115677D01*
X57689Y116031D01*
X63257Y111540D01*
D02*
G37*
G36*
X64397Y115978D02*
X64516Y115929D01*
X64712Y115887D01*
X64988Y115850D01*
X65775Y115793D01*
X68295Y115748D01*
Y111811D01*
X67547Y111808D01*
X64516Y111630D01*
X64397Y111582D01*
X64358Y111528D01*
Y116031D01*
X64397Y115978D01*
D02*
G37*
G36*
X163779Y133846D02*
X172146D01*
X172197Y127965D01*
X172232D01*
X172216Y127866D01*
X172201Y127571D01*
X172201Y127557D01*
X172232Y124004D01*
X172180D01*
X172146Y118122D01*
X163779D01*
Y109055D01*
X156693D01*
Y118122D01*
X148721D01*
X148669Y124004D01*
X148634D01*
X148651Y124102D01*
X148665Y124397D01*
X148665Y124412D01*
X148634Y127965D01*
X148686D01*
X148721Y133846D01*
X156693D01*
Y142913D01*
X163779D01*
Y133846D01*
D02*
G37*
G36*
X45496Y103740D02*
X45481Y103890D01*
X45433Y104024D01*
X45354Y104142D01*
X45243Y104244D01*
X45100Y104331D01*
X44925Y104402D01*
X44719Y104457D01*
X44481Y104496D01*
X44211Y104520D01*
X44192Y104520D01*
X44177Y104520D01*
X43909Y104497D01*
X43673Y104458D01*
X43468Y104403D01*
X43295Y104334D01*
X43153Y104248D01*
X43043Y104148D01*
X42964Y104031D01*
X42917Y103900D01*
X42901Y103752D01*
Y106878D01*
X42917Y106730D01*
X42964Y106599D01*
X43043Y106482D01*
X43153Y106381D01*
X43295Y106296D01*
X43468Y106226D01*
X43673Y106172D01*
X43909Y106133D01*
X44177Y106110D01*
X44192Y106110D01*
X44211Y106110D01*
X44481Y106134D01*
X44719Y106173D01*
X44925Y106228D01*
X45100Y106299D01*
X45243Y106386D01*
X45354Y106488D01*
X45433Y106606D01*
X45481Y106740D01*
X45496Y106890D01*
Y103740D01*
D02*
G37*
G36*
X170248Y108268D02*
X170047Y108197D01*
X169870Y108078D01*
X169717Y107912D01*
X169587Y107698D01*
X169480Y107437D01*
X169398Y107128D01*
X169339Y106772D01*
X169303Y106369D01*
X169291Y105918D01*
X166929D01*
X166917Y106369D01*
X166882Y106772D01*
X166823Y107128D01*
X166740Y107437D01*
X166634Y107698D01*
X166504Y107912D01*
X166350Y108078D01*
X166173Y108197D01*
X165972Y108268D01*
X165748Y108292D01*
X170473D01*
X170248Y108268D01*
D02*
G37*
G36*
X123803Y181600D02*
Y177715D01*
X123792Y177695D01*
X123421Y176470D01*
X123295Y175197D01*
Y155512D01*
X123421Y154238D01*
X123792Y153014D01*
X123803Y152993D01*
Y148638D01*
X123803Y146638D01*
X123803Y142701D01*
Y138345D01*
X123792Y138325D01*
X123421Y137100D01*
X123295Y135827D01*
Y116142D01*
X123421Y114868D01*
X123792Y113644D01*
X123803Y113623D01*
Y107738D01*
X123800Y107583D01*
X123754Y107124D01*
X122616Y103823D01*
X119656Y103779D01*
X118356D01*
X118356Y103779D01*
X117174Y103624D01*
X116073Y103167D01*
X115127Y102442D01*
X112598Y99913D01*
X108661Y100000D01*
X107093Y100019D01*
X107092Y100019D01*
X107077Y100019D01*
X106981Y100000D01*
X84252D01*
Y95661D01*
X80315Y94031D01*
X69063Y105283D01*
X68322Y105851D01*
X67460Y106208D01*
X67236Y106238D01*
X67378Y110190D01*
X67597Y110203D01*
X68301Y110205D01*
X68303Y110206D01*
X101633D01*
X102558Y110327D01*
X103420Y110685D01*
X104160Y111252D01*
X112370Y119462D01*
X112938Y120202D01*
X113295Y121064D01*
X113416Y121989D01*
Y141142D01*
X113416Y141142D01*
X113295Y142067D01*
X112938Y142929D01*
X112370Y143669D01*
X110017Y146021D01*
X109968Y146205D01*
X109450Y147102D01*
X108717Y147835D01*
X107819Y148354D01*
X107552Y148425D01*
X108071Y152362D01*
X108661D01*
Y165248D01*
X108680Y165342D01*
X108661Y166929D01*
X107501Y170866D01*
X119866Y183231D01*
X123803Y181600D01*
D02*
G37*
G36*
X193390Y105066D02*
X193437Y104994D01*
X193516Y104931D01*
X193626Y104876D01*
X193767Y104830D01*
X193941Y104792D01*
X194146Y104762D01*
X194382Y104741D01*
X194949Y104724D01*
Y103150D01*
X194649Y103145D01*
X194146Y103112D01*
X193941Y103082D01*
X193767Y103044D01*
X193626Y102998D01*
X193516Y102943D01*
X193437Y102880D01*
X193390Y102808D01*
X193374Y102728D01*
Y105146D01*
X193390Y105066D01*
D02*
G37*
G36*
X186941Y102728D02*
X186925Y102808D01*
X186878Y102880D01*
X186799Y102943D01*
X186689Y102998D01*
X186547Y103044D01*
X186374Y103082D01*
X186170Y103112D01*
X185933Y103133D01*
X185366Y103150D01*
Y104724D01*
X185666Y104729D01*
X186170Y104762D01*
X186374Y104792D01*
X186547Y104830D01*
X186689Y104876D01*
X186799Y104931D01*
X186878Y104994D01*
X186925Y105066D01*
X186941Y105146D01*
Y102728D01*
D02*
G37*
G36*
X150817Y102252D02*
X150024Y101439D01*
X148145Y99275D01*
X147686Y98644D01*
X147310Y98059D01*
X147017Y97519D01*
X146809Y97025D01*
X146683Y96577D01*
X146642Y96173D01*
X138290Y102252D01*
X138808Y101977D01*
X139397Y101856D01*
X140057Y101889D01*
X140786Y102076D01*
X141586Y102416D01*
X142457Y102911D01*
X143397Y103559D01*
X144408Y104361D01*
X145490Y105318D01*
X146642Y106428D01*
X150817Y102252D01*
D02*
G37*
G36*
X181175Y103752D02*
X181273Y103713D01*
X181396Y103678D01*
X181544Y103647D01*
X181717Y103621D01*
X182138Y103584D01*
X182659Y103565D01*
X182956Y103563D01*
Y101988D01*
X182659Y101986D01*
X181544Y101904D01*
X181396Y101874D01*
X181273Y101839D01*
X181175Y101799D01*
X181101Y101754D01*
Y103797D01*
X181175Y103752D01*
D02*
G37*
G36*
X64368Y104894D02*
X64434Y104858D01*
X64543Y104827D01*
X64696Y104800D01*
X64893Y104777D01*
X65419Y104743D01*
X66535Y104724D01*
Y100787D01*
X66119Y100785D01*
X64543Y100685D01*
X64434Y100654D01*
X64368Y100618D01*
X64346Y100578D01*
Y104933D01*
X64368Y104894D01*
D02*
G37*
G36*
X62805Y100496D02*
X62638Y100437D01*
X62490Y100338D01*
X62362Y100199D01*
X62254Y100021D01*
X62165Y99803D01*
X62097Y99546D01*
X62047Y99249D01*
X62018Y98912D01*
X62008Y98536D01*
X60039D01*
X60030Y98912D01*
X60000Y99249D01*
X59951Y99546D01*
X59882Y99803D01*
X59793Y100021D01*
X59685Y100199D01*
X59557Y100338D01*
X59409Y100437D01*
X59242Y100496D01*
X59055Y100516D01*
X62992D01*
X62805Y100496D01*
D02*
G37*
G36*
X169315Y100870D02*
X169386Y100469D01*
X169504Y100114D01*
X169669Y99807D01*
X169882Y99547D01*
X170142Y99335D01*
X170449Y99169D01*
X170803Y99051D01*
X171205Y98980D01*
X171653Y98957D01*
X168110Y96595D01*
X164567Y98957D01*
X165016Y98980D01*
X165417Y99051D01*
X165772Y99169D01*
X166079Y99335D01*
X166339Y99547D01*
X166551Y99807D01*
X166717Y100114D01*
X166835Y100469D01*
X166905Y100870D01*
X166929Y101319D01*
X169291D01*
X169315Y100870D01*
D02*
G37*
G36*
X125012Y96173D02*
X124953Y96190D01*
X124776Y96205D01*
X123536Y96238D01*
X119106Y96260D01*
Y102165D01*
X125012Y102252D01*
Y96173D01*
D02*
G37*
G36*
X139575Y96169D02*
X139441Y96121D01*
X139323Y96041D01*
X139220Y95930D01*
X139134Y95787D01*
X139063Y95612D01*
X139008Y95406D01*
X138969Y95169D01*
X138945Y94899D01*
X138937Y94599D01*
X137362D01*
X137361Y94898D01*
X137291Y96032D01*
X137269Y96110D01*
X137244Y96158D01*
X137217Y96173D01*
X139725Y96185D01*
X139575Y96169D01*
D02*
G37*
G36*
X131346Y96170D02*
X131213Y96122D01*
X131095Y96043D01*
X130992Y95932D01*
X130905Y95789D01*
X130835Y95614D01*
X130780Y95408D01*
X130740Y95170D01*
X130717Y94900D01*
X130709Y94599D01*
X129134D01*
X129126Y94900D01*
X129102Y95170D01*
X129063Y95408D01*
X129008Y95614D01*
X128937Y95789D01*
X128850Y95932D01*
X128748Y96043D01*
X128630Y96122D01*
X128496Y96170D01*
X128347Y96185D01*
X131496D01*
X131346Y96170D01*
D02*
G37*
G36*
X53162Y96976D02*
X53264Y95716D01*
X53352Y95205D01*
X53466Y94771D01*
X53606Y94417D01*
X53771Y94142D01*
X53961Y93945D01*
X54176Y93827D01*
X54417Y93787D01*
X47945D01*
X48186Y93827D01*
X48401Y93945D01*
X48592Y94142D01*
X48756Y94417D01*
X48896Y94771D01*
X49010Y95205D01*
X49099Y95716D01*
X49162Y96307D01*
X49213Y97724D01*
X53150D01*
X53162Y96976D01*
D02*
G37*
G36*
X138938Y92080D02*
X139017Y90788D01*
X139039Y90715D01*
X139063Y90671D01*
X137236D01*
X137260Y90715D01*
X137282Y90788D01*
X137301Y90888D01*
X137317Y91017D01*
X137342Y91358D01*
X137362Y92376D01*
X138937D01*
X138938Y92080D01*
D02*
G37*
G36*
X130710Y90741D02*
X130789Y89449D01*
X130810Y89376D01*
X130834Y89332D01*
X129008D01*
X129032Y89376D01*
X129053Y89449D01*
X129072Y89550D01*
X129089Y89678D01*
X129114Y90020D01*
X129134Y91038D01*
X130709D01*
X130710Y90741D01*
D02*
G37*
G36*
X107134Y98266D02*
X107311Y98134D01*
X107606Y98018D01*
X108019Y97917D01*
X108551Y97832D01*
X109968Y97708D01*
X111858Y97646D01*
X112980Y97638D01*
Y91732D01*
X111856Y91703D01*
X110851Y91614D01*
X109964Y91466D01*
X109195Y91260D01*
X108544Y90994D01*
X108011Y90669D01*
X107597Y90285D01*
X107300Y89842D01*
X107123Y89341D01*
X107063Y88779D01*
X107075Y98413D01*
X107134Y98266D01*
D02*
G37*
G36*
X138266Y88746D02*
X138217Y88731D01*
X138151Y88695D01*
X138066Y88637D01*
X137964Y88558D01*
X137705Y88334D01*
X136970Y87629D01*
X135857Y88742D01*
X136066Y88953D01*
X136923Y89922D01*
X136960Y89989D01*
X136974Y90037D01*
X138266Y88746D01*
D02*
G37*
G36*
X184854Y87414D02*
X184845Y87447D01*
X184815Y87477D01*
X184765Y87503D01*
X184695Y87526D01*
X184606Y87545D01*
X184496Y87561D01*
X184217Y87582D01*
X183858Y87589D01*
Y89163D01*
X184050Y89166D01*
X184503Y89197D01*
X184614Y89216D01*
X184705Y89239D01*
X184775Y89266D01*
X184826Y89297D01*
X184856Y89333D01*
X184866Y89372D01*
X184854Y87414D01*
D02*
G37*
G36*
X181175Y88752D02*
X181273Y88713D01*
X181396Y88678D01*
X181544Y88647D01*
X181717Y88621D01*
X182138Y88584D01*
X182659Y88565D01*
X182956Y88563D01*
Y86988D01*
X182659Y86986D01*
X181544Y86904D01*
X181396Y86874D01*
X181273Y86839D01*
X181175Y86799D01*
X181101Y86754D01*
Y88797D01*
X181175Y88752D01*
D02*
G37*
G36*
X89146Y86996D02*
X88945Y86925D01*
X88768Y86807D01*
X88614Y86642D01*
X88484Y86429D01*
X88378Y86169D01*
X88295Y85862D01*
X88236Y85508D01*
X88201Y85106D01*
X88189Y84658D01*
X85827D01*
X85839Y87020D01*
X89370D01*
X89146Y86996D01*
D02*
G37*
G36*
X128051Y83858D02*
X127752Y83842D01*
X127484Y83795D01*
X127248Y83716D01*
X127043Y83606D01*
X126870Y83465D01*
X126728Y83291D01*
X126618Y83087D01*
X126539Y82850D01*
X126492Y82583D01*
X126476Y82284D01*
X124902D01*
X124886Y82583D01*
X124839Y82850D01*
X124760Y83087D01*
X124650Y83291D01*
X124508Y83465D01*
X124335Y83606D01*
X124130Y83716D01*
X123894Y83795D01*
X123626Y83842D01*
X123327Y83858D01*
X125689Y85433D01*
X128051Y83858D01*
D02*
G37*
G36*
X147980Y80914D02*
X147846Y80866D01*
X147728Y80787D01*
X147626Y80676D01*
X147539Y80533D01*
X147468Y80358D01*
X147413Y80152D01*
X147374Y79914D01*
X147350Y79644D01*
X147343Y79343D01*
X145768D01*
X145760Y79644D01*
X145736Y79914D01*
X145697Y80152D01*
X145642Y80358D01*
X145571Y80533D01*
X145484Y80676D01*
X145382Y80787D01*
X145264Y80866D01*
X145130Y80914D01*
X144980Y80929D01*
X148130D01*
X147980Y80914D01*
D02*
G37*
G36*
X142272D02*
X142138Y80866D01*
X142020Y80787D01*
X141917Y80676D01*
X141831Y80533D01*
X141760Y80358D01*
X141705Y80152D01*
X141665Y79914D01*
X141642Y79644D01*
X141634Y79343D01*
X140059D01*
X140051Y79644D01*
X140028Y79914D01*
X139988Y80152D01*
X139933Y80358D01*
X139862Y80533D01*
X139776Y80676D01*
X139673Y80787D01*
X139555Y80866D01*
X139421Y80914D01*
X139272Y80929D01*
X142421D01*
X142272Y80914D01*
D02*
G37*
G36*
X71755Y77946D02*
X71734Y77874D01*
X71715Y77773D01*
X71699Y77644D01*
X71674Y77303D01*
X71653Y76285D01*
X70079D01*
X70078Y76582D01*
X69998Y77874D01*
X69977Y77946D01*
X69953Y77991D01*
X71779D01*
X71755Y77946D01*
D02*
G37*
G36*
X71661Y75080D02*
X71685Y74810D01*
X71724Y74572D01*
X71780Y74366D01*
X71850Y74192D01*
X71937Y74049D01*
X72039Y73938D01*
X72158Y73858D01*
X72291Y73811D01*
X72441Y73795D01*
X69291D01*
X69441Y73811D01*
X69575Y73858D01*
X69693Y73938D01*
X69795Y74049D01*
X69882Y74192D01*
X69953Y74366D01*
X70008Y74572D01*
X70047Y74810D01*
X70071Y75080D01*
X70079Y75382D01*
X71653D01*
X71661Y75080D01*
D02*
G37*
G36*
X72729Y71760D02*
X72777Y71626D01*
X72857Y71508D01*
X72968Y71406D01*
X73111Y71319D01*
X73286Y71248D01*
X73492Y71193D01*
X73729Y71153D01*
X73998Y71130D01*
X74299Y71122D01*
Y69547D01*
X72724Y69894D01*
X72712Y71909D01*
X72729Y71760D01*
D02*
G37*
G36*
X77324Y69313D02*
X77250Y69358D01*
X77152Y69398D01*
X77029Y69433D01*
X76881Y69463D01*
X76708Y69489D01*
X76287Y69526D01*
X75767Y69545D01*
X75469Y69547D01*
Y71122D01*
X75767Y71124D01*
X76881Y71206D01*
X77029Y71237D01*
X77152Y71272D01*
X77250Y71311D01*
X77324Y71356D01*
Y69313D01*
D02*
G37*
G36*
X177333Y72069D02*
X178811Y70822D01*
X179263Y70509D01*
X179695Y70247D01*
X180106Y70037D01*
X180497Y69877D01*
X180867Y69769D01*
X181217Y69712D01*
X178005Y66500D01*
X177948Y66850D01*
X177839Y67220D01*
X177680Y67611D01*
X177469Y68022D01*
X177207Y68454D01*
X176894Y68905D01*
X176114Y69870D01*
X175647Y70383D01*
X175129Y70917D01*
X176800Y72587D01*
X177333Y72069D01*
D02*
G37*
G36*
X173597Y83908D02*
X174020Y82775D01*
X174033Y82488D01*
X173953Y82234D01*
X173884Y82115D01*
X173557Y81689D01*
X173280Y81018D01*
X173185Y80299D01*
Y71752D01*
X173280Y71033D01*
X173557Y70362D01*
X173910Y69902D01*
X173977Y69798D01*
X174477Y69283D01*
X174895Y68824D01*
X175608Y67942D01*
X175628Y67913D01*
X170787Y63072D01*
X170061Y62126D01*
X169605Y61024D01*
X169449Y59842D01*
Y47244D01*
X169605Y46062D01*
X170061Y44961D01*
X170787Y44015D01*
X176582Y38219D01*
X172523Y34160D01*
X172165Y34064D01*
X171964Y33948D01*
X171017Y33890D01*
X170766Y33889D01*
X170715Y33879D01*
X165008D01*
X163629Y37090D01*
X163531Y37816D01*
X164154Y38574D01*
X164720Y39634D01*
X165069Y40784D01*
X165187Y41980D01*
Y42177D01*
X152923D01*
Y41980D01*
X153041Y40784D01*
X153390Y39634D01*
X153957Y38574D01*
X154579Y37816D01*
X154481Y37090D01*
X153102Y33879D01*
X130251D01*
X128896Y37320D01*
X128837Y37816D01*
X129508Y38633D01*
X130075Y39693D01*
X130424Y40843D01*
X130541Y42039D01*
Y42236D01*
X124409D01*
Y43024D01*
X123622D01*
Y50062D01*
X123213Y50022D01*
X122063Y49673D01*
X121003Y49106D01*
X120074Y48344D01*
X119311Y47415D01*
X118744Y46354D01*
X115644Y45091D01*
X114423Y45040D01*
X112646Y46784D01*
X112598Y46863D01*
Y50767D01*
X114638D01*
X115254Y50848D01*
X115591Y50988D01*
X115829Y51086D01*
X116323Y51465D01*
X126452Y61594D01*
X145028D01*
X145644Y61675D01*
X145981Y61814D01*
X146219Y61913D01*
X146712Y62292D01*
X150040Y65619D01*
X150082Y65602D01*
X151071Y65405D01*
X152079D01*
X153068Y65602D01*
X153999Y65988D01*
X154837Y66548D01*
X155550Y67261D01*
X156110Y68099D01*
X156496Y69031D01*
X156693Y70020D01*
Y71028D01*
X156496Y72017D01*
X156479Y72058D01*
X168346Y83925D01*
X173597Y83908D01*
D02*
G37*
G36*
X111027Y60480D02*
X111075Y60347D01*
X111153Y60228D01*
X111264Y60126D01*
X111405Y60039D01*
X111579Y59969D01*
X111783Y59913D01*
X112020Y59874D01*
X112287Y59850D01*
X112586Y59842D01*
Y58268D01*
X112287Y58260D01*
X112020Y58236D01*
X111783Y58197D01*
X111579Y58142D01*
X111405Y58071D01*
X111264Y57984D01*
X111153Y57882D01*
X111075Y57764D01*
X111027Y57630D01*
X111012Y57480D01*
Y60630D01*
X111027Y60480D01*
D02*
G37*
G36*
X92101Y57307D02*
X91975Y57391D01*
X91828Y57431D01*
X91659Y57427D01*
X91469Y57380D01*
X91257Y57289D01*
X91023Y57155D01*
X90768Y56977D01*
X90492Y56756D01*
X89874Y56182D01*
X88662Y57197D01*
X88980Y57525D01*
X89478Y58112D01*
X89659Y58370D01*
X89794Y58604D01*
X89884Y58815D01*
X89928Y59003D01*
X89927Y59167D01*
X89880Y59307D01*
X89788Y59424D01*
X92101Y57307D01*
D02*
G37*
G36*
X95082Y54049D02*
X95130Y53984D01*
X95209Y53927D01*
X95319Y53878D01*
X95460Y53836D01*
X95634Y53801D01*
X95838Y53774D01*
X96342Y53744D01*
X96641Y53740D01*
Y52165D01*
X96342Y52162D01*
X95634Y52104D01*
X95460Y52070D01*
X95319Y52028D01*
X95209Y51978D01*
X95130Y51921D01*
X95082Y51856D01*
X95067Y51784D01*
Y54122D01*
X95082Y54049D01*
D02*
G37*
G36*
X91351Y51784D02*
X91335Y51856D01*
X91288Y51921D01*
X91209Y51978D01*
X91099Y52028D01*
X90957Y52070D01*
X90784Y52104D01*
X90579Y52131D01*
X90075Y52162D01*
X89776Y52165D01*
Y53740D01*
X90075Y53744D01*
X90784Y53801D01*
X90957Y53836D01*
X91099Y53878D01*
X91209Y53927D01*
X91288Y53984D01*
X91335Y54049D01*
X91351Y54122D01*
Y51784D01*
D02*
G37*
G36*
X101587Y51390D02*
X101571Y51537D01*
X101524Y51669D01*
X101445Y51785D01*
X101335Y51886D01*
X101193Y51972D01*
X101020Y52041D01*
X100815Y52096D01*
X100579Y52134D01*
X100311Y52158D01*
X100012Y52165D01*
Y53740D01*
X100313Y53748D01*
X100582Y53772D01*
X100820Y53811D01*
X101026Y53866D01*
X101201Y53937D01*
X101344Y54024D01*
X101455Y54126D01*
X101534Y54244D01*
X101582Y54378D01*
X101599Y54527D01*
X101587Y51390D01*
D02*
G37*
G36*
X42731Y102156D02*
X43898Y101969D01*
X46822Y99524D01*
X46938Y99311D01*
X46358Y95374D01*
X46339Y93787D01*
X46358Y93692D01*
X46358Y91437D01*
Y78642D01*
X51199D01*
X51367Y78264D01*
X48809Y74327D01*
X46933D01*
Y69433D01*
X43420D01*
X42700Y69339D01*
X42030Y69061D01*
X41454Y68619D01*
X41013Y68043D01*
X40735Y67373D01*
X40640Y66654D01*
X40735Y65934D01*
X41013Y65264D01*
X41454Y64688D01*
X42030Y64246D01*
X42700Y63969D01*
X43420Y63874D01*
X46933D01*
Y58744D01*
X50681D01*
Y66535D01*
X51681D01*
Y58744D01*
X55429D01*
Y63496D01*
X59366Y63660D01*
X61286Y61588D01*
X61839Y60647D01*
X62155Y60236D01*
X61909Y58553D01*
X60700Y56095D01*
X60412Y56018D01*
X59470Y55473D01*
X58700Y54704D01*
X58156Y53761D01*
X57874Y52710D01*
X54858Y50595D01*
X54139Y50350D01*
X53740Y50380D01*
Y52854D01*
X40748D01*
Y49902D01*
X40748Y47753D01*
X40738Y47722D01*
X40739Y47595D01*
X40729Y47545D01*
X40748Y45965D01*
X41515Y42032D01*
Y36491D01*
X41505Y36448D01*
X41504Y36417D01*
X40650D01*
Y29331D01*
X40650Y29331D01*
X40940Y28518D01*
X40945Y28503D01*
Y27038D01*
X37008Y24576D01*
X36251Y24943D01*
X36251Y99031D01*
X40188Y102165D01*
X42700D01*
X42731Y102156D01*
D02*
G37*
G36*
X109949Y50277D02*
X109972Y50007D01*
X110012Y49769D01*
X110067Y49563D01*
X110138Y49388D01*
X110224Y49246D01*
X110327Y49135D01*
X110445Y49055D01*
X110579Y49008D01*
X110728Y48992D01*
X107579D01*
X107728Y49008D01*
X107862Y49055D01*
X107980Y49135D01*
X108083Y49246D01*
X108169Y49388D01*
X108240Y49563D01*
X108295Y49769D01*
X108335Y50007D01*
X108358Y50277D01*
X108366Y50578D01*
X109941D01*
X109949Y50277D01*
D02*
G37*
G36*
X85382Y48040D02*
X85248Y47992D01*
X85130Y47913D01*
X85028Y47802D01*
X84941Y47659D01*
X84870Y47484D01*
X84815Y47278D01*
X84776Y47040D01*
X84752Y46770D01*
X84744Y46469D01*
X83169D01*
X83161Y46770D01*
X83138Y47040D01*
X83098Y47278D01*
X83043Y47484D01*
X82973Y47659D01*
X82886Y47802D01*
X82784Y47913D01*
X82665Y47992D01*
X82531Y48040D01*
X82382Y48055D01*
X85532D01*
X85382Y48040D01*
D02*
G37*
G36*
X51622Y47548D02*
X51488Y47500D01*
X51370Y47421D01*
X51268Y47309D01*
X51181Y47167D01*
X51110Y46992D01*
X51055Y46786D01*
X51016Y46548D01*
X50992Y46278D01*
X50984Y45977D01*
X49409D01*
X49402Y46278D01*
X49378Y46548D01*
X49339Y46786D01*
X49283Y46992D01*
X49213Y47167D01*
X49126Y47309D01*
X49024Y47421D01*
X48906Y47500D01*
X48772Y47548D01*
X48622Y47563D01*
X51772D01*
X51622Y47548D01*
D02*
G37*
G36*
X45323Y47547D02*
X45189Y47499D01*
X45071Y47419D01*
X44969Y47308D01*
X44882Y47165D01*
X44811Y46991D01*
X44756Y46785D01*
X44717Y46547D01*
X44693Y46277D01*
X44685Y45977D01*
X43110D01*
X43102Y46276D01*
X43079Y46543D01*
X43040Y46780D01*
X42986Y46984D01*
X42916Y47158D01*
X42831Y47299D01*
X42730Y47410D01*
X42614Y47488D01*
X42482Y47536D01*
X42335Y47551D01*
X45472Y47563D01*
X45323Y47547D01*
D02*
G37*
G36*
X101587Y45669D02*
X101571Y45819D01*
X101524Y45953D01*
X101445Y46071D01*
X101335Y46173D01*
X101193Y46260D01*
X101020Y46331D01*
X100815Y46386D01*
X100579Y46425D01*
X100311Y46449D01*
X100012Y46457D01*
Y48031D01*
X100311Y48039D01*
X100579Y48063D01*
X100815Y48102D01*
X101020Y48158D01*
X101193Y48228D01*
X101335Y48315D01*
X101445Y48417D01*
X101524Y48535D01*
X101571Y48669D01*
X101587Y48819D01*
Y45669D01*
D02*
G37*
G36*
X95082Y46569D02*
X95130Y46504D01*
X95209Y46447D01*
X95319Y46397D01*
X95460Y46355D01*
X95634Y46321D01*
X95838Y46294D01*
X96342Y46264D01*
X96641Y46260D01*
Y44685D01*
X96342Y44681D01*
X95634Y44624D01*
X95460Y44590D01*
X95319Y44548D01*
X95209Y44498D01*
X95130Y44441D01*
X95082Y44376D01*
X95067Y44303D01*
Y46641D01*
X95082Y46569D01*
D02*
G37*
G36*
X49625Y44265D02*
X49313Y43942D01*
X48821Y43362D01*
X48642Y43106D01*
X48507Y42872D01*
X48417Y42660D01*
X48371Y42471D01*
X48370Y42304D01*
X48412Y42160D01*
X48500Y42038D01*
X46299Y44267D01*
X46420Y44179D01*
X46563Y44135D01*
X46729Y44136D01*
X46918Y44181D01*
X47129Y44271D01*
X47363Y44406D01*
X47620Y44586D01*
X47899Y44810D01*
X48526Y45393D01*
X49625Y44265D01*
D02*
G37*
G36*
X109374Y39173D02*
X109358Y39323D01*
X109310Y39457D01*
X109230Y39575D01*
X109119Y39677D01*
X108976Y39764D01*
X108802Y39835D01*
X108596Y39890D01*
X108358Y39929D01*
X108089Y39953D01*
X107788Y39961D01*
Y41535D01*
X108087Y41541D01*
X108591Y41587D01*
X108795Y41628D01*
X108969Y41680D01*
X109110Y41744D01*
X109221Y41819D01*
X109299Y41906D01*
X109347Y42004D01*
X109362Y42114D01*
X109374Y39173D01*
D02*
G37*
G36*
X79142Y40042D02*
X79165Y39772D01*
X79205Y39535D01*
X79260Y39329D01*
X79331Y39154D01*
X79417Y39011D01*
X79520Y38900D01*
X79638Y38820D01*
X79772Y38772D01*
X79921Y38756D01*
X77571Y38767D01*
X77569Y38783D01*
X77567Y38831D01*
X77559Y40342D01*
X79134D01*
X79142Y40042D01*
D02*
G37*
G36*
X229890Y34208D02*
Y21291D01*
X120416D01*
X118785Y25228D01*
X122671Y29114D01*
X170695D01*
X170741Y29103D01*
X171717Y29084D01*
X171920Y29069D01*
X172165Y28928D01*
X172165Y28928D01*
X172865Y28740D01*
X173591D01*
X174292Y28928D01*
X174920Y29291D01*
X175434Y29804D01*
X175434Y29804D01*
X175796Y30432D01*
X175892Y30791D01*
X180438Y35336D01*
X181496Y35197D01*
X221496D01*
X221820Y35240D01*
X225571Y35689D01*
Y35689D01*
X225954Y36017D01*
X229890Y34208D01*
D02*
G37*
G36*
X70973Y36301D02*
X70996Y36031D01*
X71035Y35793D01*
X71091Y35587D01*
X71161Y35412D01*
X71248Y35269D01*
X71350Y35158D01*
X71469Y35079D01*
X71602Y35031D01*
X71752Y35015D01*
X68602D01*
X68752Y35031D01*
X68886Y35079D01*
X69004Y35158D01*
X69106Y35269D01*
X69193Y35412D01*
X69264Y35587D01*
X69319Y35793D01*
X69358Y36031D01*
X69382Y36301D01*
X69390Y36602D01*
X70965D01*
X70973Y36301D01*
D02*
G37*
G36*
X44772Y34830D02*
X42323D01*
X42472Y34846D01*
X42606Y34894D01*
X42724Y34972D01*
X42827Y35083D01*
X42913Y35224D01*
X42984Y35397D01*
X43039Y35602D01*
X43079Y35838D01*
X43102Y36106D01*
X43110Y36405D01*
X44685D01*
X44772Y34830D01*
D02*
G37*
G36*
X97193Y36229D02*
X97059Y36181D01*
X96941Y36102D01*
X96839Y35991D01*
X96752Y35848D01*
X96681Y35673D01*
X96626Y35467D01*
X96587Y35229D01*
X96563Y34959D01*
X96555Y34658D01*
X94980D01*
X94972Y34959D01*
X94949Y35229D01*
X94909Y35467D01*
X94854Y35673D01*
X94784Y35848D01*
X94697Y35991D01*
X94595Y36102D01*
X94476Y36181D01*
X94342Y36229D01*
X94193Y36244D01*
X97342D01*
X97193Y36229D01*
D02*
G37*
G36*
X64624Y34726D02*
X64648Y34456D01*
X64687Y34218D01*
X64742Y34012D01*
X64813Y33837D01*
X64900Y33694D01*
X65002Y33583D01*
X65120Y33504D01*
X65254Y33456D01*
X65403Y33441D01*
X62254D01*
X62404Y33456D01*
X62537Y33504D01*
X62656Y33583D01*
X62758Y33694D01*
X62845Y33837D01*
X62915Y34012D01*
X62971Y34218D01*
X63010Y34456D01*
X63033Y34726D01*
X63041Y35027D01*
X64616D01*
X64624Y34726D01*
D02*
G37*
G36*
X59014D02*
X59037Y34456D01*
X59077Y34218D01*
X59132Y34012D01*
X59203Y33837D01*
X59289Y33694D01*
X59392Y33583D01*
X59510Y33504D01*
X59644Y33456D01*
X59793Y33441D01*
X56644D01*
X56793Y33456D01*
X56927Y33504D01*
X57045Y33583D01*
X57148Y33694D01*
X57234Y33837D01*
X57305Y34012D01*
X57360Y34218D01*
X57400Y34456D01*
X57423Y34726D01*
X57431Y35027D01*
X59006D01*
X59014Y34726D01*
D02*
G37*
G36*
X109362Y32689D02*
X109347Y32799D01*
X109299Y32897D01*
X109221Y32984D01*
X109110Y33059D01*
X108969Y33123D01*
X108795Y33175D01*
X108591Y33216D01*
X108354Y33245D01*
X108138Y33259D01*
X107886Y33237D01*
X107649Y33198D01*
X107445Y33144D01*
X107272Y33074D01*
X107130Y32989D01*
X107019Y32888D01*
X106941Y32771D01*
X106894Y32640D01*
X106878Y32492D01*
Y34830D01*
X106894Y34833D01*
X106941Y34835D01*
X107788Y34839D01*
Y34843D01*
X108089Y34850D01*
X108358Y34874D01*
X108596Y34913D01*
X108802Y34969D01*
X108976Y35039D01*
X109119Y35126D01*
X109230Y35228D01*
X109310Y35346D01*
X109358Y35480D01*
X109374Y35630D01*
X109362Y32689D01*
D02*
G37*
G36*
X103162Y32665D02*
X103152Y32705D01*
X103122Y32740D01*
X103072Y32772D01*
X103002Y32799D01*
X102912Y32822D01*
X102803Y32841D01*
X102673Y32855D01*
X102355Y32872D01*
X102165Y32874D01*
Y34449D01*
X102355Y34451D01*
X102803Y34482D01*
X102912Y34501D01*
X103002Y34524D01*
X103072Y34551D01*
X103122Y34582D01*
X103152Y34618D01*
X103162Y34658D01*
Y32665D01*
D02*
G37*
G36*
X172479Y30583D02*
X172435Y30607D01*
X172362Y30628D01*
X172261Y30647D01*
X172133Y30663D01*
X171792Y30689D01*
X170773Y30709D01*
Y32283D01*
X171070Y32285D01*
X172362Y32364D01*
X172435Y32385D01*
X172479Y32409D01*
Y30583D01*
D02*
G37*
G36*
X52161Y30902D02*
X52079Y30854D01*
X52007Y30776D01*
X51945Y30666D01*
X51892Y30524D01*
X51849Y30351D01*
X51815Y30146D01*
X51791Y29910D01*
X51787Y29792D01*
X51838Y28980D01*
X51862Y28870D01*
X51890Y28791D01*
X51921Y28744D01*
X51956Y28728D01*
X49409Y28716D01*
X49559Y28733D01*
X49693Y28781D01*
X49811Y28861D01*
X49913Y28972D01*
X50000Y29115D01*
X50071Y29289D01*
X50126Y29495D01*
X50165Y29733D01*
X50176Y29853D01*
X50154Y30146D01*
X50120Y30351D01*
X50077Y30524D01*
X50024Y30666D01*
X49962Y30776D01*
X49890Y30854D01*
X49808Y30902D01*
X49717Y30918D01*
X52252D01*
X52161Y30902D01*
D02*
G37*
G36*
X44772Y30918D02*
X44764Y30902D01*
X44758Y30854D01*
X44752Y30776D01*
X44741Y30046D01*
X44742Y30002D01*
X44766Y29733D01*
X44805Y29495D01*
X44860Y29289D01*
X44931Y29114D01*
X45018Y28972D01*
X45120Y28860D01*
X45238Y28781D01*
X45372Y28733D01*
X45522Y28716D01*
X42532Y28728D01*
X42651Y28744D01*
X42758Y28791D01*
X42852Y28870D01*
X42933Y28980D01*
X43003Y29122D01*
X43059Y29295D01*
X43103Y29500D01*
X43134Y29736D01*
X43138Y29794D01*
X43128Y29913D01*
X43089Y30150D01*
X43033Y30356D01*
X42963Y30531D01*
X42876Y30674D01*
X42774Y30785D01*
X42656Y30865D01*
X42522Y30913D01*
X42372Y30929D01*
X44772Y30918D01*
D02*
G37*
G36*
X92311Y28531D02*
X90289Y28519D01*
X90376Y28532D01*
X90454Y28571D01*
X90523Y28634D01*
X90583Y28722D01*
X90633Y28835D01*
X90675Y28974D01*
X90707Y29137D01*
X90730Y29326D01*
X90743Y29540D01*
X90748Y29778D01*
X92323D01*
X92311Y28531D01*
D02*
G37*
G36*
X73220Y27016D02*
X73268Y26882D01*
X73347Y26764D01*
X73458Y26661D01*
X73601Y26575D01*
X73776Y26504D01*
X73982Y26449D01*
X74220Y26409D01*
X74490Y26386D01*
X74791Y26378D01*
Y24803D01*
X74490Y24795D01*
X74220Y24772D01*
X73982Y24732D01*
X73776Y24677D01*
X73601Y24606D01*
X73458Y24520D01*
X73347Y24417D01*
X73268Y24299D01*
X73220Y24165D01*
X73204Y24016D01*
Y27165D01*
X73220Y27016D01*
D02*
G37*
G36*
X63792Y24016D02*
X63776Y24165D01*
X63728Y24299D01*
X63650Y24417D01*
X63540Y24520D01*
X63398Y24606D01*
X63225Y24677D01*
X63020Y24732D01*
X62784Y24772D01*
X62516Y24795D01*
X62217Y24803D01*
Y26378D01*
X62516Y26386D01*
X62784Y26409D01*
X63020Y26449D01*
X63225Y26504D01*
X63398Y26575D01*
X63540Y26661D01*
X63650Y26764D01*
X63728Y26882D01*
X63776Y27016D01*
X63792Y27165D01*
Y24016D01*
D02*
G37*
%LPC*%
G36*
X159842Y253385D02*
Y247134D01*
X165187D01*
Y247331D01*
X165069Y248527D01*
X164720Y249677D01*
X164154Y250737D01*
X163391Y251666D01*
X162462Y252429D01*
X161402Y252996D01*
X160251Y253345D01*
X159842Y253385D01*
D02*
G37*
G36*
X158268D02*
X157859Y253345D01*
X156709Y252996D01*
X155648Y252429D01*
X154719Y251666D01*
X153957Y250737D01*
X153390Y249677D01*
X153041Y248527D01*
X152923Y247331D01*
Y247134D01*
X158268D01*
Y253385D01*
D02*
G37*
G36*
X130541Y245618D02*
X125197D01*
Y239367D01*
X125606Y239407D01*
X126756Y239756D01*
X127816Y240323D01*
X128745Y241085D01*
X129508Y242015D01*
X130075Y243075D01*
X130423Y244225D01*
X130541Y245421D01*
Y245618D01*
D02*
G37*
G36*
X165187Y245559D02*
X159842D01*
Y239308D01*
X160251Y239348D01*
X161402Y239697D01*
X162462Y240264D01*
X163391Y241026D01*
X164154Y241955D01*
X164720Y243016D01*
X165069Y244166D01*
X165187Y245362D01*
Y245559D01*
D02*
G37*
G36*
X158268D02*
X152923D01*
Y245362D01*
X153041Y244166D01*
X153390Y243016D01*
X153957Y241955D01*
X154719Y241026D01*
X155648Y240264D01*
X156709Y239697D01*
X157859Y239348D01*
X158268Y239308D01*
Y245559D01*
D02*
G37*
G36*
X225096Y238819D02*
X222283D01*
Y236006D01*
X222917Y236176D01*
X223756Y236661D01*
X224442Y237346D01*
X224926Y238185D01*
X225096Y238819D01*
D02*
G37*
G36*
X219291Y169847D02*
Y165472D01*
X223666D01*
X223520Y166207D01*
X223127Y167156D01*
X222556Y168010D01*
X221829Y168737D01*
X220975Y169308D01*
X220026Y169701D01*
X219291Y169847D01*
D02*
G37*
G36*
X217717D02*
X216982Y169701D01*
X216033Y169308D01*
X215179Y168737D01*
X214452Y168010D01*
X213881Y167156D01*
X213488Y166207D01*
X213342Y165472D01*
X217717D01*
Y169847D01*
D02*
G37*
G36*
X223666Y163898D02*
X219291D01*
Y159523D01*
X220026Y159669D01*
X220975Y160062D01*
X221829Y160633D01*
X222556Y161360D01*
X223127Y162214D01*
X223520Y163163D01*
X223666Y163898D01*
D02*
G37*
G36*
X217717D02*
X213342D01*
X213488Y163163D01*
X213881Y162214D01*
X214452Y161360D01*
X215179Y160633D01*
X216033Y160062D01*
X216982Y159669D01*
X217717Y159523D01*
Y163898D01*
D02*
G37*
G36*
X219057Y150295D02*
X217951D01*
X216867Y150080D01*
X215846Y149657D01*
X214928Y149043D01*
X214146Y148261D01*
X213532Y147343D01*
X213109Y146321D01*
X212894Y145238D01*
Y144132D01*
X213109Y143049D01*
X213532Y142028D01*
X214146Y141109D01*
X214928Y140327D01*
X215846Y139713D01*
X216867Y139290D01*
X217951Y139075D01*
X219057D01*
X220140Y139290D01*
X221161Y139713D01*
X222080Y140327D01*
X222862Y141109D01*
X223476Y142028D01*
X223899Y143049D01*
X224114Y144132D01*
Y145238D01*
X223899Y146321D01*
X223476Y147343D01*
X222862Y148261D01*
X222080Y149043D01*
X221161Y149657D01*
X220140Y150080D01*
X219057Y150295D01*
D02*
G37*
G36*
X219291Y129847D02*
Y125472D01*
X223666D01*
X223520Y126207D01*
X223127Y127156D01*
X222556Y128010D01*
X221829Y128737D01*
X220975Y129308D01*
X220026Y129701D01*
X219291Y129847D01*
D02*
G37*
G36*
X217717D02*
X216982Y129701D01*
X216033Y129308D01*
X215179Y128737D01*
X214452Y128010D01*
X213881Y127156D01*
X213488Y126207D01*
X213342Y125472D01*
X217717D01*
Y129847D01*
D02*
G37*
G36*
X223666Y123898D02*
X219291D01*
Y119523D01*
X220026Y119669D01*
X220975Y120062D01*
X221829Y120633D01*
X222556Y121360D01*
X223127Y122214D01*
X223520Y123163D01*
X223666Y123898D01*
D02*
G37*
G36*
X217717D02*
X213342D01*
X213488Y123163D01*
X213881Y122214D01*
X214452Y121360D01*
X215179Y120633D01*
X216033Y120062D01*
X216982Y119669D01*
X217717Y119523D01*
Y123898D01*
D02*
G37*
G36*
X222283Y53364D02*
Y50551D01*
X225096D01*
X224926Y51185D01*
X224442Y52024D01*
X223756Y52709D01*
X222917Y53194D01*
X222283Y53364D01*
D02*
G37*
G36*
X125197Y50062D02*
Y43811D01*
X130541D01*
Y44008D01*
X130424Y45204D01*
X130075Y46354D01*
X129508Y47415D01*
X128745Y48344D01*
X127816Y49106D01*
X126756Y49673D01*
X125606Y50022D01*
X125197Y50062D01*
D02*
G37*
G36*
X159843Y50003D02*
Y43752D01*
X165187D01*
Y43949D01*
X165069Y45145D01*
X164720Y46295D01*
X164154Y47355D01*
X163391Y48285D01*
X162462Y49047D01*
X161402Y49614D01*
X160251Y49963D01*
X159843Y50003D01*
D02*
G37*
G36*
X158268D02*
X157859Y49963D01*
X156709Y49614D01*
X155648Y49047D01*
X154719Y48285D01*
X153957Y47355D01*
X153390Y46295D01*
X153041Y45145D01*
X152923Y43949D01*
Y43752D01*
X158268D01*
Y50003D01*
D02*
G37*
%LPD*%
D11*
X99410Y214035D02*
X105118D01*
X93701D02*
X99410D01*
X87008Y80449D02*
Y88189D01*
X81535Y75335D02*
X84093Y77892D01*
X84451D02*
X87008Y80449D01*
X79724Y75335D02*
X81535D01*
X84093Y77892D02*
X84451D01*
X51688Y66654D02*
X59168D01*
X43420D02*
X51063D01*
X152559Y206693D02*
X157874D01*
X143504D02*
X152559D01*
X79724Y80335D02*
X79724D01*
X79724Y84173D02*
Y84272D01*
Y80335D02*
Y84173D01*
X87008Y88189D02*
X91535Y92716D01*
X96457D01*
X82874Y212343D02*
Y230118D01*
X79567Y209035D02*
X82874Y212343D01*
X77756Y209035D02*
X79567D01*
X80315Y201603D02*
X88583Y209871D01*
Y230118D01*
X80315Y170866D02*
Y201603D01*
X105000Y224035D02*
X105170Y223865D01*
X109796D01*
X110236Y223425D01*
Y217520D02*
Y217618D01*
X108819Y219035D02*
X110236Y217618D01*
X99410Y219035D02*
X108819D01*
X51575Y234252D02*
X59055D01*
X43307D02*
X50950D01*
X51186Y234016D01*
X51181Y234646D02*
X51575Y234252D01*
X64961Y122638D02*
X70866D01*
X99410Y224035D02*
X105000D01*
X96457Y198622D02*
X99410Y201575D01*
Y209035D01*
X85541Y141929D02*
X89862D01*
X78085Y144685D02*
X82785D01*
X85541Y141929D01*
X172520Y209921D02*
X173622Y211024D01*
X167323Y209921D02*
X172520D01*
X157874Y206693D02*
X159082Y205485D01*
Y203221D02*
Y205485D01*
Y203221D02*
X160335Y201969D01*
X168110Y97776D02*
Y115256D01*
X189961Y193563D02*
Y198563D01*
X179134D02*
X189961D01*
X168307D02*
X179134D01*
X168307Y193563D02*
Y198563D01*
X141929Y205118D02*
X143504Y206693D01*
X168110Y97776D02*
X178839D01*
X157382D02*
X168110D01*
X167224Y116142D02*
X168110Y115256D01*
X178839Y92776D02*
Y97776D01*
X157382Y92776D02*
Y97776D01*
X175965Y71752D02*
X180945Y66772D01*
X178839Y83173D02*
Y87776D01*
X175965Y80299D02*
X178839Y83173D01*
X175965Y71752D02*
Y80299D01*
D54*
X69784Y258858D02*
D03*
X64075D02*
D03*
X63878Y37598D02*
D03*
X58169D02*
D03*
X76772Y230118D02*
D03*
X71063D02*
D03*
X82874Y236024D02*
D03*
X88583D02*
D03*
Y230118D02*
D03*
X82874D02*
D03*
X103445Y59055D02*
D03*
X109153D02*
D03*
X69784Y247047D02*
D03*
X64075D02*
D03*
X69784Y252953D02*
D03*
X64075D02*
D03*
X71358Y25591D02*
D03*
X65650D02*
D03*
X63878Y31693D02*
D03*
X58169D02*
D03*
X44390Y26969D02*
D03*
X50098D02*
D03*
X167323Y209921D02*
D03*
X161614D02*
D03*
X199114Y201181D02*
D03*
X204823D02*
D03*
X75886Y262598D02*
D03*
X81595D02*
D03*
X58169Y43504D02*
D03*
X63878D02*
D03*
X146555Y82677D02*
D03*
X140847D02*
D03*
X103445Y53150D02*
D03*
X109153D02*
D03*
X96555Y262598D02*
D03*
X90847D02*
D03*
X109153Y47244D02*
D03*
X103445D02*
D03*
X90453Y26772D02*
D03*
X96161D02*
D03*
X76772Y236024D02*
D03*
X71063D02*
D03*
X91634Y59055D02*
D03*
X97342D02*
D03*
D55*
X110236Y65256D02*
D03*
Y70965D02*
D03*
X41535Y254823D02*
D03*
Y249114D02*
D03*
X61024Y199705D02*
D03*
Y193996D02*
D03*
X47244Y111122D02*
D03*
Y105413D02*
D03*
X96457Y241043D02*
D03*
Y235335D02*
D03*
X92126Y249114D02*
D03*
Y254823D02*
D03*
X111122Y34547D02*
D03*
Y40256D02*
D03*
X89764Y33760D02*
D03*
Y39469D02*
D03*
X66929Y193996D02*
D03*
Y199705D02*
D03*
D56*
X156260Y188189D02*
D03*
X160276D02*
D03*
X188150Y103937D02*
D03*
X192165D02*
D03*
D57*
X160433Y194095D02*
D03*
X153740D02*
D03*
X187205Y90158D02*
D03*
X193898D02*
D03*
D58*
X64961Y122638D02*
D03*
Y129331D02*
D03*
D59*
X110236Y223425D02*
D03*
Y217520D02*
D03*
X70866Y65945D02*
D03*
Y71850D02*
D03*
D60*
X57087Y261811D02*
D03*
X51181D02*
D03*
X50197Y49409D02*
D03*
X44291D02*
D03*
D61*
X110236Y76831D02*
D03*
Y80650D02*
D03*
X68898Y220532D02*
D03*
Y224350D02*
D03*
D62*
X99410Y209035D02*
D03*
Y214035D02*
D03*
Y219035D02*
D03*
Y224035D02*
D03*
X77756Y209035D02*
D03*
Y214035D02*
D03*
Y219035D02*
D03*
Y224035D02*
D03*
X101378Y65335D02*
D03*
Y70335D02*
D03*
Y75335D02*
D03*
Y80335D02*
D03*
X79724Y65335D02*
D03*
Y70335D02*
D03*
Y75335D02*
D03*
Y80335D02*
D03*
X168307Y203563D02*
D03*
Y198563D02*
D03*
Y193563D02*
D03*
Y188563D02*
D03*
X189961Y203563D02*
D03*
Y198563D02*
D03*
Y193563D02*
D03*
Y188563D02*
D03*
D63*
X178839Y87776D02*
D03*
Y92776D02*
D03*
Y97776D02*
D03*
Y102776D02*
D03*
X157382Y87776D02*
D03*
Y92776D02*
D03*
Y97776D02*
D03*
Y102776D02*
D03*
D64*
X129724Y192126D02*
D03*
X141929D02*
D03*
Y205118D02*
D03*
X129724D02*
D03*
X141929Y99213D02*
D03*
X129724D02*
D03*
D65*
X84449Y256594D02*
D03*
X76968D02*
D03*
X80709Y247342D02*
D03*
D66*
X70177Y41339D02*
D03*
Y33858D02*
D03*
X79429Y37598D02*
D03*
X89862Y149409D02*
D03*
Y141929D02*
D03*
X99114Y145669D02*
D03*
X110925Y232480D02*
D03*
Y239961D02*
D03*
X101673Y236221D02*
D03*
X97736Y255709D02*
D03*
Y248228D02*
D03*
X106988Y251969D02*
D03*
X93209Y45472D02*
D03*
Y52953D02*
D03*
X83957Y49213D02*
D03*
X105020Y33661D02*
D03*
Y41142D02*
D03*
X95768Y37402D02*
D03*
D67*
X56890Y251969D02*
D03*
X47441Y248228D02*
D03*
Y255709D02*
D03*
D68*
X47244Y42323D02*
D03*
X50984Y32874D02*
D03*
X43504D02*
D03*
D69*
X129823Y155512D02*
D03*
X153642D02*
D03*
Y175197D02*
D03*
X129823D02*
D03*
X191043Y175197D02*
D03*
X167224D02*
D03*
Y155512D02*
D03*
X191043D02*
D03*
X167224Y116142D02*
D03*
X191043D02*
D03*
Y135827D02*
D03*
X167224D02*
D03*
X153642Y135827D02*
D03*
X129823D02*
D03*
Y116142D02*
D03*
X153642D02*
D03*
D70*
X51181Y66535D02*
D03*
Y87008D02*
D03*
Y214173D02*
D03*
Y234646D02*
D03*
D71*
X70866Y78740D02*
D03*
X171260Y259842D02*
D03*
X129921Y88583D02*
D03*
X66929Y153543D02*
D03*
X61024Y148622D02*
D03*
X118110Y210630D02*
D03*
X152559D02*
D03*
X110236D02*
D03*
X138150Y89921D02*
D03*
X173228Y31496D02*
D03*
D72*
X58961Y133934D02*
D03*
X62992Y137795D02*
D03*
X61024Y141732D02*
D03*
X57874Y93701D02*
D03*
Y96850D02*
D03*
X61024Y93701D02*
D03*
Y96850D02*
D03*
X69685Y178347D02*
D03*
Y181496D02*
D03*
X66535Y178347D02*
D03*
Y181496D02*
D03*
D73*
X108465Y262598D02*
D03*
X102559D02*
D03*
Y26772D02*
D03*
X108465D02*
D03*
D74*
X67585Y144685D02*
D03*
X78085D02*
D03*
D75*
X64961Y159843D02*
D03*
Y170866D02*
D03*
X61024Y102756D02*
D03*
Y113779D02*
D03*
D76*
X96457Y198622D02*
D03*
Y159646D02*
D03*
Y131693D02*
D03*
Y92716D02*
D03*
D77*
X153839Y201969D02*
D03*
X160335D02*
D03*
X187303Y98032D02*
D03*
X193799D02*
D03*
D78*
X51181Y134646D02*
D03*
Y137205D02*
D03*
Y139764D02*
D03*
Y142323D02*
D03*
Y144882D02*
D03*
D79*
X41339Y105315D02*
D03*
Y111221D02*
D03*
D80*
X96616Y228187D02*
X112364D01*
X129230Y211321D02*
X134053D01*
X112364Y228187D02*
X129230Y211321D01*
X140256Y205118D02*
X141929D01*
X134053Y211321D02*
X140256Y205118D01*
X80905Y251969D02*
X82284D01*
X85039Y245669D02*
Y249213D01*
X82284Y251969D02*
X85039Y249213D01*
X77400Y255474D02*
X80905Y251969D01*
X85039Y245669D02*
X86833Y243876D01*
X86833D02*
X92520Y238189D01*
X86833Y243876D02*
X86833D01*
X92520Y232284D02*
Y238189D01*
X77400Y256163D02*
X77400Y256163D01*
X76968Y256594D02*
Y257247D01*
X77400Y256163D02*
X77400Y256163D01*
Y255474D02*
Y256163D01*
X76968Y256594D02*
X77400Y256163D01*
X76537Y257678D02*
X76968Y257247D01*
X74016Y258858D02*
X75196Y257678D01*
X69685Y258858D02*
X74016D01*
X75196Y257678D02*
X76537D01*
X66929Y234154D02*
X70965Y230118D01*
X66929Y234154D02*
Y240158D01*
X70965Y230118D02*
X71063D01*
X66929Y240158D02*
X69685Y242913D01*
Y246949D01*
X92520Y232284D02*
X96616Y228187D01*
X69685Y246949D02*
X69784Y247047D01*
X76772Y230118D02*
X77264Y229626D01*
Y224434D02*
Y229626D01*
Y224434D02*
X77662Y224035D01*
X77756D01*
X69685Y258858D02*
X69734Y258809D01*
Y253002D02*
X69784Y252953D01*
X69734Y253002D02*
Y258809D01*
X69784Y247047D02*
Y252953D01*
D81*
X102758Y65335D02*
X102948Y65145D01*
Y59552D02*
Y65145D01*
Y59552D02*
X103445Y59055D01*
X97342D02*
X103445D01*
X47736Y43504D02*
X47751D01*
X47244Y43012D02*
X47736Y43504D01*
X47244Y42323D02*
Y43012D01*
X47751Y43504D02*
X50204Y45957D01*
X50197Y45965D02*
Y49409D01*
X58218Y43455D02*
X58268Y43504D01*
X79574Y65485D02*
X79724Y65335D01*
X70866Y65945D02*
X71326Y65485D01*
X79574D01*
X79724Y65335D02*
X81535D01*
X85630Y75050D02*
X95226Y84646D01*
X85630Y70866D02*
Y75050D01*
X85329Y70565D02*
X85630Y70866D01*
X85329Y69128D02*
Y70565D01*
X81535Y65335D02*
X85329Y69128D01*
X76772Y52165D02*
X80610Y56004D01*
X88583D01*
X76772Y42323D02*
Y52165D01*
X64075Y37795D02*
X70177D01*
X72200D01*
X73622Y39217D01*
Y53345D01*
X75348Y55070D02*
Y55496D01*
X73622Y53345D02*
X75348Y55070D01*
X63878Y43504D02*
X67323D01*
X63829Y37549D02*
X64075Y37795D01*
X90551Y58071D02*
X91535Y59055D01*
X90551Y57972D02*
Y58071D01*
X88583Y56004D02*
X90551Y57972D01*
X67323Y43504D02*
X69488Y41339D01*
X70177D01*
X78740Y37598D02*
X79429D01*
X78347Y37992D02*
X78740Y37598D01*
X78347Y37992D02*
Y40748D01*
X76772Y42323D02*
X78347Y40748D01*
X70177Y33858D02*
Y37795D01*
X91535Y59055D02*
X91634D01*
X52135Y164831D02*
X63423Y153543D01*
X52135Y164831D02*
Y166687D01*
X45594Y173228D02*
X52135Y166687D01*
X55081Y222539D02*
X61024Y216597D01*
X47281Y222539D02*
X55081D01*
X45276Y220534D02*
X47281Y222539D01*
X45276Y205043D02*
Y220534D01*
Y205043D02*
X51299Y199019D01*
Y187126D02*
Y199019D01*
X45276Y181102D02*
X51299Y187126D01*
X45472Y265945D02*
X99077D01*
X56890Y257677D02*
X62161D01*
X56102Y225394D02*
X64718Y216778D01*
X45276Y225394D02*
X56102D01*
X48130Y255709D02*
X52479Y251360D01*
Y250904D02*
Y251360D01*
Y250904D02*
X56336Y247047D01*
X64075D01*
X59524Y168465D02*
X62635Y165354D01*
X71774D02*
X84766Y152362D01*
X62635Y165354D02*
X71774D01*
X64718Y205692D02*
Y216778D01*
Y205692D02*
X66929Y203480D01*
X61024Y199705D02*
Y216597D01*
X66929Y199705D02*
Y203480D01*
X39252Y202638D02*
X41535Y204921D01*
X39252Y194682D02*
Y202638D01*
X41535Y204921D02*
Y221654D01*
X45276Y225394D01*
X39252Y194682D02*
X44957Y188976D01*
X45276D01*
X63423Y153543D02*
X68898D01*
X45276Y173228D02*
X45594D01*
X61024Y180118D02*
Y193996D01*
X59524Y178619D02*
X61024Y180118D01*
X59524Y168465D02*
Y178619D01*
X121555Y259842D02*
X171260D01*
X221457Y250000D02*
Y250317D01*
Y39724D02*
X221496Y39764D01*
X83661Y25591D02*
Y40354D01*
X78085Y144685D02*
Y145887D01*
X68898Y153543D02*
X75091Y147350D01*
X76622D02*
X78085Y145887D01*
X75091Y147350D02*
X76622D01*
X61024Y144882D02*
X67388D01*
X51181D02*
X61024D01*
Y148622D01*
X118110Y205512D02*
Y210630D01*
Y205512D02*
X118504Y205118D01*
X152559Y206693D02*
Y210630D01*
X110236D02*
Y217520D01*
X70866Y71850D02*
Y78740D01*
Y71752D02*
Y71850D01*
X129724Y99213D02*
X129921Y99016D01*
Y88583D02*
Y99016D01*
X132874Y84646D02*
X138150Y89921D01*
X125689Y84646D02*
X132874D01*
X125689Y70571D02*
Y84646D01*
X50663Y27533D02*
X50984Y27854D01*
X50098Y26969D02*
X50663Y27533D01*
X138150Y89921D02*
Y96949D01*
X140413Y99213D02*
X141929D01*
X138150Y96949D02*
X140413Y99213D01*
X77074Y75485D02*
X79574D01*
X79724Y75335D01*
X109153Y59055D02*
X114173D01*
X125689Y70571D01*
X110236Y71063D02*
X111221Y72047D01*
X111319D02*
X112106Y72835D01*
X114173D02*
X116142Y74803D01*
X110236Y70965D02*
Y71063D01*
X112106Y72835D02*
X114173D01*
X111221Y72047D02*
X111319D01*
X116142Y74803D02*
X116142D01*
X192087Y103937D02*
X196818D01*
X198393Y102362D02*
X198819D01*
X196818Y103937D02*
X198393Y102362D01*
X169291Y88240D02*
Y92520D01*
X151575Y70524D02*
X169291Y88240D01*
X185945Y208661D02*
X191535D01*
X161417Y214567D02*
X167323D01*
X157823D02*
X161417D01*
X161614Y214370D01*
Y209921D02*
Y214370D01*
X151575Y220815D02*
X157823Y214567D01*
X191535Y208661D02*
X199016Y201181D01*
X199114D01*
X152874Y188189D02*
X156339D01*
X92618Y255315D02*
X97342D01*
X97736Y255709D01*
X92126Y254823D02*
X92618Y255315D01*
X55690Y137205D02*
X58961Y133934D01*
X51181Y137205D02*
X55690D01*
X57033Y139764D02*
X59002Y137795D01*
X51181Y139764D02*
X57033D01*
X59002Y137795D02*
X62992D01*
X60326Y142323D02*
X60917Y141732D01*
X61024D01*
X51181Y142323D02*
X60326D01*
X173228Y31496D02*
X181496Y39764D01*
X113597Y23409D02*
X121684Y31496D01*
X173228D01*
X87946Y23409D02*
X113597D01*
X86355Y25000D02*
X87946Y23409D01*
X83661Y25000D02*
X86355D01*
X83661D02*
Y25591D01*
X146555Y75543D02*
X151575Y70524D01*
X146555Y75543D02*
Y82677D01*
X140847Y71409D02*
X141732Y70524D01*
X140847Y71409D02*
Y82677D01*
X125465Y63976D02*
X145028D01*
X109153Y53150D02*
X114638D01*
X125465Y63976D01*
X145028D02*
X151575Y70524D01*
X116968Y236221D02*
X124842Y228346D01*
X144043D01*
X151575Y220815D01*
X97896Y40551D02*
X100228Y38220D01*
X90748Y40551D02*
X97896D01*
X105020Y37402D02*
Y41142D01*
X100228Y35599D02*
Y38220D01*
X102165Y33661D02*
X105413D01*
X100228Y35599D02*
X102165Y33661D01*
X70866Y71752D02*
X72284Y70335D01*
X79724D01*
X83957Y45177D02*
X86417Y42717D01*
Y36946D02*
X88521Y34843D01*
X86417Y36946D02*
Y42717D01*
X83957Y45177D02*
Y48819D01*
X83957Y48819D02*
Y49213D01*
Y48819D02*
X83957Y48819D01*
X83071Y25591D02*
X83661Y25000D01*
X79724Y44291D02*
X83661Y40354D01*
X79724Y44291D02*
Y51181D01*
X81496Y52953D02*
X93209D01*
X79724Y51181D02*
X81496Y52953D01*
X93209D02*
X103248D01*
X71358Y25591D02*
X83071D01*
X60870D02*
X65650D01*
X58902Y23622D02*
X60870Y25591D01*
X47576Y23622D02*
X58902D01*
X46654Y24545D02*
X47576Y23622D01*
X46654Y24545D02*
Y24803D01*
X44439Y27018D02*
X46654Y24803D01*
X43504Y32874D02*
X43898Y33268D01*
Y49016D01*
X44291Y49409D01*
X43504Y27854D02*
X43848D01*
X43947Y27953D01*
Y32431D01*
X43504Y32874D02*
X43947Y32431D01*
X91535Y29778D02*
X92072Y30315D01*
X91535Y27756D02*
Y29778D01*
X90551Y26772D02*
X91535Y27756D01*
X90453Y26772D02*
X90551D01*
X95768Y33895D02*
Y37402D01*
X92188Y30315D02*
X95768Y33895D01*
X92072Y30315D02*
X92188D01*
X96161Y26772D02*
X102559D01*
X50663Y27533D02*
X59878D01*
X61614Y29269D01*
Y29528D02*
X63779Y31693D01*
X61614Y29269D02*
Y29528D01*
X88779Y34843D02*
X89764Y33858D01*
Y33760D02*
Y33858D01*
X88521Y34843D02*
X88779D01*
X108465Y26772D02*
X112205D01*
X95226Y84646D02*
X125689D01*
X114104Y80404D02*
X114173Y80335D01*
X110305Y80404D02*
X114104D01*
X110236Y80472D02*
X110305Y80404D01*
X63779Y31693D02*
X63878D01*
X109153Y47244D02*
Y53150D01*
X97244Y45472D02*
X99016Y47244D01*
X103445D01*
X93209Y45472D02*
X97244D01*
X110197Y65295D02*
X110236Y65256D01*
X102948Y65295D02*
X110197D01*
X101378Y65335D02*
X102758D01*
X103248Y52953D02*
X103445Y53150D01*
X89764Y39567D02*
X90748Y40551D01*
X89764Y39469D02*
Y39567D01*
X110630Y34055D02*
X111122Y34547D01*
X105807Y34055D02*
X110630D01*
X105413Y33661D02*
X105807Y34055D01*
X105020Y41142D02*
X105413D01*
X110630Y40748D02*
X111122Y40256D01*
X105807Y40748D02*
X110630D01*
X105413Y41142D02*
X105807Y40748D01*
X57767Y96850D02*
X57874D01*
X86660Y262598D02*
X90847D01*
X101378Y80335D02*
X101378Y80335D01*
X95669Y80335D02*
X101378D01*
X95669Y80335D02*
X95669Y80335D01*
X43504Y27854D02*
X44390Y26969D01*
X50984Y27854D02*
Y32874D01*
X58169Y31693D02*
X58218Y31742D01*
Y37549D01*
X58268Y37598D01*
X58218Y37648D02*
X58268Y37598D01*
X58218Y37648D02*
Y43455D01*
X52657Y43504D02*
X58169D01*
X63829Y31742D02*
X63878Y31693D01*
X63829Y31742D02*
Y37549D01*
X50197Y45965D02*
X52657Y43504D01*
X37402Y257874D02*
X45472Y265945D01*
X37402Y253088D02*
Y257874D01*
X99077Y265945D02*
X115453D01*
X99077Y265945D02*
X99077Y265945D01*
X115453D02*
X121555Y259842D01*
X50000Y260630D02*
Y260728D01*
X51083Y261811D02*
X51181D01*
X47441Y255709D02*
Y258071D01*
X50000Y260630D01*
Y260728D02*
X51083Y261811D01*
X62260Y257776D02*
X63091D01*
X62161Y257677D02*
X62260Y257776D01*
X63091D02*
X64173Y258858D01*
X56890Y251969D02*
Y257677D01*
Y258366D02*
Y261614D01*
Y257677D02*
Y258366D01*
Y261614D02*
X57087Y261811D01*
X121688Y259842D02*
Y259842D01*
X110925Y249079D02*
X121688Y259842D01*
X110925Y239961D02*
Y249079D01*
X171260Y259842D02*
X181496Y249606D01*
X88189Y246457D02*
X91339Y243307D01*
X95411Y242126D02*
X95472D01*
X91339Y243307D02*
X94230D01*
X96457Y241043D02*
Y241142D01*
X94230Y243307D02*
X95411Y242126D01*
X95472D02*
X96457Y241142D01*
X88189Y246457D02*
Y256755D01*
X90293Y258858D01*
X99865D01*
X103543Y255180D01*
X106299Y238189D02*
X108268Y236221D01*
X116968D01*
X106299Y238189D02*
Y246457D01*
X103543Y249213D02*
X106299Y246457D01*
X103543Y249213D02*
Y255180D01*
X99145Y255315D02*
X101181Y253278D01*
X101575Y236221D02*
X101673D01*
X101181Y236614D02*
X101575Y236221D01*
X101181Y236614D02*
Y253278D01*
X98130Y255315D02*
X99145D01*
X97736Y255709D02*
X98130Y255315D01*
X85433Y240551D02*
X87521Y238463D01*
X88505Y236024D02*
X88583D01*
X87521Y237008D02*
X88505Y236024D01*
X87521Y237008D02*
Y238463D01*
X96457Y235236D02*
Y235335D01*
Y235236D02*
X99213Y232480D01*
X110925D01*
X97660Y248305D02*
X97736Y248382D01*
Y251969D01*
X92935Y248305D02*
X97660D01*
X92126Y249114D02*
X92935Y248305D01*
X160531Y210906D02*
X161516Y209921D01*
X151575Y220815D02*
Y220815D01*
X161516Y209921D02*
X161614D01*
X86660Y262386D02*
Y262598D01*
X67163D02*
X75886D01*
X65551Y260987D02*
X67163Y262598D01*
X65551Y259941D02*
Y260987D01*
X64419Y258809D02*
X65551Y259941D01*
X81595Y262598D02*
X81693D01*
X84449Y259842D01*
Y256594D02*
Y259842D01*
Y256594D02*
X84449Y256594D01*
X72146Y239469D02*
X78937Y246260D01*
X72146Y237008D02*
Y239469D01*
X78937Y246260D02*
X80315D01*
X80709Y246654D01*
Y247342D01*
X71161Y236024D02*
X72146Y237008D01*
X71063Y236024D02*
X71161D01*
X68887Y224184D02*
X68898Y224173D01*
X65175Y224195D02*
X65186Y224184D01*
X68887D01*
X40551Y250197D02*
X41535Y249213D01*
X40293Y250197D02*
X40551D01*
X37402Y253088D02*
X40293Y250197D01*
X41535Y249114D02*
Y249213D01*
X96555Y262598D02*
X102559D01*
X106988Y261516D02*
X107382D01*
X108465Y262598D01*
X106988Y251969D02*
Y261516D01*
X76772Y230118D02*
Y236024D01*
X82874D01*
X66929Y144029D02*
X67585Y144685D01*
X66929Y130905D02*
Y144029D01*
X64961Y129331D02*
X65354D01*
X66929Y130905D01*
X51279Y110039D02*
X53740Y107579D01*
X53740D01*
X48228Y110039D02*
X51279D01*
X41339Y111221D02*
Y116142D01*
X47244Y111024D02*
Y111122D01*
Y111024D02*
X48228Y110039D01*
X41339Y105315D02*
X47146D01*
X47244Y105413D01*
X60876Y113632D02*
X61024Y113779D01*
X84766Y152362D02*
X86221D01*
X89173Y149409D01*
X89862D01*
X66929Y188976D02*
Y193996D01*
X67388Y144882D02*
X67585Y144685D01*
X193799Y97736D02*
X195472Y96063D01*
X195768D01*
X193799Y97736D02*
Y98032D01*
X195768Y96063D02*
X197435Y94396D01*
X199305D01*
X199606Y94095D01*
X197140Y93793D02*
X199305D01*
X193898Y90158D02*
Y90551D01*
X197140Y93793D01*
X199305D02*
X199606Y94095D01*
X204774Y201132D02*
X204823Y201181D01*
X204774Y196112D02*
Y201132D01*
X204724Y196063D02*
X204774Y196112D01*
X153740Y193701D02*
Y194095D01*
X150498Y197730D02*
X153740Y194488D01*
X149120Y197730D02*
X150498D01*
X153740Y194095D02*
Y194488D01*
X148819Y198031D02*
X149120Y197730D01*
X148819Y198031D02*
X149120Y198333D01*
X150498D02*
X153839Y201673D01*
X149120Y198333D02*
X150498D01*
X153839Y201673D02*
Y201969D01*
X160335D02*
X161929Y203563D01*
X160433Y194095D02*
Y194488D01*
X162008Y196063D02*
X162402D01*
X164644Y198306D02*
X165682D01*
X165789Y198412D02*
X168156D01*
X160433Y194488D02*
X162008Y196063D01*
X162402D02*
X164644Y198306D01*
X165682D02*
X165789Y198412D01*
X168156D02*
X168307Y198563D01*
X161929Y203563D02*
X168307D01*
X168156Y188412D02*
X168317Y188573D01*
X160197Y188189D02*
X160420Y188412D01*
X168156D01*
X181910Y185807D02*
X194075D01*
X179134Y188583D02*
X181910Y185807D01*
X174409Y188583D02*
X179134D01*
X199114Y190847D02*
Y201181D01*
X194075Y185807D02*
X199114Y190847D01*
X168317Y188573D02*
X174400D01*
X174409Y188583D01*
X178829Y102766D02*
X178839Y102776D01*
X172845Y102766D02*
X178829D01*
X172835Y102756D02*
X172845Y102766D01*
X183858Y88376D02*
X185630D01*
X187205Y89951D02*
Y90158D01*
X178839Y87776D02*
X183258D01*
X183858Y88376D01*
X185630D02*
X187205Y89951D01*
X184801Y103937D02*
X188228D01*
X178839Y102776D02*
X183640D01*
X184801Y103937D01*
X187047Y97776D02*
X187303Y98032D01*
X178839Y97776D02*
X187047D01*
X41535Y254823D02*
X42421Y255709D01*
X47441D01*
X64124Y258809D02*
X64419D01*
X64124Y253002D02*
Y258809D01*
X64075Y252953D02*
X64124Y253002D01*
X41535Y254823D02*
X42421Y255709D01*
X42421Y248228D02*
X47441D01*
X41535Y249114D02*
X42421Y248228D01*
D82*
X61024Y78444D02*
Y93701D01*
Y78444D02*
X67224Y72243D01*
X57874Y77139D02*
Y93701D01*
Y77139D02*
X64075Y70938D01*
X108051Y77008D02*
X110236D01*
X106142Y75098D02*
X108051Y77008D01*
X103189Y70335D02*
X106142Y73287D01*
Y75098D01*
X101378Y70335D02*
X103189D01*
X64075Y61938D02*
Y70938D01*
X67224Y63243D02*
Y72243D01*
Y63243D02*
X68262Y62205D01*
X76772D01*
X64075Y61938D02*
X66958Y59055D01*
X75467Y59055D02*
X84409D01*
X76772Y62205D02*
X76772Y62205D01*
X66958Y59055D02*
X75467D01*
X75467Y59055D01*
X76772Y62205D02*
X83105D01*
X95310Y74410D01*
X98620D01*
X84409Y59055D02*
X96614Y71260D01*
X99546Y75335D02*
X101378D01*
X96614Y71260D02*
X98620D01*
X99546Y70335D01*
X101378D01*
X98620Y74410D02*
X99546Y75335D01*
X73638Y185449D02*
Y205293D01*
X69685Y181496D02*
X73638Y185449D01*
X66535Y183549D02*
X70488Y187502D01*
Y203989D01*
X75102Y213960D02*
X77681D01*
X71688Y218110D02*
X72141Y217657D01*
Y215453D02*
Y217657D01*
X69842Y204634D02*
X70488Y203989D01*
X72992Y211850D02*
X75102Y213960D01*
X72992Y205939D02*
X73638Y205293D01*
X69842Y213155D02*
X72141Y215453D01*
X72992Y205939D02*
Y211850D01*
X69842Y204634D02*
Y213155D01*
X66535Y181496D02*
Y183549D01*
X77681Y213960D02*
X77756Y214035D01*
X54291Y100433D02*
X57874Y96850D01*
X61024D02*
Y102756D01*
X53740Y100433D02*
X54291D01*
X57874Y93701D02*
Y96850D01*
X61024Y93701D02*
Y96850D01*
X70949Y218849D02*
X71688Y218110D01*
X70679Y218849D02*
X70949D01*
X68898Y220630D02*
X70679Y218849D01*
X68898Y220630D02*
Y220709D01*
X71688Y218110D02*
X74998D01*
X75924Y219035D01*
X62886Y176454D02*
X63112Y176680D01*
X64869D02*
X66535Y178347D01*
X63112Y176680D02*
X64869D01*
X67323Y174705D02*
X69685Y177067D01*
X67323Y172146D02*
Y174705D01*
X69685Y177067D02*
Y178347D01*
X66043Y170866D02*
X67323Y172146D01*
X64961Y170866D02*
X66043D01*
X69685Y178347D02*
Y181496D01*
X66535Y178347D02*
Y181496D01*
D83*
X55391Y166703D02*
Y202483D01*
X51181Y87008D02*
Y97874D01*
X183071Y175197D02*
X191043D01*
X183071Y175197D02*
X183071Y175197D01*
X51181Y214173D02*
X52461Y212894D01*
Y205413D02*
Y212894D01*
Y205413D02*
X55391Y202483D01*
Y166703D02*
X61956Y160138D01*
X64961Y159843D02*
X70473D01*
X76772Y153543D02*
X78980D01*
X70473Y159843D02*
X76772Y153543D01*
X61956Y160138D02*
X65748D01*
X79724Y84272D02*
Y89567D01*
X66535Y102756D02*
X79724Y89567D01*
X61024Y102756D02*
X66535D01*
X66043Y170866D02*
X80315D01*
X53740Y107579D02*
X59793Y113632D01*
X53740Y100433D02*
Y107579D01*
X51181Y97874D02*
X53740Y100433D01*
X59793Y113632D02*
X60876D01*
X106299Y144685D02*
X109843Y141142D01*
Y121989D02*
Y141142D01*
X101633Y113779D02*
X109843Y121989D01*
X61024Y113779D02*
X101633D01*
X65748Y160138D02*
X66339Y159547D01*
X96457Y159646D02*
X99298D01*
X91535D02*
X96457D01*
X80315Y170866D02*
X91535Y159646D01*
X102362Y122047D02*
Y127953D01*
X98622Y131693D02*
X102362Y127953D01*
X96457Y131693D02*
X98622D01*
X96457Y122047D02*
Y131693D01*
X90551Y122047D02*
Y127953D01*
X94291Y131693D01*
X96457D01*
X129823Y175197D02*
X137795D01*
X129823Y155512D02*
X137795D01*
X129823Y135827D02*
X137795D01*
X129823Y116142D02*
X137795D01*
X183071Y116142D02*
X191043D01*
X183071Y135827D02*
X191043D01*
X183071Y155512D02*
X191043D01*
D84*
X191043Y155512D02*
Y175197D01*
X167224Y155512D02*
Y175197D01*
X129823Y116142D02*
Y135827D01*
X129823Y155512D02*
X129823D01*
X129823D02*
Y175197D01*
X153642Y155512D02*
Y175197D01*
X153642Y116142D02*
Y135827D01*
X167224Y116142D02*
Y135827D01*
X191043Y116142D02*
Y135827D01*
X191043Y135827D02*
X191043Y135827D01*
X191043Y155512D02*
X191043Y155512D01*
D85*
X181496Y39764D02*
X191496D01*
X211496D02*
X221496D01*
X211496Y249606D02*
X221496D01*
X143701Y185138D02*
X148721Y180118D01*
X151575D02*
X153642Y178051D01*
X143701Y185138D02*
Y192028D01*
X148721Y180118D02*
X151575D01*
X153642Y175197D02*
Y178051D01*
X143602Y192126D02*
X143701Y192028D01*
X98425Y94685D02*
X113829D01*
X96457Y92716D02*
X98425Y94685D01*
X118356Y99213D02*
X129724D01*
X113829Y94685D02*
X118356Y99213D01*
X118504Y205118D02*
X129724D01*
X112008Y198622D02*
X118504Y205118D01*
X96457Y198622D02*
X112008D01*
X179134Y198563D02*
Y205512D01*
X143602Y99213D02*
X151575Y107185D01*
X141929Y99213D02*
X143602D01*
X151575Y107185D02*
Y114075D01*
X153642Y116142D01*
X141929Y192126D02*
Y205118D01*
X190945Y66772D02*
X218504Y94331D01*
X174016Y47244D02*
X181496Y39764D01*
X174016Y59842D02*
X180945Y66772D01*
X174016Y47244D02*
Y59842D01*
X180945Y66772D02*
X190945D01*
X218504Y184685D02*
Y197008D01*
X190945Y224567D02*
X218504Y197008D01*
Y94331D02*
Y104685D01*
X191496Y39764D02*
X201496D01*
X211496D01*
X173622Y224410D02*
Y241732D01*
Y211024D02*
Y224410D01*
X173779Y224567D01*
X180945D01*
X190945D01*
X173622Y211024D02*
X179134Y205512D01*
X201496Y249606D02*
X211496D01*
X191496D02*
X201496D01*
X181496D02*
X191496D01*
X173622Y241732D02*
X181496Y249606D01*
D86*
X105873Y144685D02*
X106299D01*
X99114Y145669D02*
X104889D01*
X105873Y144685D01*
X78980Y153543D02*
X86854Y145669D01*
X99114D01*
D87*
X101857Y162205D02*
Y171936D01*
X122047Y192126D02*
X129724D01*
X101857Y171936D02*
X122047Y192126D01*
X99298Y159646D02*
X101857Y162205D01*
D88*
X218504Y164685D02*
D03*
Y144685D02*
D03*
Y124685D02*
D03*
Y184685D02*
D03*
Y104685D02*
D03*
D89*
X45276Y188976D02*
D03*
Y181102D02*
D03*
Y173228D02*
D03*
D90*
Y165354D02*
D03*
Y196850D02*
D03*
D91*
X62008Y52165D02*
D03*
D92*
X124409Y43024D02*
D03*
X159055Y42965D02*
D03*
X159055Y246346D02*
D03*
X124409Y246406D02*
D03*
D93*
X131890Y70524D02*
D03*
X141732D02*
D03*
X151575D02*
D03*
X151575Y218847D02*
D03*
X141732D02*
D03*
X131890D02*
D03*
D94*
X190945Y66772D02*
D03*
X180945D02*
D03*
X190945Y76772D02*
D03*
Y214567D02*
D03*
X180945D02*
D03*
X190945Y224567D02*
D03*
X191496Y49764D02*
D03*
Y39764D02*
D03*
X201496D02*
D03*
Y49764D02*
D03*
X211496D02*
D03*
Y39764D02*
D03*
X221496Y49764D02*
D03*
X181496D02*
D03*
Y39764D02*
D03*
X211496Y239606D02*
D03*
Y249606D02*
D03*
X201496D02*
D03*
Y239606D02*
D03*
X191496D02*
D03*
Y249606D02*
D03*
X181496Y239606D02*
D03*
X221496D02*
D03*
Y249606D02*
D03*
D95*
X180945Y76772D02*
D03*
Y224567D02*
D03*
D96*
X39567Y125689D02*
D03*
Y153839D02*
D03*
X53149D02*
D03*
Y125689D02*
D03*
D97*
X47933Y131890D02*
D03*
Y147638D02*
D03*
D98*
X221496Y39764D02*
D03*
X181496Y249606D02*
D03*
D99*
X59168Y66654D02*
D03*
X43420D02*
D03*
X59055Y234252D02*
D03*
X43307D02*
D03*
X106299Y144685D02*
D03*
X90551Y122047D02*
D03*
X96457D02*
D03*
X102362D02*
D03*
D100*
X183071Y175197D02*
D03*
X55118Y202756D02*
D03*
X55391Y176454D02*
D03*
X116142Y74803D02*
D03*
X198819Y102362D02*
D03*
X169291Y92520D02*
D03*
X185945Y208661D02*
D03*
X167323Y214567D02*
D03*
X152874Y188189D02*
D03*
X41535Y143701D02*
D03*
X118110Y157480D02*
D03*
Y173228D02*
D03*
X114173Y110236D02*
D03*
X86614Y106299D02*
D03*
X98425Y185039D02*
D03*
X224410Y263779D02*
D03*
X200787D02*
D03*
X177165D02*
D03*
X153543D02*
D03*
X129921D02*
D03*
Y26772D02*
D03*
X153543D02*
D03*
X177165D02*
D03*
X200787D02*
D03*
X224410D02*
D03*
X41535Y137795D02*
D03*
Y131890D02*
D03*
X55118Y129921D02*
D03*
X90551Y177165D02*
D03*
X105020Y37402D02*
D03*
X51181Y97874D02*
D03*
X75348Y55496D02*
D03*
X85630Y70866D02*
D03*
X112205Y26772D02*
D03*
X114173Y80335D02*
D03*
X95669D02*
D03*
X79724Y84173D02*
D03*
X85433Y240551D02*
D03*
X97736Y251969D02*
D03*
X86660Y262386D02*
D03*
X65175Y224195D02*
D03*
X70866Y122638D02*
D03*
X105020Y224016D02*
D03*
X62886Y176454D02*
D03*
X41339Y116142D02*
D03*
X93701Y214035D02*
D03*
X105118D02*
D03*
X66929Y188976D02*
D03*
X137795Y175197D02*
D03*
X137795Y155512D02*
D03*
Y135827D02*
D03*
Y116142D02*
D03*
X183071Y116142D02*
D03*
Y135827D02*
D03*
X183071Y155512D02*
D03*
X199606Y94095D02*
D03*
X204724Y196063D02*
D03*
X148819Y198031D02*
D03*
X172835Y102756D02*
D03*
M02*
